  0
SECTION
  2
HEADER
  9
$ACADVER
  1
AC1027
  9
$ACADMAINTVER
 70
   125
  9
$DWGCODEPAGE
  3
ANSI_936
  9
$LASTSAVEDBY
  1
Shi99
  9
$REQUIREDVERSIONS
160
                 0
  9
$INSBASE
 10
0.0
 20
0.0
 30
0.0
  9
$EXTMIN
 10
92.16017742853569
 20
-2.21485776415112
 30
0.0
  9
$EXTMAX
 10
189.3095274285356
 20
118.9846022358488
 30
0.0
  9
$LIMMIN
 10
0.0
 20
0.0
  9
$LIMMAX
 10
12.0
 20
9.0
  9
$ORTHOMODE
 70
     0
  9
$REGENMODE
 70
     1
  9
$FILLMODE
 70
     0
  9
$QTEXTMODE
 70
     0
  9
$MIRRTEXT
 70
     0
  9
$LTSCALE
 40
1.0
  9
$ATTMODE
 70
     1
  9
$TEXTSIZE
 40
0.2
  9
$TRACEWID
 40
0.05
  9
$TEXTSTYLE
  7
Standard
  9
$CLAYER
  8
0
  9
$CELTYPE
  6
Continuous
  9
$CECOLOR
 62
   256
  9
$CELTSCALE
 40
1.0
  9
$DISPSILH
 70
     0
  9
$DIMSCALE
 40
1.0
  9
$DIMASZ
 40
0.18
  9
$DIMEXO
 40
0.0625
  9
$DIMDLI
 40
0.38
  9
$DIMRND
 40
0.0
  9
$DIMDLE
 40
0.0
  9
$DIMEXE
 40
0.18
  9
$DIMTP
 40
0.0
  9
$DIMTM
 40
0.0
  9
$DIMTXT
 40
0.18
  9
$DIMCEN
 40
0.09
  9
$DIMTSZ
 40
0.0
  9
$DIMTOL
 70
     0
  9
$DIMLIM
 70
     0
  9
$DIMTIH
 70
     1
  9
$DIMTOH
 70
     1
  9
$DIMSE1
 70
     0
  9
$DIMSE2
 70
     0
  9
$DIMTAD
 70
     0
  9
$DIMZIN
 70
     0
  9
$DIMBLK
  1

  9
$DIMASO
 70
     1
  9
$DIMSHO
 70
     1
  9
$DIMPOST
  1

  9
$DIMAPOST
  1

  9
$DIMALT
 70
     0
  9
$DIMALTD
 70
     2
  9
$DIMALTF
 40
25.4
  9
$DIMLFAC
 40
1.0
  9
$DIMTOFL
 70
     0
  9
$DIMTVP
 40
0.0
  9
$DIMTIX
 70
     0
  9
$DIMSOXD
 70
     0
  9
$DIMSAH
 70
     0
  9
$DIMBLK1
  1

  9
$DIMBLK2
  1

  9
$DIMSTYLE
  2
Standard
  9
$DIMCLRD
 70
     0
  9
$DIMCLRE
 70
     0
  9
$DIMCLRT
 70
     0
  9
$DIMTFAC
 40
1.0
  9
$DIMGAP
 40
0.09
  9
$DIMJUST
 70
     0
  9
$DIMSD1
 70
     0
  9
$DIMSD2
 70
     0
  9
$DIMTOLJ
 70
     1
  9
$DIMTZIN
 70
     0
  9
$DIMALTZ
 70
     0
  9
$DIMALTTZ
 70
     0
  9
$DIMUPT
 70
     0
  9
$DIMDEC
 70
     4
  9
$DIMTDEC
 70
     4
  9
$DIMALTU
 70
     2
  9
$DIMALTTD
 70
     2
  9
$DIMTXSTY
  7
Standard
  9
$DIMAUNIT
 70
     0
  9
$DIMADEC
 70
     0
  9
$DIMALTRND
 40
0.0
  9
$DIMAZIN
 70
     0
  9
$DIMDSEP
 70
    46
  9
$DIMATFIT
 70
     3
  9
$DIMFRAC
 70
     0
  9
$DIMLDRBLK
  1

  9
$DIMLUNIT
 70
     2
  9
$DIMLWD
 70
    -2
  9
$DIMLWE
 70
    -2
  9
$DIMTMOVE
 70
     0
  9
$DIMFXL
 40
1.0
  9
$DIMFXLON
 70
     0
  9
$DIMJOGANG
 40
0.7853981633974483
  9
$DIMTFILL
 70
     0
  9
$DIMTFILLCLR
 70
     0
  9
$DIMARCSYM
 70
     0
  9
$DIMLTYPE
  6

  9
$DIMLTEX1
  6

  9
$DIMLTEX2
  6

  9
$DIMTXTDIRECTION
 70
     0
  9
$LUNITS
 70
     2
  9
$LUPREC
 70
     4
  9
$SKETCHINC
 40
0.1
  9
$FILLETRAD
 40
2.0
  9
$AUNITS
 70
     0
  9
$AUPREC
 70
     0
  9
$MENU
  1
.
  9
$ELEVATION
 40
0.0
  9
$PELEVATION
 40
0.0
  9
$THICKNESS
 40
0.0
  9
$LIMCHECK
 70
     0
  9
$CHAMFERA
 40
0.0
  9
$CHAMFERB
 40
0.0
  9
$CHAMFERC
 40
0.0
  9
$CHAMFERD
 40
0.0
  9
$SKPOLY
 70
     0
  9
$TDCREATE
 40
2460097.837743056
  9
$TDUCREATE
 40
2460097.504409722
  9
$TDUPDATE
 40
2460165.704791667
  9
$TDUUPDATE
 40
2460165.371458334
  9
$TDINDWG
 40
0.0432291667
  9
$TDUSRTIMER
 40
0.0432291667
  9
$USRTIMER
 70
     1
  9
$ANGBASE
 50
0.0
  9
$ANGDIR
 70
     0
  9
$PDMODE
 70
     0
  9
$PDSIZE
 40
0.0
  9
$PLINEWID
 40
0.0
  9
$SPLFRAME
 70
     1
  9
$SPLINETYPE
 70
     6
  9
$SPLINESEGS
 70
     8
  9
$HANDSEED
  5
53A
  9
$SURFTAB1
 70
     6
  9
$SURFTAB2
 70
     6
  9
$SURFTYPE
 70
     6
  9
$SURFU
 70
     6
  9
$SURFV
 70
     6
  9
$UCSBASE
  2

  9
$UCSNAME
  2

  9
$UCSORG
 10
0.0
 20
0.0
 30
0.0
  9
$UCSXDIR
 10
1.0
 20
0.0
 30
0.0
  9
$UCSYDIR
 10
0.0
 20
1.0
 30
0.0
  9
$UCSORTHOREF
  2

  9
$UCSORTHOVIEW
 70
     0
  9
$UCSORGTOP
 10
0.0
 20
0.0
 30
0.0
  9
$UCSORGBOTTOM
 10
0.0
 20
0.0
 30
0.0
  9
$UCSORGLEFT
 10
0.0
 20
0.0
 30
0.0
  9
$UCSORGRIGHT
 10
0.0
 20
0.0
 30
0.0
  9
$UCSORGFRONT
 10
0.0
 20
0.0
 30
0.0
  9
$UCSORGBACK
 10
0.0
 20
0.0
 30
0.0
  9
$PUCSBASE
  2

  9
$PUCSNAME
  2

  9
$PUCSORG
 10
0.0
 20
0.0
 30
0.0
  9
$PUCSXDIR
 10
1.0
 20
0.0
 30
0.0
  9
$PUCSYDIR
 10
0.0
 20
1.0
 30
0.0
  9
$PUCSORTHOREF
  2

  9
$PUCSORTHOVIEW
 70
     0
  9
$PUCSORGTOP
 10
0.0
 20
0.0
 30
0.0
  9
$PUCSORGBOTTOM
 10
0.0
 20
0.0
 30
0.0
  9
$PUCSORGLEFT
 10
0.0
 20
0.0
 30
0.0
  9
$PUCSORGRIGHT
 10
0.0
 20
0.0
 30
0.0
  9
$PUCSORGFRONT
 10
0.0
 20
0.0
 30
0.0
  9
$PUCSORGBACK
 10
0.0
 20
0.0
 30
0.0
  9
$USERI1
 70
     0
  9
$USERI2
 70
     0
  9
$USERI3
 70
     0
  9
$USERI4
 70
     0
  9
$USERI5
 70
     0
  9
$USERR1
 40
0.0
  9
$USERR2
 40
0.0
  9
$USERR3
 40
0.0
  9
$USERR4
 40
0.0
  9
$USERR5
 40
0.0
  9
$WORLDVIEW
 70
     1
  9
$SHADEDGE
 70
     3
  9
$SHADEDIF
 70
    70
  9
$TILEMODE
 70
     1
  9
$MAXACTVP
 70
    64
  9
$PINSBASE
 10
0.0
 20
0.0
 30
0.0
  9
$PLIMCHECK
 70
     0
  9
$PEXTMIN
 10
1.000000000000000E+20
 20
1.000000000000000E+20
 30
1.000000000000000E+20
  9
$PEXTMAX
 10
-1.000000000000000E+20
 20
-1.000000000000000E+20
 30
-1.000000000000000E+20
  9
$PLIMMIN
 10
0.0
 20
0.0
  9
$PLIMMAX
 10
12.0
 20
9.0
  9
$UNITMODE
 70
     0
  9
$VISRETAIN
 70
     1
  9
$PLINEGEN
 70
     0
  9
$PSLTSCALE
 70
     1
  9
$TREEDEPTH
 70
  3020
  9
$CMLSTYLE
  2
Standard
  9
$CMLJUST
 70
     0
  9
$CMLSCALE
 40
1.0
  9
$PROXYGRAPHICS
 70
     1
  9
$MEASUREMENT
 70
     0
  9
$CELWEIGHT
370
    -1
  9
$ENDCAPS
280
     0
  9
$JOINSTYLE
280
     0
  9
$LWDISPLAY
290
     0
  9
$INSUNITS
 70
     0
  9
$HYPERLINKBASE
  1

  9
$STYLESHEET
  1

  9
$XEDIT
290
     1
  9
$CEPSNTYPE
380
     0
  9
$PSTYLEMODE
290
     1
  9
$FINGERPRINTGUID
  2
{4AB50D96-C6FC-1E4E-96EF-C1C7FBE42368}
  9
$VERSIONGUID
  2
{8EBB35E9-2C50-E14D-836C-23CB1642D53B}
  9
$EXTNAMES
290
     1
  9
$PSVPSCALE
 40
0.0
  9
$OLESTARTUP
290
     0
  9
$SORTENTS
280
   127
  9
$INDEXCTL
280
     0
  9
$HIDETEXT
280
     0
  9
$XCLIPFRAME
280
     2
  9
$HALOGAP
280
     0
  9
$OBSCOLOR
 70
   257
  9
$OBSLTYPE
280
     0
  9
$INTERSECTIONDISPLAY
280
     0
  9
$INTERSECTIONCOLOR
 70
   257
  9
$DIMASSOC
280
     1
  9
$PROJECTNAME
  1

  9
$CAMERADISPLAY
290
     0
  9
$LENSLENGTH
 40
50.0
  9
$CAMERAHEIGHT
 40
0.0
  9
$STEPSPERSEC
 40
2.0
  9
$STEPSIZE
 40
6.0
  9
$3DDWFPREC
 40
2.0
  9
$PSOLWIDTH
 40
0.25
  9
$PSOLHEIGHT
 40
4.0
  9
$LOFTANG1
 40
1.570796326794896
  9
$LOFTANG2
 40
1.570796326794896
  9
$LOFTMAG1
 40
0.0
  9
$LOFTMAG2
 40
0.0
  9
$LOFTPARAM
 70
     7
  9
$LOFTNORMALS
280
     1
  9
$LATITUDE
 40
37.795
  9
$LONGITUDE
 40
-122.394
  9
$NORTHDIRECTION
 40
0.0
  9
$TIMEZONE
 70
 -8000
  9
$LIGHTGLYPHDISPLAY
280
     1
  9
$TILEMODELIGHTSYNCH
280
     1
  9
$CMATERIAL
347
11
  9
$SOLIDHIST
280
     0
  9
$SHOWHIST
280
     1
  9
$DWFFRAME
280
     2
  9
$DGNFRAME
280
     0
  9
$REALWORLDSCALE
290
     1
  9
$INTERFERECOLOR
 62
     1
  9
$INTERFEREOBJVS
345
33
  9
$INTERFEREVPVS
346
30
  9
$CSHADOW
280
     0
  9
$SHADOWPLANELOCATION
 40
0.0
  0
ENDSEC
  0
SECTION
  2
CLASSES
  0
CLASS
  1
ACDBDICTIONARYWDFLT
  2
AcDbDictionaryWithDefault
  3
ObjectDBX Classes
 90
        0
 91
        1
280
     0
281
     0
  0
CLASS
  1
MATERIAL
  2
AcDbMaterial
  3
ObjectDBX Classes
 90
     1153
 91
        3
280
     0
281
     0
  0
CLASS
  1
VISUALSTYLE
  2
AcDbVisualStyle
  3
ObjectDBX Classes
 90
     4095
 91
       24
280
     0
281
     0
  0
CLASS
  1
SCALE
  2
AcDbScale
  3
ObjectDBX Classes
 90
     1153
 91
       17
280
     0
281
     0
  0
CLASS
  1
TABLESTYLE
  2
AcDbTableStyle
  3
ObjectDBX Classes
 90
     4095
 91
        1
280
     0
281
     0
  0
CLASS
  1
MLEADERSTYLE
  2
AcDbMLeaderStyle
  3
ACDB_MLEADERSTYLE_CLASS
 90
     4095
 91
        1
280
     0
281
     0
  0
CLASS
  1
ACDBSECTIONVIEWSTYLE
  2
AcDbSectionViewStyle
  3
ObjectDBX Classes
 90
     1025
 91
        1
280
     0
281
     0
  0
CLASS
  1
ACDBDETAILVIEWSTYLE
  2
AcDbDetailViewStyle
  3
ObjectDBX Classes
 90
     1025
 91
        1
280
     0
281
     0
  0
CLASS
  1
DICTIONARYVAR
  2
AcDbDictionaryVar
  3
ObjectDBX Classes
 90
        0
 91
       14
280
     0
281
     0
  0
CLASS
  1
SORTENTSTABLE
  2
AcDbSortentsTable
  3
ObjectDBX Classes
 90
        0
 91
        4
280
     0
281
     0
  0
CLASS
  1
CELLSTYLEMAP
  2
AcDbCellStyleMap
  3
ObjectDBX Classes
 90
     1152
 91
        1
280
     0
281
     0
  0
ENDSEC
  0
SECTION
  2
TABLES
  0
TABLE
  2
VPORT
  5
8
330
0
100
AcDbSymbolTable
 70
     1
1001
ACAD
1000
DbSaveVer
1071
      298
  0
VPORT
  5
74
330
8
100
AcDbSymbolTableRecord
100
AcDbViewportTableRecord
  2
*Active
 70
     0
 10
0.0
 20
0.0
 11
1.0
 21
1.0
 12
165.9650324173107
 22
74.41065233867078
 13
0.0
 23
0.0
 14
1.0
 24
1.0
 15
0.0
 25
0.0
 16
0.0
 26
0.0
 36
1.0
 17
0.0
 27
0.0
 37
0.0
 40
189.8989024113244
 41
3.095409540954095
 42
50.0
 43
0.0
 44
0.0
 50
0.0
 51
0.0
 71
     0
 72
   100
 73
     1
 74
     1
 75
     0
 76
     0
 77
     0
 78
     0
281
     0
 65
     1
110
0.0
120
0.0
130
0.0
111
1.0
121
0.0
131
0.0
112
0.0
122
1.0
132
0.0
 79
     0
146
0.0
348
2F
 60
     3
 61
     5
292
     1
282
     1
141
0.0
142
0.0
 63
   250
421
  3355443
1001
ACAD_NAV_VCDISPLAY
1070
     3
  0
ENDTAB
  0
TABLE
  2
LTYPE
  5
5
330
0
100
AcDbSymbolTable
 70
     2
  0
LTYPE
  5
5A
330
5
100
AcDbSymbolTableRecord
100
AcDbLinetypeTableRecord
  2
ByBlock
 70
     0
  3

 72
    65
 73
     0
 40
0.0
  0
LTYPE
  5
5B
330
5
100
AcDbSymbolTableRecord
100
AcDbLinetypeTableRecord
  2
ByLayer
 70
     0
  3

 72
    65
 73
     0
 40
0.0
  0
LTYPE
  5
5C
330
5
100
AcDbSymbolTableRecord
100
AcDbLinetypeTableRecord
  2
Continuous
 70
     0
  3
Solid line
 72
    65
 73
     0
 40
0.0
  0
ENDTAB
  0
TABLE
  2
LAYER
  5
2
102
{ACAD_XDICTIONARY
360
1A1
102
}
330
0
100
AcDbSymbolTable
 70
     1
  0
LAYER
  5
54
102
{ACAD_XDICTIONARY
360
19C
102
}
330
2
100
AcDbSymbolTableRecord
100
AcDbLayerTableRecord
  2
0
 70
     0
 62
     7
  6
Continuous
370
    -3
390
F
347
21
348
0
  0
ENDTAB
  0
TABLE
  2
STYLE
  5
3
330
0
100
AcDbSymbolTable
 70
     2
  0
STYLE
  5
55
330
3
100
AcDbSymbolTableRecord
100
AcDbTextStyleTableRecord
  2
Standard
 70
     0
 40
0.0
 41
1.0
 50
0.0
 71
     0
 42
0.2
  3
txt
  4

  0
STYLE
  5
59
330
3
100
AcDbSymbolTableRecord
100
AcDbTextStyleTableRecord
  2
Annotative
 70
     0
 40
0.0
 41
1.0
 50
0.0
 71
     0
 42
0.2
  3
txt
  4

1001
AcadAnnotative
1000
AnnotativeData
1002
{
1070
     1
1070
     1
1002
}
  0
ENDTAB
  0
TABLE
  2
VIEW
  5
6
330
0
100
AcDbSymbolTable
 70
     1
  0
ENDTAB
  0
TABLE
  2
UCS
  5
7
330
0
100
AcDbSymbolTable
 70
     0
  0
ENDTAB
  0
TABLE
  2
APPID
  5
9
330
0
100
AcDbSymbolTable
 70
     4
  0
APPID
  5
56
330
9
100
AcDbSymbolTableRecord
100
AcDbRegAppTableRecord
  2
ACAD
 70
     0
  0
APPID
  5
5D
330
9
100
AcDbSymbolTableRecord
100
AcDbRegAppTableRecord
  2
AcadAnnotative
 70
     0
  0
APPID
  5
112
330
9
100
AcDbSymbolTableRecord
100
AcDbRegAppTableRecord
  2
ACAD_NAV_VCDISPLAY
 70
     0
  0
APPID
  5
121
330
9
100
AcDbSymbolTableRecord
100
AcDbRegAppTableRecord
  2
ACAD_EXEMPT_FROM_CAD_STANDARDS
 70
     0
  0
ENDTAB
  0
TABLE
  2
DIMSTYLE
  5
A
330
0
100
AcDbSymbolTable
 70
     3
100
AcDbDimStyleTable
 71
     1
340
57
  0
DIMSTYLE
105
57
330
A
100
AcDbSymbolTableRecord
100
AcDbDimStyleTableRecord
  2
Standard
 70
     0
340
55
  0
DIMSTYLE
105
58
330
A
100
AcDbSymbolTableRecord
100
AcDbDimStyleTableRecord
  2
Annotative
 70
     0
340
55
1001
AcadAnnotative
1000
AnnotativeData
1002
{
1070
     1
1070
     1
1002
}
  0
ENDTAB
  0
TABLE
  2
BLOCK_RECORD
  5
1
330
0
100
AcDbSymbolTable
 70
     5
  0
BLOCK_RECORD
  5
6F
102
{ACAD_XDICTIONARY
360
154
102
}
330
1
100
AcDbSymbolTableRecord
100
AcDbBlockTableRecord
  2
*Model_Space
340
72
 70
     0
280
     1
281
     0
  0
BLOCK_RECORD
  5
6B
330
1
100
AcDbSymbolTableRecord
100
AcDbBlockTableRecord
  2
*Paper_Space
340
6E
 70
     0
280
     1
281
     0
  0
BLOCK_RECORD
  5
1B4
330
1
100
AcDbSymbolTableRecord
100
AcDbBlockTableRecord
  2
A$C40a57d5d
340
0
 70
     0
280
     1
281
     0
  0
BLOCK_RECORD
  5
3E4
102
{ACAD_XDICTIONARY
360
3F8
102
}
330
1
100
AcDbSymbolTableRecord
100
AcDbBlockTableRecord
  2
A$C72b8d924
340
0
 70
     0
280
     1
281
     0
  0
BLOCK_RECORD
  5
3FC
102
{ACAD_XDICTIONARY
360
410
102
}
330
1
100
AcDbSymbolTableRecord
100
AcDbBlockTableRecord
  2
A$C67e14d47
340
0
 70
     0
280
     1
281
     0
  0
BLOCK_RECORD
  5
41A
102
{ACAD_XDICTIONARY
360
42F
102
}
330
1
100
AcDbSymbolTableRecord
100
AcDbBlockTableRecord
  2
A$Ce54eaa1e
340
0
 70
     0
280
     1
281
     0
  0
ENDTAB
  0
ENDSEC
  0
SECTION
  2
BLOCKS
  0
BLOCK
  5
70
330
6F
100
AcDbEntity
  8
0
100
AcDbBlockBegin
  2
*Model_Space
 70
     0
 10
0.0
 20
0.0
 30
0.0
  3
*Model_Space
  1

  0
ENDBLK
  5
71
330
6F
100
AcDbEntity
  8
0
100
AcDbBlockEnd
  0
BLOCK
  5
6C
330
6B
100
AcDbEntity
 67
     1
  8
0
100
AcDbBlockBegin
  2
*Paper_Space
 70
     0
 10
0.0
 20
0.0
 30
0.0
  3
*Paper_Space
  1

  0
ENDBLK
  5
6D
330
6B
100
AcDbEntity
 67
     1
  8
0
100
AcDbBlockEnd
  0
BLOCK
  5
259
330
1B4
100
AcDbEntity
  8
0
100
AcDbBlockBegin
  2
A$C40a57d5d
 70
     0
 10
0.0
 20
0.0
 30
0.0
  3
A$C40a57d5d
  1

  0
LINE
  5
1B5
330
1B4
100
AcDbEntity
  8
0
 62
     0
100
AcDbLine
 10
9.52505
 20
14.9696
 30
0.0
 11
9.52505
 21
10.2691
 31
0.0
  0
LINE
  5
1B6
330
1B4
100
AcDbEntity
  8
0
 62
     0
100
AcDbLine
 10
9.52505
 20
10.2691
 30
0.0
 11
7.999549999999999
 21
10.2691
 31
0.0
  0
LINE
  5
1B7
330
1B4
100
AcDbEntity
  8
0
 62
     0
100
AcDbLine
 10
7.999549999999999
 20
10.2691
 30
0.0
 11
7.999549999999999
 21
13.4993
 31
0.0
  0
LINE
  5
1B8
330
1B4
100
AcDbEntity
  8
0
 62
     0
100
AcDbLine
 10
7.999549999999999
 20
13.4993
 30
0.0
 11
1.249899999999999
 21
13.4993
 31
0.0
  0
LINE
  5
1B9
330
1B4
100
AcDbEntity
  8
0
 62
     0
100
AcDbLine
 10
1.249899999999999
 20
13.4993
 30
0.0
 11
1.249899999999999
 21
10.2691
 31
0.0
  0
LINE
  5
1BA
330
1B4
100
AcDbEntity
  8
0
 62
     0
100
AcDbLine
 10
1.249899999999999
 20
10.2691
 30
0.0
 11
0.4244400000000002
 21
10.2691
 31
0.0
  0
LINE
  5
1BB
330
1B4
100
AcDbEntity
  8
0
 62
     0
100
AcDbLine
 10
0.4244400000000002
 20
10.2691
 30
0.0
 11
0.4244400000000002
 21
7.47034
 31
0.0
  0
LINE
  5
1BC
330
1B4
100
AcDbEntity
  8
0
 62
     0
100
AcDbLine
 10
0.4244400000000002
 20
7.47034
 30
0.0
 11
1.249899999999999
 21
7.47034
 31
0.0
  0
LINE
  5
1BD
330
1B4
100
AcDbEntity
  8
0
 62
     0
100
AcDbLine
 10
1.249899999999999
 20
7.47034
 30
0.0
 11
1.249899999999999
 21
1.20027
 31
0.0
  0
LINE
  5
1BE
330
1B4
100
AcDbEntity
  8
0
 62
     0
100
AcDbLine
 10
1.249899999999999
 20
1.20027
 30
0.0
 11
2.97519
 21
1.20027
 31
0.0
  0
LINE
  5
1BF
330
1B4
100
AcDbEntity
  8
0
 62
     0
100
AcDbLine
 10
2.97519
 20
1.20027
 30
0.0
 11
2.97519
 21
0.0
 31
0.0
  0
LINE
  5
1C0
330
1B4
100
AcDbEntity
  8
0
 62
     0
100
AcDbLine
 10
2.97519
 20
0.0
 30
0.0
 11
6.2742
 21
0.0
 31
0.0
  0
LINE
  5
1C1
330
1B4
100
AcDbEntity
  8
0
 62
     0
100
AcDbLine
 10
6.2742
 20
0.0
 30
0.0
 11
6.2742
 21
1.20027
 31
0.0
  0
LINE
  5
1C2
330
1B4
100
AcDbEntity
  8
0
 62
     0
100
AcDbLine
 10
6.2742
 20
1.20027
 30
0.0
 11
7.999549999999999
 21
1.20027
 31
0.0
  0
LINE
  5
1C3
330
1B4
100
AcDbEntity
  8
0
 62
     0
100
AcDbLine
 10
7.999549999999999
 20
1.20027
 30
0.0
 11
7.999549999999999
 21
5.66923
 31
0.0
  0
LINE
  5
1C4
330
1B4
100
AcDbEntity
  8
0
 62
     0
100
AcDbLine
 10
7.999549999999999
 20
5.66923
 30
0.0
 11
9.52505
 21
5.66923
 31
0.0
  0
LINE
  5
1C5
330
1B4
100
AcDbEntity
  8
0
 62
     0
100
AcDbLine
 10
9.52505
 20
5.66923
 30
0.0
 11
9.52505
 21
0.9701400000000003
 31
0.0
  0
LINE
  5
1C6
330
1B4
100
AcDbEntity
  8
0
 62
     0
100
AcDbLine
 10
9.52505
 20
0.9701400000000003
 30
0.0
 11
23.52445
 21
0.9701400000000003
 31
0.0
  0
LINE
  5
1C7
330
1B4
100
AcDbEntity
  8
0
 62
     0
100
AcDbLine
 10
23.52445
 20
0.9701400000000003
 30
0.0
 11
23.52445
 21
5.66923
 31
0.0
  0
LINE
  5
1C8
330
1B4
100
AcDbEntity
  8
0
 62
     0
100
AcDbLine
 10
23.52445
 20
5.66923
 30
0.0
 11
25.04995
 21
5.66923
 31
0.0
  0
LINE
  5
1C9
330
1B4
100
AcDbEntity
  8
0
 62
     0
100
AcDbLine
 10
25.04995
 20
5.66923
 30
0.0
 11
25.04995
 21
1.20027
 31
0.0
  0
LINE
  5
1CA
330
1B4
100
AcDbEntity
  8
0
 62
     0
100
AcDbLine
 10
25.04995
 20
1.20027
 30
0.0
 11
26.77525
 21
1.20027
 31
0.0
  0
LINE
  5
1CB
330
1B4
100
AcDbEntity
  8
0
 62
     0
100
AcDbLine
 10
26.77525
 20
1.20027
 30
0.0
 11
26.77525
 21
0.0
 31
0.0
  0
LINE
  5
1CC
330
1B4
100
AcDbEntity
  8
0
 62
     0
100
AcDbLine
 10
26.77525
 20
0.0
 30
0.0
 11
30.07435
 21
0.0
 31
0.0
  0
LINE
  5
1CD
330
1B4
100
AcDbEntity
  8
0
 62
     0
100
AcDbLine
 10
30.07435
 20
0.0
 30
0.0
 11
30.07435
 21
1.20027
 31
0.0
  0
LINE
  5
1CE
330
1B4
100
AcDbEntity
  8
0
 62
     0
100
AcDbLine
 10
30.07435
 20
1.20027
 30
0.0
 11
31.79965
 21
1.20027
 31
0.0
  0
LINE
  5
1CF
330
1B4
100
AcDbEntity
  8
0
 62
     0
100
AcDbLine
 10
31.79965
 20
1.20027
 30
0.0
 11
31.79965
 21
7.47034
 31
0.0
  0
LINE
  5
1D0
330
1B4
100
AcDbEntity
  8
0
 62
     0
100
AcDbLine
 10
31.79965
 20
7.47034
 30
0.0
 11
32.62505
 21
7.47034
 31
0.0
  0
LINE
  5
1D1
330
1B4
100
AcDbEntity
  8
0
 62
     0
100
AcDbLine
 10
32.62505
 20
7.47034
 30
0.0
 11
32.62505
 21
10.2691
 31
0.0
  0
LINE
  5
1D2
330
1B4
100
AcDbEntity
  8
0
 62
     0
100
AcDbLine
 10
32.62505
 20
10.2691
 30
0.0
 11
31.79965
 21
10.2691
 31
0.0
  0
LINE
  5
1D3
330
1B4
100
AcDbEntity
  8
0
 62
     0
100
AcDbLine
 10
31.79965
 20
10.2691
 30
0.0
 11
31.79965
 21
13.4993
 31
0.0
  0
LINE
  5
1D4
330
1B4
100
AcDbEntity
  8
0
 62
     0
100
AcDbLine
 10
31.79965
 20
13.4993
 30
0.0
 11
25.04995
 21
13.4993
 31
0.0
  0
LINE
  5
1D5
330
1B4
100
AcDbEntity
  8
0
 62
     0
100
AcDbLine
 10
25.04995
 20
13.4993
 30
0.0
 11
25.04995
 21
10.2691
 31
0.0
  0
LINE
  5
1D6
330
1B4
100
AcDbEntity
  8
0
 62
     0
100
AcDbLine
 10
25.04995
 20
10.2691
 30
0.0
 11
23.52445
 21
10.2691
 31
0.0
  0
LINE
  5
1D7
330
1B4
100
AcDbEntity
  8
0
 62
     0
100
AcDbLine
 10
23.52445
 20
10.2691
 30
0.0
 11
23.52445
 21
14.9696
 31
0.0
  0
LINE
  5
1D8
330
1B4
100
AcDbEntity
  8
0
 62
     0
100
AcDbLine
 10
23.52445
 20
14.9696
 30
0.0
 11
9.52505
 21
14.9696
 31
0.0
  0
LINE
  5
1D9
330
1B4
100
AcDbEntity
  8
0
 62
     0
100
AcDbLine
 10
38.10005
 20
14.9696
 30
0.0
 11
52.09934999999999
 21
14.9696
 31
0.0
  0
LINE
  5
1DA
330
1B4
100
AcDbEntity
  8
0
 62
     0
100
AcDbLine
 10
52.09934999999999
 20
14.9696
 30
0.0
 11
52.09934999999999
 21
0.9701400000000003
 31
0.0
  0
LINE
  5
1DB
330
1B4
100
AcDbEntity
  8
0
 62
     0
100
AcDbLine
 10
52.09934999999999
 20
0.9701400000000003
 30
0.0
 11
38.10005
 21
0.9701400000000003
 31
0.0
  0
LINE
  5
1DC
330
1B4
100
AcDbEntity
  8
0
 62
     0
100
AcDbLine
 10
38.10005
 20
0.9701400000000003
 30
0.0
 11
38.10005
 21
14.9696
 31
0.0
  0
LINE
  5
1DD
330
1B4
100
AcDbEntity
  8
0
 62
     0
100
AcDbLine
 10
63.65034999999999
 20
33.59520000000001
 30
0.0
 11
63.65034999999999
 21
32.7698
 31
0.0
  0
LINE
  5
1DE
330
1B4
100
AcDbEntity
  8
0
 62
     0
100
AcDbLine
 10
63.65034999999999
 20
32.7698
 30
0.0
 11
57.38005
 21
32.7698
 31
0.0
  0
LINE
  5
1DF
330
1B4
100
AcDbEntity
  8
0
 62
     0
100
AcDbLine
 10
57.38005
 20
32.7698
 30
0.0
 11
57.38005
 21
31.0444
 31
0.0
  0
LINE
  5
1E0
330
1B4
100
AcDbEntity
  8
0
 62
     0
100
AcDbLine
 10
57.38005
 20
31.0444
 30
0.0
 11
56.17995
 21
31.0444
 31
0.0
  0
LINE
  5
1E1
330
1B4
100
AcDbEntity
  8
0
 62
     0
100
AcDbLine
 10
56.17995
 20
31.0444
 30
0.0
 11
56.17995
 21
27.7454
 31
0.0
  0
LINE
  5
1E2
330
1B4
100
AcDbEntity
  8
0
 62
     0
100
AcDbLine
 10
56.17995
 20
27.7454
 30
0.0
 11
57.38005
 21
27.7454
 31
0.0
  0
LINE
  5
1E3
330
1B4
100
AcDbEntity
  8
0
 62
     0
100
AcDbLine
 10
57.38005
 20
27.7454
 30
0.0
 11
57.38005
 21
26.0201
 31
0.0
  0
LINE
  5
1E4
330
1B4
100
AcDbEntity
  8
0
 62
     0
100
AcDbLine
 10
57.38005
 20
26.0201
 30
0.0
 11
61.85045
 21
26.0201
 31
0.0
  0
LINE
  5
1E5
330
1B4
100
AcDbEntity
  8
0
 62
     0
100
AcDbLine
 10
61.85045
 20
26.0201
 30
0.0
 11
61.85045
 21
24.4946
 31
0.0
  0
LINE
  5
1E6
330
1B4
100
AcDbEntity
  8
0
 62
     0
100
AcDbLine
 10
61.85045
 20
24.4946
 30
0.0
 11
57.15005
 21
24.4946
 31
0.0
  0
LINE
  5
1E7
330
1B4
100
AcDbEntity
  8
0
 62
     0
100
AcDbLine
 10
57.15005
 20
24.4946
 30
0.0
 11
57.15005
 21
10.4951
 31
0.0
  0
LINE
  5
1E8
330
1B4
100
AcDbEntity
  8
0
 62
     0
100
AcDbLine
 10
57.15005
 20
10.4951
 30
0.0
 11
61.85045
 21
10.4951
 31
0.0
  0
LINE
  5
1E9
330
1B4
100
AcDbEntity
  8
0
 62
     0
100
AcDbLine
 10
61.85045
 20
10.4951
 30
0.0
 11
61.85045
 21
8.969599999999999
 31
0.0
  0
LINE
  5
1EA
330
1B4
100
AcDbEntity
  8
0
 62
     0
100
AcDbLine
 10
61.85045
 20
8.969599999999999
 30
0.0
 11
57.38005
 21
8.969599999999999
 31
0.0
  0
LINE
  5
1EB
330
1B4
100
AcDbEntity
  8
0
 62
     0
100
AcDbLine
 10
57.38005
 20
8.969599999999999
 30
0.0
 11
57.38005
 21
7.24435
 31
0.0
  0
LINE
  5
1EC
330
1B4
100
AcDbEntity
  8
0
 62
     0
100
AcDbLine
 10
57.38005
 20
7.24435
 30
0.0
 11
56.17995
 21
7.24435
 31
0.0
  0
LINE
  5
1ED
330
1B4
100
AcDbEntity
  8
0
 62
     0
100
AcDbLine
 10
56.17995
 20
7.24435
 30
0.0
 11
56.17995
 21
3.945309999999999
 31
0.0
  0
LINE
  5
1EE
330
1B4
100
AcDbEntity
  8
0
 62
     0
100
AcDbLine
 10
56.17995
 20
3.945309999999999
 30
0.0
 11
57.38005
 21
3.945309999999999
 31
0.0
  0
LINE
  5
1EF
330
1B4
100
AcDbEntity
  8
0
 62
     0
100
AcDbLine
 10
57.38005
 20
3.945309999999999
 30
0.0
 11
57.38005
 21
2.220019999999999
 31
0.0
  0
LINE
  5
1F0
330
1B4
100
AcDbEntity
  8
0
 62
     0
100
AcDbLine
 10
57.38005
 20
2.220019999999999
 30
0.0
 11
63.65034999999999
 21
2.220019999999999
 31
0.0
  0
LINE
  5
1F1
330
1B4
100
AcDbEntity
  8
0
 62
     0
100
AcDbLine
 10
63.65034999999999
 20
2.220019999999999
 30
0.0
 11
63.65034999999999
 21
1.39457
 31
0.0
  0
LINE
  5
1F2
330
1B4
100
AcDbEntity
  8
0
 62
     0
100
AcDbLine
 10
63.65034999999999
 20
1.39457
 30
0.0
 11
66.45034999999999
 21
1.39457
 31
0.0
  0
LINE
  5
1F3
330
1B4
100
AcDbEntity
  8
0
 62
     0
100
AcDbLine
 10
66.45034999999999
 20
1.39457
 30
0.0
 11
66.45034999999999
 21
2.220019999999999
 31
0.0
  0
LINE
  5
1F4
330
1B4
100
AcDbEntity
  8
0
 62
     0
100
AcDbLine
 10
66.45034999999999
 20
2.220019999999999
 30
0.0
 11
69.68035
 21
2.220019999999999
 31
0.0
  0
LINE
  5
1F5
330
1B4
100
AcDbEntity
  8
0
 62
     0
100
AcDbLine
 10
69.68035
 20
2.220019999999999
 30
0.0
 11
69.68035
 21
8.969599999999999
 31
0.0
  0
LINE
  5
1F6
330
1B4
100
AcDbEntity
  8
0
 62
     0
100
AcDbLine
 10
69.68035
 20
8.969599999999999
 30
0.0
 11
66.45034999999999
 21
8.969599999999999
 31
0.0
  0
LINE
  5
1F7
330
1B4
100
AcDbEntity
  8
0
 62
     0
100
AcDbLine
 10
66.45034999999999
 20
8.969599999999999
 30
0.0
 11
66.45034999999999
 21
10.4951
 31
0.0
  0
LINE
  5
1F8
330
1B4
100
AcDbEntity
  8
0
 62
     0
100
AcDbLine
 10
66.45034999999999
 20
10.4951
 30
0.0
 11
71.14935
 21
10.4951
 31
0.0
  0
LINE
  5
1F9
330
1B4
100
AcDbEntity
  8
0
 62
     0
100
AcDbLine
 10
71.14935
 20
10.4951
 30
0.0
 11
71.14935
 21
24.4946
 31
0.0
  0
LINE
  5
1FA
330
1B4
100
AcDbEntity
  8
0
 62
     0
100
AcDbLine
 10
71.14935
 20
24.4946
 30
0.0
 11
66.45034999999999
 21
24.4946
 31
0.0
  0
LINE
  5
1FB
330
1B4
100
AcDbEntity
  8
0
 62
     0
100
AcDbLine
 10
66.45034999999999
 20
24.4946
 30
0.0
 11
66.45034999999999
 21
26.0201
 31
0.0
  0
LINE
  5
1FC
330
1B4
100
AcDbEntity
  8
0
 62
     0
100
AcDbLine
 10
66.45034999999999
 20
26.0201
 30
0.0
 11
69.68035
 21
26.0201
 31
0.0
  0
LINE
  5
1FD
330
1B4
100
AcDbEntity
  8
0
 62
     0
100
AcDbLine
 10
69.68035
 20
26.0201
 30
0.0
 11
69.68035
 21
32.7698
 31
0.0
  0
LINE
  5
1FE
330
1B4
100
AcDbEntity
  8
0
 62
     0
100
AcDbLine
 10
69.68035
 20
32.7698
 30
0.0
 11
66.45034999999999
 21
32.7698
 31
0.0
  0
LINE
  5
1FF
330
1B4
100
AcDbEntity
  8
0
 62
     0
100
AcDbLine
 10
66.45034999999999
 20
32.7698
 30
0.0
 11
66.45034999999999
 21
33.59520000000001
 31
0.0
  0
LINE
  5
200
330
1B4
100
AcDbEntity
  8
0
 62
     0
100
AcDbLine
 10
66.45034999999999
 20
33.59520000000001
 30
0.0
 11
63.65034999999999
 21
33.59520000000001
 31
0.0
  0
LINE
  5
201
330
1B4
100
AcDbEntity
  8
0
 62
     0
100
AcDbLine
 10
0.0
 20
34.0195
 30
0.0
 11
13.99955
 21
34.0195
 31
0.0
  0
LINE
  5
202
330
1B4
100
AcDbEntity
  8
0
 62
     0
100
AcDbLine
 10
13.99955
 20
34.0195
 30
0.0
 11
13.99955
 21
20.0201
 31
0.0
  0
LINE
  5
203
330
1B4
100
AcDbEntity
  8
0
 62
     0
100
AcDbLine
 10
13.99955
 20
20.0201
 30
0.0
 11
0.0
 21
20.0201
 31
0.0
  0
LINE
  5
204
330
1B4
100
AcDbEntity
  8
0
 62
     0
100
AcDbLine
 10
0.0
 20
20.0201
 30
0.0
 11
0.0
 21
34.0195
 31
0.0
  0
LINE
  5
205
330
1B4
100
AcDbEntity
  8
0
 62
     0
100
AcDbLine
 10
19.05005
 20
34.0195
 30
0.0
 11
33.04935
 21
34.0195
 31
0.0
  0
LINE
  5
206
330
1B4
100
AcDbEntity
  8
0
 62
     0
100
AcDbLine
 10
33.04935
 20
34.0195
 30
0.0
 11
33.04935
 21
20.0201
 31
0.0
  0
LINE
  5
207
330
1B4
100
AcDbEntity
  8
0
 62
     0
100
AcDbLine
 10
33.04935
 20
20.0201
 30
0.0
 11
19.05005
 21
20.0201
 31
0.0
  0
LINE
  5
208
330
1B4
100
AcDbEntity
  8
0
 62
     0
100
AcDbLine
 10
19.05005
 20
20.0201
 30
0.0
 11
19.05005
 21
34.0195
 31
0.0
  0
LINE
  5
209
330
1B4
100
AcDbEntity
  8
0
 62
     0
100
AcDbLine
 10
38.10005
 20
34.0195
 30
0.0
 11
52.09934999999999
 21
34.0195
 31
0.0
  0
LINE
  5
20A
330
1B4
100
AcDbEntity
  8
0
 62
     0
100
AcDbLine
 10
52.09934999999999
 20
34.0195
 30
0.0
 11
52.09934999999999
 21
20.0201
 31
0.0
  0
LINE
  5
20B
330
1B4
100
AcDbEntity
  8
0
 62
     0
100
AcDbLine
 10
52.09934999999999
 20
20.0201
 30
0.0
 11
38.10005
 21
20.0201
 31
0.0
  0
LINE
  5
20C
330
1B4
100
AcDbEntity
  8
0
 62
     0
100
AcDbLine
 10
38.10005
 20
20.0201
 30
0.0
 11
38.10005
 21
34.0195
 31
0.0
  0
LINE
  5
20D
330
1B4
100
AcDbEntity
  8
0
 62
     0
100
AcDbLine
 10
0.0
 20
53.0696
 30
0.0
 11
13.99955
 21
53.0696
 31
0.0
  0
LINE
  5
20E
330
1B4
100
AcDbEntity
  8
0
 62
     0
100
AcDbLine
 10
13.99955
 20
53.0696
 30
0.0
 11
13.99955
 21
39.07030000000001
 31
0.0
  0
LINE
  5
20F
330
1B4
100
AcDbEntity
  8
0
 62
     0
100
AcDbLine
 10
13.99955
 20
39.07030000000001
 30
0.0
 11
0.0
 21
39.07030000000001
 31
0.0
  0
LINE
  5
210
330
1B4
100
AcDbEntity
  8
0
 62
     0
100
AcDbLine
 10
0.0
 20
39.07030000000001
 30
0.0
 11
0.0
 21
53.0696
 31
0.0
  0
LINE
  5
211
330
1B4
100
AcDbEntity
  8
0
 62
     0
100
AcDbLine
 10
19.05005
 20
53.0696
 30
0.0
 11
33.04935
 21
53.0696
 31
0.0
  0
LINE
  5
212
330
1B4
100
AcDbEntity
  8
0
 62
     0
100
AcDbLine
 10
33.04935
 20
53.0696
 30
0.0
 11
33.04935
 21
39.07030000000001
 31
0.0
  0
LINE
  5
213
330
1B4
100
AcDbEntity
  8
0
 62
     0
100
AcDbLine
 10
33.04935
 20
39.07030000000001
 30
0.0
 11
19.05005
 21
39.07030000000001
 31
0.0
  0
LINE
  5
214
330
1B4
100
AcDbEntity
  8
0
 62
     0
100
AcDbLine
 10
19.05005
 20
39.07030000000001
 30
0.0
 11
19.05005
 21
53.0696
 31
0.0
  0
LINE
  5
215
330
1B4
100
AcDbEntity
  8
0
 62
     0
100
AcDbLine
 10
38.10005
 20
53.0696
 30
0.0
 11
52.09934999999999
 21
53.0696
 31
0.0
  0
LINE
  5
216
330
1B4
100
AcDbEntity
  8
0
 62
     0
100
AcDbLine
 10
52.09934999999999
 20
53.0696
 30
0.0
 11
52.09934999999999
 21
39.07030000000001
 31
0.0
  0
LINE
  5
217
330
1B4
100
AcDbEntity
  8
0
 62
     0
100
AcDbLine
 10
52.09934999999999
 20
39.07030000000001
 30
0.0
 11
38.10005
 21
39.07030000000001
 31
0.0
  0
LINE
  5
218
330
1B4
100
AcDbEntity
  8
0
 62
     0
100
AcDbLine
 10
38.10005
 20
39.07030000000001
 30
0.0
 11
38.10005
 21
53.0696
 31
0.0
  0
LINE
  5
219
330
1B4
100
AcDbEntity
  8
0
 62
     0
100
AcDbLine
 10
63.65034999999999
 20
71.6952
 30
0.0
 11
63.65034999999999
 21
70.86969999999999
 31
0.0
  0
LINE
  5
21A
330
1B4
100
AcDbEntity
  8
0
 62
     0
100
AcDbLine
 10
63.65034999999999
 20
70.86969999999999
 30
0.0
 11
57.38005
 21
70.86969999999999
 31
0.0
  0
LINE
  5
21B
330
1B4
100
AcDbEntity
  8
0
 62
     0
100
AcDbLine
 10
57.38005
 20
70.86969999999999
 30
0.0
 11
57.38005
 21
69.1446
 31
0.0
  0
LINE
  5
21C
330
1B4
100
AcDbEntity
  8
0
 62
     0
100
AcDbLine
 10
57.38005
 20
69.1446
 30
0.0
 11
56.17995
 21
69.1446
 31
0.0
  0
LINE
  5
21D
330
1B4
100
AcDbEntity
  8
0
 62
     0
100
AcDbLine
 10
56.17995
 20
69.1446
 30
0.0
 11
56.17995
 21
65.8454
 31
0.0
  0
LINE
  5
21E
330
1B4
100
AcDbEntity
  8
0
 62
     0
100
AcDbLine
 10
56.17995
 20
65.8454
 30
0.0
 11
57.38005
 21
65.8454
 31
0.0
  0
LINE
  5
21F
330
1B4
100
AcDbEntity
  8
0
 62
     0
100
AcDbLine
 10
57.38005
 20
65.8454
 30
0.0
 11
57.38005
 21
64.11999999999999
 31
0.0
  0
LINE
  5
220
330
1B4
100
AcDbEntity
  8
0
 62
     0
100
AcDbLine
 10
57.38005
 20
64.11999999999999
 30
0.0
 11
61.85045
 21
64.11999999999999
 31
0.0
  0
LINE
  5
221
330
1B4
100
AcDbEntity
  8
0
 62
     0
100
AcDbLine
 10
61.85045
 20
64.11999999999999
 30
0.0
 11
61.85045
 21
62.5946
 31
0.0
  0
LINE
  5
222
330
1B4
100
AcDbEntity
  8
0
 62
     0
100
AcDbLine
 10
61.85045
 20
62.5946
 30
0.0
 11
57.15005
 21
62.5946
 31
0.0
  0
LINE
  5
223
330
1B4
100
AcDbEntity
  8
0
 62
     0
100
AcDbLine
 10
57.15005
 20
62.5946
 30
0.0
 11
57.15005
 21
48.5953
 31
0.0
  0
LINE
  5
224
330
1B4
100
AcDbEntity
  8
0
 62
     0
100
AcDbLine
 10
57.15005
 20
48.5953
 30
0.0
 11
61.85045
 21
48.5953
 31
0.0
  0
LINE
  5
225
330
1B4
100
AcDbEntity
  8
0
 62
     0
100
AcDbLine
 10
61.85045
 20
48.5953
 30
0.0
 11
61.85045
 21
47.0695
 31
0.0
  0
LINE
  5
226
330
1B4
100
AcDbEntity
  8
0
 62
     0
100
AcDbLine
 10
61.85045
 20
47.0695
 30
0.0
 11
57.38005
 21
47.0695
 31
0.0
  0
LINE
  5
227
330
1B4
100
AcDbEntity
  8
0
 62
     0
100
AcDbLine
 10
57.38005
 20
47.0695
 30
0.0
 11
57.38005
 21
45.3444
 31
0.0
  0
LINE
  5
228
330
1B4
100
AcDbEntity
  8
0
 62
     0
100
AcDbLine
 10
57.38005
 20
45.3444
 30
0.0
 11
56.17995
 21
45.3444
 31
0.0
  0
LINE
  5
229
330
1B4
100
AcDbEntity
  8
0
 62
     0
100
AcDbLine
 10
56.17995
 20
45.3444
 30
0.0
 11
56.17995
 21
42.0452
 31
0.0
  0
LINE
  5
22A
330
1B4
100
AcDbEntity
  8
0
 62
     0
100
AcDbLine
 10
56.17995
 20
42.0452
 30
0.0
 11
57.38005
 21
42.0452
 31
0.0
  0
LINE
  5
22B
330
1B4
100
AcDbEntity
  8
0
 62
     0
100
AcDbLine
 10
57.38005
 20
42.0452
 30
0.0
 11
57.38005
 21
40.3202
 31
0.0
  0
LINE
  5
22C
330
1B4
100
AcDbEntity
  8
0
 62
     0
100
AcDbLine
 10
57.38005
 20
40.3202
 30
0.0
 11
63.65034999999999
 21
40.3202
 31
0.0
  0
LINE
  5
22D
330
1B4
100
AcDbEntity
  8
0
 62
     0
100
AcDbLine
 10
63.65034999999999
 20
40.3202
 30
0.0
 11
63.65034999999999
 21
39.4947
 31
0.0
  0
LINE
  5
22E
330
1B4
100
AcDbEntity
  8
0
 62
     0
100
AcDbLine
 10
63.65034999999999
 20
39.4947
 30
0.0
 11
66.45034999999999
 21
39.4947
 31
0.0
  0
LINE
  5
22F
330
1B4
100
AcDbEntity
  8
0
 62
     0
100
AcDbLine
 10
66.45034999999999
 20
39.4947
 30
0.0
 11
66.45034999999999
 21
40.3202
 31
0.0
  0
LINE
  5
230
330
1B4
100
AcDbEntity
  8
0
 62
     0
100
AcDbLine
 10
66.45034999999999
 20
40.3202
 30
0.0
 11
69.68035
 21
40.3202
 31
0.0
  0
LINE
  5
231
330
1B4
100
AcDbEntity
  8
0
 62
     0
100
AcDbLine
 10
69.68035
 20
40.3202
 30
0.0
 11
69.68035
 21
47.0695
 31
0.0
  0
LINE
  5
232
330
1B4
100
AcDbEntity
  8
0
 62
     0
100
AcDbLine
 10
69.68035
 20
47.0695
 30
0.0
 11
66.45034999999999
 21
47.0695
 31
0.0
  0
LINE
  5
233
330
1B4
100
AcDbEntity
  8
0
 62
     0
100
AcDbLine
 10
66.45034999999999
 20
47.0695
 30
0.0
 11
66.45034999999999
 21
48.5953
 31
0.0
  0
LINE
  5
234
330
1B4
100
AcDbEntity
  8
0
 62
     0
100
AcDbLine
 10
66.45034999999999
 20
48.5953
 30
0.0
 11
71.14935
 21
48.5953
 31
0.0
  0
LINE
  5
235
330
1B4
100
AcDbEntity
  8
0
 62
     0
100
AcDbLine
 10
71.14935
 20
48.5953
 30
0.0
 11
71.14935
 21
62.5946
 31
0.0
  0
LINE
  5
236
330
1B4
100
AcDbEntity
  8
0
 62
     0
100
AcDbLine
 10
71.14935
 20
62.5946
 30
0.0
 11
66.45034999999999
 21
62.5946
 31
0.0
  0
LINE
  5
237
330
1B4
100
AcDbEntity
  8
0
 62
     0
100
AcDbLine
 10
66.45034999999999
 20
62.5946
 30
0.0
 11
66.45034999999999
 21
64.11999999999999
 31
0.0
  0
LINE
  5
238
330
1B4
100
AcDbEntity
  8
0
 62
     0
100
AcDbLine
 10
66.45034999999999
 20
64.11999999999999
 30
0.0
 11
69.68035
 21
64.11999999999999
 31
0.0
  0
LINE
  5
239
330
1B4
100
AcDbEntity
  8
0
 62
     0
100
AcDbLine
 10
69.68035
 20
64.11999999999999
 30
0.0
 11
69.68035
 21
70.86969999999999
 31
0.0
  0
LINE
  5
23A
330
1B4
100
AcDbEntity
  8
0
 62
     0
100
AcDbLine
 10
69.68035
 20
70.86969999999999
 30
0.0
 11
66.45034999999999
 21
70.86969999999999
 31
0.0
  0
LINE
  5
23B
330
1B4
100
AcDbEntity
  8
0
 62
     0
100
AcDbLine
 10
66.45034999999999
 20
70.86969999999999
 30
0.0
 11
66.45034999999999
 21
71.6952
 31
0.0
  0
LINE
  5
23C
330
1B4
100
AcDbEntity
  8
0
 62
     0
100
AcDbLine
 10
66.45034999999999
 20
71.6952
 30
0.0
 11
63.65034999999999
 21
71.6952
 31
0.0
  0
LINE
  5
23D
330
1B4
100
AcDbEntity
  8
0
 62
     0
100
AcDbLine
 10
0.0
 20
72.11959999999999
 30
0.0
 11
13.99955
 21
72.11959999999999
 31
0.0
  0
LINE
  5
23E
330
1B4
100
AcDbEntity
  8
0
 62
     0
100
AcDbLine
 10
13.99955
 20
72.11959999999999
 30
0.0
 11
13.99955
 21
58.1203
 31
0.0
  0
LINE
  5
23F
330
1B4
100
AcDbEntity
  8
0
 62
     0
100
AcDbLine
 10
13.99955
 20
58.1203
 30
0.0
 11
0.0
 21
58.1203
 31
0.0
  0
LINE
  5
240
330
1B4
100
AcDbEntity
  8
0
 62
     0
100
AcDbLine
 10
0.0
 20
58.1203
 30
0.0
 11
0.0
 21
72.11959999999999
 31
0.0
  0
LINE
  5
241
330
1B4
100
AcDbEntity
  8
0
 62
     0
100
AcDbLine
 10
19.05005
 20
72.11959999999999
 30
0.0
 11
33.04935
 21
72.11959999999999
 31
0.0
  0
LINE
  5
242
330
1B4
100
AcDbEntity
  8
0
 62
     0
100
AcDbLine
 10
33.04935
 20
72.11959999999999
 30
0.0
 11
33.04935
 21
58.1203
 31
0.0
  0
LINE
  5
243
330
1B4
100
AcDbEntity
  8
0
 62
     0
100
AcDbLine
 10
33.04935
 20
58.1203
 30
0.0
 11
19.05005
 21
58.1203
 31
0.0
  0
LINE
  5
244
330
1B4
100
AcDbEntity
  8
0
 62
     0
100
AcDbLine
 10
19.05005
 20
58.1203
 30
0.0
 11
19.05005
 21
72.11959999999999
 31
0.0
  0
LINE
  5
245
330
1B4
100
AcDbEntity
  8
0
 62
     0
100
AcDbLine
 10
38.10005
 20
72.11959999999999
 30
0.0
 11
52.09934999999999
 21
72.11959999999999
 31
0.0
  0
LINE
  5
246
330
1B4
100
AcDbEntity
  8
0
 62
     0
100
AcDbLine
 10
52.09934999999999
 20
72.11959999999999
 30
0.0
 11
52.09934999999999
 21
58.1203
 31
0.0
  0
LINE
  5
247
330
1B4
100
AcDbEntity
  8
0
 62
     0
100
AcDbLine
 10
52.09934999999999
 20
58.1203
 30
0.0
 11
38.10005
 21
58.1203
 31
0.0
  0
LINE
  5
248
330
1B4
100
AcDbEntity
  8
0
 62
     0
100
AcDbLine
 10
38.10005
 20
58.1203
 30
0.0
 11
38.10005
 21
72.11959999999999
 31
0.0
  0
LINE
  5
249
330
1B4
100
AcDbEntity
  8
0
 62
     0
100
AcDbLine
 10
0.0
 20
91.16959999999998
 30
0.0
 11
13.99955
 21
91.16959999999998
 31
0.0
  0
LINE
  5
24A
330
1B4
100
AcDbEntity
  8
0
 62
     0
100
AcDbLine
 10
13.99955
 20
91.16959999999998
 30
0.0
 11
13.99955
 21
77.1703
 31
0.0
  0
LINE
  5
24B
330
1B4
100
AcDbEntity
  8
0
 62
     0
100
AcDbLine
 10
13.99955
 20
77.1703
 30
0.0
 11
0.0
 21
77.1703
 31
0.0
  0
LINE
  5
24C
330
1B4
100
AcDbEntity
  8
0
 62
     0
100
AcDbLine
 10
0.0
 20
77.1703
 30
0.0
 11
0.0
 21
91.16959999999998
 31
0.0
  0
LINE
  5
24D
330
1B4
100
AcDbEntity
  8
0
 62
     0
100
AcDbLine
 10
19.05005
 20
91.16959999999998
 30
0.0
 11
33.04935
 21
91.16959999999998
 31
0.0
  0
LINE
  5
24E
330
1B4
100
AcDbEntity
  8
0
 62
     0
100
AcDbLine
 10
33.04935
 20
91.16959999999998
 30
0.0
 11
33.04935
 21
77.1703
 31
0.0
  0
LINE
  5
24F
330
1B4
100
AcDbEntity
  8
0
 62
     0
100
AcDbLine
 10
33.04935
 20
77.1703
 30
0.0
 11
19.05005
 21
77.1703
 31
0.0
  0
LINE
  5
250
330
1B4
100
AcDbEntity
  8
0
 62
     0
100
AcDbLine
 10
19.05005
 20
77.1703
 30
0.0
 11
19.05005
 21
91.16959999999998
 31
0.0
  0
LINE
  5
251
330
1B4
100
AcDbEntity
  8
0
 62
     0
100
AcDbLine
 10
38.10005
 20
91.16959999999998
 30
0.0
 11
52.09934999999999
 21
91.16959999999998
 31
0.0
  0
LINE
  5
252
330
1B4
100
AcDbEntity
  8
0
 62
     0
100
AcDbLine
 10
52.09934999999999
 20
91.16959999999998
 30
0.0
 11
52.09934999999999
 21
77.1703
 31
0.0
  0
LINE
  5
253
330
1B4
100
AcDbEntity
  8
0
 62
     0
100
AcDbLine
 10
52.09934999999999
 20
77.1703
 30
0.0
 11
38.10005
 21
77.1703
 31
0.0
  0
LINE
  5
254
330
1B4
100
AcDbEntity
  8
0
 62
     0
100
AcDbLine
 10
38.10005
 20
77.1703
 30
0.0
 11
38.10005
 21
91.16959999999998
 31
0.0
  0
LINE
  5
255
330
1B4
100
AcDbEntity
  8
0
 62
     0
100
AcDbLine
 10
57.15005
 20
91.16959999999998
 30
0.0
 11
71.14935
 21
91.16959999999998
 31
0.0
  0
LINE
  5
256
330
1B4
100
AcDbEntity
  8
0
 62
     0
100
AcDbLine
 10
71.14935
 20
91.16959999999998
 30
0.0
 11
71.14935
 21
77.1703
 31
0.0
  0
LINE
  5
257
330
1B4
100
AcDbEntity
  8
0
 62
     0
100
AcDbLine
 10
71.14935
 20
77.1703
 30
0.0
 11
57.15005
 21
77.1703
 31
0.0
  0
LINE
  5
258
330
1B4
100
AcDbEntity
  8
0
 62
     0
100
AcDbLine
 10
57.15005
 20
77.1703
 30
0.0
 11
57.15005
 21
91.16959999999998
 31
0.0
  0
ENDBLK
  5
25A
330
1B4
100
AcDbEntity
  8
0
100
AcDbBlockEnd
  0
BLOCK
  5
3FA
330
3E4
100
AcDbEntity
  8
0
100
AcDbBlockBegin
  2
A$C72b8d924
 70
     0
 10
0.0
 20
0.0
 30
0.0
  3
A$C72b8d924
  1

  0
ARC
  5
3E5
330
3E4
100
AcDbEntity
  8
0
  6
Continuous
100
AcDbCircle
 10
7.500000000000005
 20
20.49999999999999
 30
0.0
 40
2.5
100
AcDbArc
 50
270.0
 51
0.0
  0
ARC
  5
3E6
330
3E4
100
AcDbEntity
  8
0
  6
Continuous
100
AcDbCircle
 10
7.500000000000001
 20
5.5
 30
0.0
 40
2.5
100
AcDbArc
 50
0.0
 51
90.0
  0
LINE
  5
3E7
330
3E4
100
AcDbEntity
  8
0
  6
Continuous
100
AcDbLine
 10
0.0
 20
2.5
 30
0.0
 11
0.0
 21
3.0
 31
0.0
  0
LINE
  5
3E8
330
3E4
100
AcDbEntity
  8
0
  6
Continuous
100
AcDbLine
 10
0.0
 20
3.0
 30
0.0
 11
0.0
 21
22.99999999999999
 31
0.0
  0
LINE
  5
3E9
330
3E4
100
AcDbEntity
  8
0
  6
Continuous
100
AcDbLine
 10
5.0
 20
22.99999999999999
 30
0.0
 11
5.0
 21
20.49999999999999
 31
0.0
  0
LINE
  5
3EA
330
3E4
100
AcDbEntity
  8
0
  6
Continuous
100
AcDbLine
 10
7.499999999999999
 20
17.99999999999999
 30
0.0
 11
7.500000000000005
 21
17.99999999999999
 31
0.0
  0
ARC
  5
3EB
330
3E4
100
AcDbEntity
  8
0
  6
Continuous
100
AcDbCircle
 10
7.499999999999999
 20
20.49999999999999
 30
0.0
 40
2.5
100
AcDbArc
 50
180.0
 51
270.0
  0
LINE
  5
3EC
330
3E4
100
AcDbEntity
  8
0
  6
Continuous
100
AcDbLine
 10
5.0
 20
3.0
 30
0.0
 11
5.0
 21
5.5
 31
0.0
  0
ARC
  5
3ED
330
3E4
100
AcDbEntity
  8
0
  6
Continuous
100
AcDbCircle
 10
7.5
 20
5.5
 30
0.0
 40
2.5
100
AcDbArc
 50
90.0
 51
180.0
  0
LINE
  5
3EE
330
3E4
100
AcDbEntity
  8
0
  6
Continuous
100
AcDbLine
 10
7.5
 20
8.0
 30
0.0
 11
7.500000000000001
 21
8.0
 31
0.0
  0
LINE
  5
3EF
330
3E4
100
AcDbEntity
  8
0
  6
Continuous
100
AcDbLine
 10
5.0
 20
3.0
 30
0.0
 11
5.0
 21
2.5
 31
0.0
  0
LINE
  5
3F0
330
3E4
100
AcDbEntity
  8
0
  6
Continuous
100
AcDbLine
 10
2.5
 20
0.0
 30
0.0
 11
2.5
 21
0.0
 31
0.0
  0
ARC
  5
3F1
330
3E4
100
AcDbEntity
  8
0
  6
Continuous
100
AcDbCircle
 10
2.5
 20
2.5
 30
0.0
 40
2.5
100
AcDbArc
 50
270.0
 51
0.0
  0
ARC
  5
3F2
330
3E4
100
AcDbEntity
  8
0
  6
Continuous
100
AcDbCircle
 10
2.5
 20
2.5
 30
0.0
 40
2.5
100
AcDbArc
 50
180.0
 51
270.0
  0
LINE
  5
3F3
330
3E4
100
AcDbEntity
  8
0
  6
Continuous
100
AcDbLine
 10
5.0
 20
22.99999999999999
 30
0.0
 11
5.0
 21
23.49999999999999
 31
0.0
  0
ARC
  5
3F4
330
3E4
100
AcDbEntity
  8
0
  6
Continuous
100
AcDbCircle
 10
2.5
 20
23.49999999999999
 30
0.0
 40
2.5
100
AcDbArc
 50
0.0
 51
90.0
  0
LINE
  5
3F5
330
3E4
100
AcDbEntity
  8
0
  6
Continuous
100
AcDbLine
 10
2.5
 20
26.0
 30
0.0
 11
2.5
 21
26.0
 31
0.0
  0
LINE
  5
3F6
330
3E4
100
AcDbEntity
  8
0
  6
Continuous
100
AcDbLine
 10
0.0
 20
23.49999999999999
 30
0.0
 11
0.0
 21
22.99999999999999
 31
0.0
  0
ARC
  5
3F7
330
3E4
100
AcDbEntity
  8
0
  6
Continuous
100
AcDbCircle
 10
2.5
 20
23.49999999999999
 30
0.0
 40
2.5
100
AcDbArc
 50
90.0
 51
180.0
  0
ENDBLK
  5
3FB
330
3E4
100
AcDbEntity
  8
0
100
AcDbBlockEnd
  0
BLOCK
  5
412
330
3FC
100
AcDbEntity
  8
0
100
AcDbBlockBegin
  2
A$C67e14d47
 70
     0
 10
0.0
 20
0.0
 30
0.0
  3
A$C67e14d47
  1

  0
ARC
  5
3FD
330
3FC
100
AcDbEntity
  8
0
  6
Continuous
100
AcDbCircle
 10
-2.5
 20
15.0
 30
0.0
 40
2.5
100
AcDbArc
 50
270.0
 51
0.0
  0
ARC
  5
3FE
330
3FC
100
AcDbEntity
  8
0
  6
Continuous
100
AcDbCircle
 10
-2.5
 20
0.0
 30
0.0
 40
2.5
100
AcDbArc
 50
0.0
 51
90.0
  0
LINE
  5
3FF
330
3FC
100
AcDbEntity
  8
0
  6
Continuous
100
AcDbLine
 10
-10.0
 20
-3.0
 30
0.0
 11
-10.0
 21
-2.5
 31
0.0
  0
LINE
  5
400
330
3FC
100
AcDbEntity
  8
0
  6
Continuous
100
AcDbLine
 10
-10.0
 20
-2.5
 30
0.0
 11
-10.0
 21
17.5
 31
0.0
  0
LINE
  5
401
330
3FC
100
AcDbEntity
  8
0
  6
Continuous
100
AcDbLine
 10
-5.0
 20
17.5
 30
0.0
 11
-5.0
 21
15.0
 31
0.0
  0
LINE
  5
402
330
3FC
100
AcDbEntity
  8
0
  6
Continuous
100
AcDbLine
 10
-2.5
 20
12.5
 30
0.0
 11
-2.5
 21
12.5
 31
0.0
  0
ARC
  5
403
330
3FC
100
AcDbEntity
  8
0
  6
Continuous
100
AcDbCircle
 10
-2.5
 20
15.0
 30
0.0
 40
2.5
100
AcDbArc
 50
180.0
 51
270.0
  0
LINE
  5
404
330
3FC
100
AcDbEntity
  8
0
  6
Continuous
100
AcDbLine
 10
-5.0
 20
-2.5
 30
0.0
 11
-5.0
 21
0.0
 31
0.0
  0
ARC
  5
405
330
3FC
100
AcDbEntity
  8
0
  6
Continuous
100
AcDbCircle
 10
-2.5
 20
0.0
 30
0.0
 40
2.5
100
AcDbArc
 50
90.0
 51
180.0
  0
LINE
  5
406
330
3FC
100
AcDbEntity
  8
0
  6
Continuous
100
AcDbLine
 10
-2.5
 20
2.5
 30
0.0
 11
-2.5
 21
2.5
 31
0.0
  0
LINE
  5
407
330
3FC
100
AcDbEntity
  8
0
  6
Continuous
100
AcDbLine
 10
-5.0
 20
-2.5
 30
0.0
 11
-5.0
 21
-3.0
 31
0.0
  0
LINE
  5
408
330
3FC
100
AcDbEntity
  8
0
  6
Continuous
100
AcDbLine
 10
-7.5
 20
-5.5
 30
0.0
 11
-7.5
 21
-5.5
 31
0.0
  0
ARC
  5
409
330
3FC
100
AcDbEntity
  8
0
  6
Continuous
100
AcDbCircle
 10
-7.5
 20
-3.0
 30
0.0
 40
2.5
100
AcDbArc
 50
270.0
 51
0.0
  0
ARC
  5
40A
330
3FC
100
AcDbEntity
  8
0
  6
Continuous
100
AcDbCircle
 10
-7.5
 20
-3.0
 30
0.0
 40
2.5
100
AcDbArc
 50
180.0
 51
270.0
  0
LINE
  5
40B
330
3FC
100
AcDbEntity
  8
0
  6
Continuous
100
AcDbLine
 10
-5.0
 20
17.5
 30
0.0
 11
-5.0
 21
18.0
 31
0.0
  0
ARC
  5
40C
330
3FC
100
AcDbEntity
  8
0
  6
Continuous
100
AcDbCircle
 10
-7.5
 20
18.0
 30
0.0
 40
2.5
100
AcDbArc
 50
0.0
 51
90.0
  0
LINE
  5
40D
330
3FC
100
AcDbEntity
  8
0
  6
Continuous
100
AcDbLine
 10
-7.5
 20
20.5
 30
0.0
 11
-7.5
 21
20.5
 31
0.0
  0
LINE
  5
40E
330
3FC
100
AcDbEntity
  8
0
  6
Continuous
100
AcDbLine
 10
-10.0
 20
18.0
 30
0.0
 11
-10.0
 21
17.5
 31
0.0
  0
ARC
  5
40F
330
3FC
100
AcDbEntity
  8
0
  6
Continuous
100
AcDbCircle
 10
-7.5
 20
18.0
 30
0.0
 40
2.5
100
AcDbArc
 50
90.0
 51
180.0
  0
ENDBLK
  5
413
330
3FC
100
AcDbEntity
  8
0
100
AcDbBlockEnd
  0
BLOCK
  5
431
330
41A
100
AcDbEntity
  8
0
100
AcDbBlockBegin
  2
A$Ce54eaa1e
 70
     0
 10
0.0
 20
0.0
 30
0.0
  3
A$Ce54eaa1e
  1

  0
ARC
  5
41B
330
41A
100
AcDbEntity
  8
0
  6
Continuous
100
AcDbCircle
 10
-1.767766952966368
 20
7.5
 30
0.0
 40
2.5
100
AcDbArc
 50
270.0
 51
0.0
  0
ARC
  5
41C
330
41A
100
AcDbEntity
  8
0
  6
Continuous
100
AcDbCircle
 10
-1.767766952966368
 20
-7.5
 30
0.0
 40
2.5
100
AcDbArc
 50
0.0
 51
90.0
  0
LINE
  5
41D
330
41A
100
AcDbEntity
  8
0
  6
Continuous
100
AcDbLine
 10
-9.267766952966368
 20
-10.5
 30
0.0
 11
-9.267766952966368
 21
-10.0
 31
0.0
  0
LINE
  5
41E
330
41A
100
AcDbEntity
  8
0
  6
Continuous
100
AcDbLine
 10
-9.267766952966368
 20
-10.0
 30
0.0
 11
-9.267766952966368
 21
10.0
 31
0.0
  0
LINE
  5
41F
330
41A
100
AcDbEntity
  8
0
  6
Continuous
100
AcDbLine
 10
-4.267766952966368
 20
10.0
 30
0.0
 11
-4.267766952966368
 21
7.5
 31
0.0
  0
LINE
  5
420
330
41A
100
AcDbEntity
  8
0
  6
Continuous
100
AcDbLine
 10
-1.767766952966368
 20
5.0
 30
0.0
 11
-1.767766952966368
 21
5.0
 31
0.0
  0
ARC
  5
421
330
41A
100
AcDbEntity
  8
0
  6
Continuous
100
AcDbCircle
 10
-1.767766952966368
 20
7.5
 30
0.0
 40
2.5
100
AcDbArc
 50
180.0
 51
270.0
  0
LINE
  5
422
330
41A
100
AcDbEntity
  8
0
  6
Continuous
100
AcDbLine
 10
-4.267766952966368
 20
-10.0
 30
0.0
 11
-4.267766952966368
 21
-7.5
 31
0.0
  0
ARC
  5
423
330
41A
100
AcDbEntity
  8
0
  6
Continuous
100
AcDbCircle
 10
-1.767766952966368
 20
-7.5
 30
0.0
 40
2.5
100
AcDbArc
 50
90.0
 51
180.0
  0
LINE
  5
424
330
41A
100
AcDbEntity
  8
0
  6
Continuous
100
AcDbLine
 10
-1.767766952966368
 20
-5.0
 30
0.0
 11
-1.767766952966368
 21
-5.0
 31
0.0
  0
LINE
  5
425
330
41A
100
AcDbEntity
  8
0
  6
Continuous
100
AcDbLine
 10
-4.267766952966368
 20
-10.0
 30
0.0
 11
-4.267766952966368
 21
-10.5
 31
0.0
  0
LINE
  5
426
330
41A
100
AcDbEntity
  8
0
  6
Continuous
100
AcDbLine
 10
-6.767766952966368
 20
-13.0
 30
0.0
 11
-6.767766952966368
 21
-13.0
 31
0.0
  0
ARC
  5
427
330
41A
100
AcDbEntity
  8
0
  6
Continuous
100
AcDbCircle
 10
-6.767766952966368
 20
-10.5
 30
0.0
 40
2.5
100
AcDbArc
 50
270.0
 51
0.0
  0
ARC
  5
428
330
41A
100
AcDbEntity
  8
0
  6
Continuous
100
AcDbCircle
 10
-6.767766952966368
 20
-10.5
 30
0.0
 40
2.5
100
AcDbArc
 50
180.0
 51
270.0
  0
LINE
  5
429
330
41A
100
AcDbEntity
  8
0
  6
Continuous
100
AcDbLine
 10
-4.267766952966368
 20
10.0
 30
0.0
 11
-4.267766952966368
 21
10.5
 31
0.0
  0
ARC
  5
42A
330
41A
100
AcDbEntity
  8
0
  6
Continuous
100
AcDbCircle
 10
-6.767766952966368
 20
10.5
 30
0.0
 40
2.5
100
AcDbArc
 50
0.0
 51
90.0
  0
LINE
  5
42B
330
41A
100
AcDbEntity
  8
0
  6
Continuous
100
AcDbLine
 10
-6.767766952966368
 20
13.0
 30
0.0
 11
-6.767766952966368
 21
13.0
 31
0.0
  0
LINE
  5
42C
330
41A
100
AcDbEntity
  8
0
  6
Continuous
100
AcDbLine
 10
-9.267766952966368
 20
10.5
 30
0.0
 11
-9.267766952966368
 21
10.0
 31
0.0
  0
ARC
  5
42D
330
41A
100
AcDbEntity
  8
0
  6
Continuous
100
AcDbCircle
 10
-6.767766952966368
 20
10.5
 30
0.0
 40
2.5
100
AcDbArc
 50
90.0
 51
180.0
  0
LINE
  5
42E
330
41A
100
AcDbEntity
  8
0
  6
Continuous
100
AcDbLine
 10
-9.267766952966368
 20
0.0
 30
0.0
 11
0.0
 21
0.0
 31
0.0
  0
ENDBLK
  5
432
330
41A
100
AcDbEntity
  8
0
100
AcDbBlockEnd
  0
ENDSEC
  0
SECTION
  2
ENTITIES
  0
LINE
  5
303
330
6F
100
AcDbEntity
  8
0
 62
     0
100
AcDbLine
 10
114.6852274285357
 20
14.78460223584888
 30
0.0
 11
114.6852274285357
 21
10.08410223584888
 31
0.0
  0
LINE
  5
304
330
6F
100
AcDbEntity
  8
0
 62
     0
100
AcDbLine
 10
114.6852274285357
 20
10.08410223584888
 30
0.0
 11
113.1597274285357
 21
10.08410223584888
 31
0.0
  0
LINE
  5
305
330
6F
100
AcDbEntity
  8
0
 62
     0
100
AcDbLine
 10
113.1597274285357
 20
10.08410223584888
 30
0.0
 11
113.1597274285357
 21
13.31430223584888
 31
0.0
  0
LINE
  5
306
330
6F
100
AcDbEntity
  8
0
 62
     0
100
AcDbLine
 10
113.1597274285357
 20
13.31430223584888
 30
0.0
 11
106.4100774285357
 21
13.31430223584888
 31
0.0
  0
LINE
  5
307
330
6F
100
AcDbEntity
  8
0
 62
     0
100
AcDbLine
 10
106.4100774285357
 20
13.31430223584888
 30
0.0
 11
106.4100774285357
 21
10.08410223584888
 31
0.0
  0
LINE
  5
308
330
6F
100
AcDbEntity
  8
0
 62
     0
100
AcDbLine
 10
106.4100774285357
 20
10.08410223584888
 30
0.0
 11
105.5846174285357
 21
10.08410223584888
 31
0.0
  0
LINE
  5
309
330
6F
100
AcDbEntity
  8
0
 62
     0
100
AcDbLine
 10
105.5846174285357
 20
10.08410223584888
 30
0.0
 11
105.5846174285357
 21
7.285342235848879
 31
0.0
  0
LINE
  5
30A
330
6F
100
AcDbEntity
  8
0
 62
     0
100
AcDbLine
 10
105.5846174285357
 20
7.285342235848879
 30
0.0
 11
106.4100774285357
 21
7.285342235848879
 31
0.0
  0
LINE
  5
30B
330
6F
100
AcDbEntity
  8
0
 62
     0
100
AcDbLine
 10
106.4100774285357
 20
7.285342235848879
 30
0.0
 11
106.4100774285357
 21
1.015272235848879
 31
0.0
  0
LINE
  5
30C
330
6F
100
AcDbEntity
  8
0
 62
     0
100
AcDbLine
 10
106.4100774285357
 20
1.015272235848879
 30
0.0
 11
108.1353674285357
 21
1.015272235848879
 31
0.0
  0
LINE
  5
30D
330
6F
100
AcDbEntity
  8
0
 62
     0
100
AcDbLine
 10
108.1353674285357
 20
1.015272235848879
 30
0.0
 11
108.1353674285357
 21
-0.1849977641511202
 31
0.0
  0
LINE
  5
30E
330
6F
100
AcDbEntity
  8
0
 62
     0
100
AcDbLine
 10
108.1353674285357
 20
-0.1849977641511202
 30
0.0
 11
111.4343774285357
 21
-0.1849977641511202
 31
0.0
  0
LINE
  5
30F
330
6F
100
AcDbEntity
  8
0
 62
     0
100
AcDbLine
 10
111.4343774285357
 20
-0.1849977641511202
 30
0.0
 11
111.4343774285357
 21
1.015272235848879
 31
0.0
  0
LINE
  5
310
330
6F
100
AcDbEntity
  8
0
 62
     0
100
AcDbLine
 10
111.4343774285357
 20
1.015272235848879
 30
0.0
 11
113.1597274285357
 21
1.015272235848879
 31
0.0
  0
LINE
  5
311
330
6F
100
AcDbEntity
  8
0
 62
     0
100
AcDbLine
 10
113.1597274285357
 20
1.015272235848879
 30
0.0
 11
113.1597274285357
 21
5.48423223584888
 31
0.0
  0
LINE
  5
312
330
6F
100
AcDbEntity
  8
0
 62
     0
100
AcDbLine
 10
113.1597274285357
 20
5.48423223584888
 30
0.0
 11
114.6852274285357
 21
5.48423223584888
 31
0.0
  0
LINE
  5
313
330
6F
100
AcDbEntity
  8
0
 62
     0
100
AcDbLine
 10
114.6852274285357
 20
5.48423223584888
 30
0.0
 11
114.6852274285357
 21
0.78514223584888
 31
0.0
  0
LINE
  5
314
330
6F
100
AcDbEntity
  8
0
 62
     0
100
AcDbLine
 10
114.6852274285357
 20
0.78514223584888
 30
0.0
 11
128.6846274285357
 21
0.78514223584888
 31
0.0
  0
LINE
  5
315
330
6F
100
AcDbEntity
  8
0
 62
     0
100
AcDbLine
 10
128.6846274285357
 20
0.78514223584888
 30
0.0
 11
128.6846274285357
 21
5.48423223584888
 31
0.0
  0
LINE
  5
316
330
6F
100
AcDbEntity
  8
0
 62
     0
100
AcDbLine
 10
128.6846274285357
 20
5.48423223584888
 30
0.0
 11
130.2101274285357
 21
5.48423223584888
 31
0.0
  0
LINE
  5
317
330
6F
100
AcDbEntity
  8
0
 62
     0
100
AcDbLine
 10
130.2101274285357
 20
5.48423223584888
 30
0.0
 11
130.2101274285357
 21
1.015272235848879
 31
0.0
  0
LINE
  5
318
330
6F
100
AcDbEntity
  8
0
 62
     0
100
AcDbLine
 10
130.2101274285357
 20
1.015272235848879
 30
0.0
 11
131.9354274285357
 21
1.015272235848879
 31
0.0
  0
LINE
  5
319
330
6F
100
AcDbEntity
  8
0
 62
     0
100
AcDbLine
 10
131.9354274285357
 20
1.015272235848879
 30
0.0
 11
131.9354274285357
 21
-0.1849977641511202
 31
0.0
  0
LINE
  5
31A
330
6F
100
AcDbEntity
  8
0
 62
     0
100
AcDbLine
 10
131.9354274285357
 20
-0.1849977641511202
 30
0.0
 11
135.2345274285357
 21
-0.1849977641511202
 31
0.0
  0
LINE
  5
31B
330
6F
100
AcDbEntity
  8
0
 62
     0
100
AcDbLine
 10
135.2345274285357
 20
-0.1849977641511202
 30
0.0
 11
135.2345274285357
 21
1.015272235848879
 31
0.0
  0
LINE
  5
31C
330
6F
100
AcDbEntity
  8
0
 62
     0
100
AcDbLine
 10
135.2345274285357
 20
1.015272235848879
 30
0.0
 11
136.9598274285356
 21
1.015272235848879
 31
0.0
  0
LINE
  5
31D
330
6F
100
AcDbEntity
  8
0
 62
     0
100
AcDbLine
 10
136.9598274285356
 20
1.015272235848879
 30
0.0
 11
136.9598274285356
 21
7.285342235848879
 31
0.0
  0
LINE
  5
31E
330
6F
100
AcDbEntity
  8
0
 62
     0
100
AcDbLine
 10
136.9598274285356
 20
7.285342235848879
 30
0.0
 11
137.7852274285356
 21
7.285342235848879
 31
0.0
  0
LINE
  5
31F
330
6F
100
AcDbEntity
  8
0
 62
     0
100
AcDbLine
 10
137.7852274285356
 20
7.285342235848879
 30
0.0
 11
137.7852274285356
 21
10.08410223584888
 31
0.0
  0
LINE
  5
320
330
6F
100
AcDbEntity
  8
0
 62
     0
100
AcDbLine
 10
137.7852274285356
 20
10.08410223584888
 30
0.0
 11
136.9598274285356
 21
10.08410223584888
 31
0.0
  0
LINE
  5
321
330
6F
100
AcDbEntity
  8
0
 62
     0
100
AcDbLine
 10
136.9598274285356
 20
10.08410223584888
 30
0.0
 11
136.9598274285356
 21
13.31430223584888
 31
0.0
  0
LINE
  5
322
330
6F
100
AcDbEntity
  8
0
 62
     0
100
AcDbLine
 10
136.9598274285356
 20
13.31430223584888
 30
0.0
 11
130.2101274285357
 21
13.31430223584888
 31
0.0
  0
LINE
  5
323
330
6F
100
AcDbEntity
  8
0
 62
     0
100
AcDbLine
 10
130.2101274285357
 20
13.31430223584888
 30
0.0
 11
130.2101274285357
 21
10.08410223584888
 31
0.0
  0
LINE
  5
324
330
6F
100
AcDbEntity
  8
0
 62
     0
100
AcDbLine
 10
130.2101274285357
 20
10.08410223584888
 30
0.0
 11
128.6846274285357
 21
10.08410223584888
 31
0.0
  0
LINE
  5
325
330
6F
100
AcDbEntity
  8
0
 62
     0
100
AcDbLine
 10
128.6846274285357
 20
10.08410223584888
 30
0.0
 11
128.6846274285357
 21
14.78460223584888
 31
0.0
  0
LINE
  5
326
330
6F
100
AcDbEntity
  8
0
 62
     0
100
AcDbLine
 10
128.6846274285357
 20
14.78460223584888
 30
0.0
 11
114.6852274285357
 21
14.78460223584888
 31
0.0
  0
LINE
  5
327
330
6F
100
AcDbEntity
  8
0
 62
     0
100
AcDbLine
 10
143.2602274285357
 20
14.78460223584888
 30
0.0
 11
157.2595274285357
 21
14.78460223584888
 31
0.0
  0
LINE
  5
328
330
6F
100
AcDbEntity
  8
0
 62
     0
100
AcDbLine
 10
157.2595274285357
 20
14.78460223584888
 30
0.0
 11
157.2595274285357
 21
0.78514223584888
 31
0.0
  0
LINE
  5
329
330
6F
100
AcDbEntity
  8
0
 62
     0
100
AcDbLine
 10
157.2595274285357
 20
0.78514223584888
 30
0.0
 11
143.2602274285357
 21
0.78514223584888
 31
0.0
  0
LINE
  5
32A
330
6F
100
AcDbEntity
  8
0
 62
     0
100
AcDbLine
 10
143.2602274285357
 20
0.78514223584888
 30
0.0
 11
143.2602274285357
 21
14.78460223584888
 31
0.0
  0
LINE
  5
32B
330
6F
100
AcDbEntity
  8
0
 62
     0
100
AcDbLine
 10
168.8105274285357
 20
33.41020223584889
 30
0.0
 11
168.8105274285357
 21
32.58480223584888
 31
0.0
  0
LINE
  5
32C
330
6F
100
AcDbEntity
  8
0
 62
     0
100
AcDbLine
 10
168.8105274285357
 20
32.58480223584888
 30
0.0
 11
162.5402274285356
 21
32.58480223584888
 31
0.0
  0
LINE
  5
32D
330
6F
100
AcDbEntity
  8
0
 62
     0
100
AcDbLine
 10
162.5402274285356
 20
32.58480223584888
 30
0.0
 11
162.5402274285356
 21
30.85940223584888
 31
0.0
  0
LINE
  5
32E
330
6F
100
AcDbEntity
  8
0
 62
     0
100
AcDbLine
 10
162.5402274285356
 20
30.85940223584888
 30
0.0
 11
161.3401274285356
 21
30.85940223584888
 31
0.0
  0
LINE
  5
32F
330
6F
100
AcDbEntity
  8
0
 62
     0
100
AcDbLine
 10
161.3401274285356
 20
30.85940223584888
 30
0.0
 11
161.3401274285356
 21
27.56040223584888
 31
0.0
  0
LINE
  5
330
330
6F
100
AcDbEntity
  8
0
 62
     0
100
AcDbLine
 10
161.3401274285356
 20
27.56040223584888
 30
0.0
 11
162.5402274285356
 21
27.56040223584888
 31
0.0
  0
LINE
  5
331
330
6F
100
AcDbEntity
  8
0
 62
     0
100
AcDbLine
 10
162.5402274285356
 20
27.56040223584888
 30
0.0
 11
162.5402274285356
 21
25.83510223584888
 31
0.0
  0
LINE
  5
332
330
6F
100
AcDbEntity
  8
0
 62
     0
100
AcDbLine
 10
162.5402274285356
 20
25.83510223584888
 30
0.0
 11
167.0106274285357
 21
25.83510223584888
 31
0.0
  0
LINE
  5
333
330
6F
100
AcDbEntity
  8
0
 62
     0
100
AcDbLine
 10
167.0106274285357
 20
25.83510223584888
 30
0.0
 11
167.0106274285357
 21
24.30960223584888
 31
0.0
  0
LINE
  5
334
330
6F
100
AcDbEntity
  8
0
 62
     0
100
AcDbLine
 10
167.0106274285357
 20
24.30960223584888
 30
0.0
 11
162.3102274285357
 21
24.30960223584888
 31
0.0
  0
LINE
  5
335
330
6F
100
AcDbEntity
  8
0
 62
     0
100
AcDbLine
 10
162.3102274285357
 20
24.30960223584888
 30
0.0
 11
162.3102274285357
 21
10.31010223584888
 31
0.0
  0
LINE
  5
336
330
6F
100
AcDbEntity
  8
0
 62
     0
100
AcDbLine
 10
162.3102274285357
 20
10.31010223584888
 30
0.0
 11
167.0106274285357
 21
10.31010223584888
 31
0.0
  0
LINE
  5
337
330
6F
100
AcDbEntity
  8
0
 62
     0
100
AcDbLine
 10
167.0106274285357
 20
10.31010223584888
 30
0.0
 11
167.0106274285357
 21
8.784602235848879
 31
0.0
  0
LINE
  5
338
330
6F
100
AcDbEntity
  8
0
 62
     0
100
AcDbLine
 10
167.0106274285357
 20
8.784602235848879
 30
0.0
 11
162.5402274285356
 21
8.784602235848879
 31
0.0
  0
LINE
  5
339
330
6F
100
AcDbEntity
  8
0
 62
     0
100
AcDbLine
 10
162.5402274285356
 20
8.784602235848879
 30
0.0
 11
162.5402274285356
 21
7.05935223584888
 31
0.0
  0
LINE
  5
33A
330
6F
100
AcDbEntity
  8
0
 62
     0
100
AcDbLine
 10
162.5402274285356
 20
7.05935223584888
 30
0.0
 11
161.3401274285356
 21
7.05935223584888
 31
0.0
  0
LINE
  5
33B
330
6F
100
AcDbEntity
  8
0
 62
     0
100
AcDbLine
 10
161.3401274285356
 20
7.05935223584888
 30
0.0
 11
161.3401274285356
 21
3.760312235848879
 31
0.0
  0
LINE
  5
33C
330
6F
100
AcDbEntity
  8
0
 62
     0
100
AcDbLine
 10
161.3401274285356
 20
3.760312235848879
 30
0.0
 11
162.5402274285356
 21
3.760312235848879
 31
0.0
  0
LINE
  5
33D
330
6F
100
AcDbEntity
  8
0
 62
     0
100
AcDbLine
 10
162.5402274285356
 20
3.760312235848879
 30
0.0
 11
162.5402274285356
 21
2.035022235848879
 31
0.0
  0
LINE
  5
33E
330
6F
100
AcDbEntity
  8
0
 62
     0
100
AcDbLine
 10
162.5402274285356
 20
2.035022235848879
 30
0.0
 11
168.8105274285357
 21
2.035022235848879
 31
0.0
  0
LINE
  5
33F
330
6F
100
AcDbEntity
  8
0
 62
     0
100
AcDbLine
 10
168.8105274285357
 20
2.035022235848879
 30
0.0
 11
168.8105274285357
 21
1.20957223584888
 31
0.0
  0
LINE
  5
340
330
6F
100
AcDbEntity
  8
0
 62
     0
100
AcDbLine
 10
168.8105274285357
 20
1.20957223584888
 30
0.0
 11
171.6105274285357
 21
1.20957223584888
 31
0.0
  0
LINE
  5
341
330
6F
100
AcDbEntity
  8
0
 62
     0
100
AcDbLine
 10
171.6105274285357
 20
1.20957223584888
 30
0.0
 11
171.6105274285357
 21
2.035022235848879
 31
0.0
  0
LINE
  5
342
330
6F
100
AcDbEntity
  8
0
 62
     0
100
AcDbLine
 10
171.6105274285357
 20
2.035022235848879
 30
0.0
 11
174.8405274285357
 21
2.035022235848879
 31
0.0
  0
LINE
  5
343
330
6F
100
AcDbEntity
  8
0
 62
     0
100
AcDbLine
 10
174.8405274285357
 20
2.035022235848879
 30
0.0
 11
174.8405274285357
 21
8.784602235848879
 31
0.0
  0
LINE
  5
344
330
6F
100
AcDbEntity
  8
0
 62
     0
100
AcDbLine
 10
174.8405274285357
 20
8.784602235848879
 30
0.0
 11
171.6105274285357
 21
8.784602235848879
 31
0.0
  0
LINE
  5
345
330
6F
100
AcDbEntity
  8
0
 62
     0
100
AcDbLine
 10
171.6105274285357
 20
8.784602235848879
 30
0.0
 11
171.6105274285357
 21
10.31010223584888
 31
0.0
  0
LINE
  5
346
330
6F
100
AcDbEntity
  8
0
 62
     0
100
AcDbLine
 10
171.6105274285357
 20
10.31010223584888
 30
0.0
 11
176.3095274285357
 21
10.31010223584888
 31
0.0
  0
LINE
  5
347
330
6F
100
AcDbEntity
  8
0
 62
     0
100
AcDbLine
 10
176.3095274285357
 20
10.31010223584888
 30
0.0
 11
176.3095274285357
 21
24.30960223584888
 31
0.0
  0
LINE
  5
348
330
6F
100
AcDbEntity
  8
0
 62
     0
100
AcDbLine
 10
176.3095274285357
 20
24.30960223584888
 30
0.0
 11
171.6105274285357
 21
24.30960223584888
 31
0.0
  0
LINE
  5
349
330
6F
100
AcDbEntity
  8
0
 62
     0
100
AcDbLine
 10
171.6105274285357
 20
24.30960223584888
 30
0.0
 11
171.6105274285357
 21
25.83510223584888
 31
0.0
  0
LINE
  5
34A
330
6F
100
AcDbEntity
  8
0
 62
     0
100
AcDbLine
 10
171.6105274285357
 20
25.83510223584888
 30
0.0
 11
174.8405274285357
 21
25.83510223584888
 31
0.0
  0
LINE
  5
34B
330
6F
100
AcDbEntity
  8
0
 62
     0
100
AcDbLine
 10
174.8405274285357
 20
25.83510223584888
 30
0.0
 11
174.8405274285357
 21
32.58480223584888
 31
0.0
  0
LINE
  5
34C
330
6F
100
AcDbEntity
  8
0
 62
     0
100
AcDbLine
 10
174.8405274285357
 20
32.58480223584888
 30
0.0
 11
171.6105274285357
 21
32.58480223584888
 31
0.0
  0
LINE
  5
34D
330
6F
100
AcDbEntity
  8
0
 62
     0
100
AcDbLine
 10
171.6105274285357
 20
32.58480223584888
 30
0.0
 11
171.6105274285357
 21
33.41020223584889
 31
0.0
  0
LINE
  5
34E
330
6F
100
AcDbEntity
  8
0
 62
     0
100
AcDbLine
 10
171.6105274285357
 20
33.41020223584889
 30
0.0
 11
168.8105274285357
 21
33.41020223584889
 31
0.0
  0
LINE
  5
34F
330
6F
100
AcDbEntity
  8
0
 62
     0
100
AcDbLine
 10
105.1601774285357
 20
33.83450223584888
 30
0.0
 11
119.1597274285357
 21
33.83450223584888
 31
0.0
  0
LINE
  5
350
330
6F
100
AcDbEntity
  8
0
 62
     0
100
AcDbLine
 10
119.1597274285357
 20
33.83450223584888
 30
0.0
 11
119.1597274285357
 21
19.83510223584888
 31
0.0
  0
LINE
  5
351
330
6F
100
AcDbEntity
  8
0
 62
     0
100
AcDbLine
 10
119.1597274285357
 20
19.83510223584888
 30
0.0
 11
105.1601774285357
 21
19.83510223584888
 31
0.0
  0
LINE
  5
352
330
6F
100
AcDbEntity
  8
0
 62
     0
100
AcDbLine
 10
105.1601774285357
 20
19.83510223584888
 30
0.0
 11
105.1601774285357
 21
33.83450223584888
 31
0.0
  0
LINE
  5
353
330
6F
100
AcDbEntity
  8
0
 62
     0
100
AcDbLine
 10
124.2102274285357
 20
33.83450223584888
 30
0.0
 11
138.2095274285357
 21
33.83450223584888
 31
0.0
  0
LINE
  5
354
330
6F
100
AcDbEntity
  8
0
 62
     0
100
AcDbLine
 10
138.2095274285357
 20
33.83450223584888
 30
0.0
 11
138.2095274285357
 21
19.83510223584888
 31
0.0
  0
LINE
  5
355
330
6F
100
AcDbEntity
  8
0
 62
     0
100
AcDbLine
 10
138.2095274285357
 20
19.83510223584888
 30
0.0
 11
124.2102274285357
 21
19.83510223584888
 31
0.0
  0
LINE
  5
356
330
6F
100
AcDbEntity
  8
0
 62
     0
100
AcDbLine
 10
124.2102274285357
 20
19.83510223584888
 30
0.0
 11
124.2102274285357
 21
33.83450223584888
 31
0.0
  0
LINE
  5
357
330
6F
100
AcDbEntity
  8
0
 62
     0
100
AcDbLine
 10
143.2602274285357
 20
33.83450223584888
 30
0.0
 11
157.2595274285357
 21
33.83450223584888
 31
0.0
  0
LINE
  5
358
330
6F
100
AcDbEntity
  8
0
 62
     0
100
AcDbLine
 10
157.2595274285357
 20
33.83450223584888
 30
0.0
 11
157.2595274285357
 21
19.83510223584888
 31
0.0
  0
LINE
  5
359
330
6F
100
AcDbEntity
  8
0
 62
     0
100
AcDbLine
 10
157.2595274285357
 20
19.83510223584888
 30
0.0
 11
143.2602274285357
 21
19.83510223584888
 31
0.0
  0
LINE
  5
35A
330
6F
100
AcDbEntity
  8
0
 62
     0
100
AcDbLine
 10
143.2602274285357
 20
19.83510223584888
 30
0.0
 11
143.2602274285357
 21
33.83450223584888
 31
0.0
  0
LINE
  5
35B
330
6F
100
AcDbEntity
  8
0
 62
     0
100
AcDbLine
 10
105.1601774285357
 20
52.88460223584888
 30
0.0
 11
119.1597274285357
 21
52.88460223584888
 31
0.0
  0
LINE
  5
35C
330
6F
100
AcDbEntity
  8
0
 62
     0
100
AcDbLine
 10
119.1597274285357
 20
52.88460223584888
 30
0.0
 11
119.1597274285357
 21
38.88530223584889
 31
0.0
  0
LINE
  5
35D
330
6F
100
AcDbEntity
  8
0
 62
     0
100
AcDbLine
 10
119.1597274285357
 20
38.88530223584889
 30
0.0
 11
105.1601774285357
 21
38.88530223584889
 31
0.0
  0
LINE
  5
35E
330
6F
100
AcDbEntity
  8
0
 62
     0
100
AcDbLine
 10
105.1601774285357
 20
38.88530223584889
 30
0.0
 11
105.1601774285357
 21
52.88460223584888
 31
0.0
  0
LINE
  5
35F
330
6F
100
AcDbEntity
  8
0
 62
     0
100
AcDbLine
 10
124.2102274285357
 20
52.88460223584888
 30
0.0
 11
138.2095274285357
 21
52.88460223584888
 31
0.0
  0
LINE
  5
360
330
6F
100
AcDbEntity
  8
0
 62
     0
100
AcDbLine
 10
138.2095274285357
 20
52.88460223584888
 30
0.0
 11
138.2095274285357
 21
38.88530223584889
 31
0.0
  0
LINE
  5
361
330
6F
100
AcDbEntity
  8
0
 62
     0
100
AcDbLine
 10
138.2095274285357
 20
38.88530223584889
 30
0.0
 11
124.2102274285357
 21
38.88530223584889
 31
0.0
  0
LINE
  5
362
330
6F
100
AcDbEntity
  8
0
 62
     0
100
AcDbLine
 10
124.2102274285357
 20
38.88530223584889
 30
0.0
 11
124.2102274285357
 21
52.88460223584888
 31
0.0
  0
LINE
  5
363
330
6F
100
AcDbEntity
  8
0
 62
     0
100
AcDbLine
 10
143.2602274285357
 20
52.88460223584888
 30
0.0
 11
157.2595274285357
 21
52.88460223584888
 31
0.0
  0
LINE
  5
364
330
6F
100
AcDbEntity
  8
0
 62
     0
100
AcDbLine
 10
157.2595274285357
 20
52.88460223584888
 30
0.0
 11
157.2595274285357
 21
38.88530223584889
 31
0.0
  0
LINE
  5
365
330
6F
100
AcDbEntity
  8
0
 62
     0
100
AcDbLine
 10
157.2595274285357
 20
38.88530223584889
 30
0.0
 11
143.2602274285357
 21
38.88530223584889
 31
0.0
  0
LINE
  5
366
330
6F
100
AcDbEntity
  8
0
 62
     0
100
AcDbLine
 10
143.2602274285357
 20
38.88530223584889
 30
0.0
 11
143.2602274285357
 21
52.88460223584888
 31
0.0
  0
LINE
  5
367
330
6F
100
AcDbEntity
  8
0
 62
     0
100
AcDbLine
 10
168.8105274285357
 20
71.51020223584888
 30
0.0
 11
168.8105274285357
 21
70.68470223584887
 31
0.0
  0
LINE
  5
368
330
6F
100
AcDbEntity
  8
0
 62
     0
100
AcDbLine
 10
168.8105274285357
 20
70.68470223584887
 30
0.0
 11
162.5402274285356
 21
70.68470223584887
 31
0.0
  0
LINE
  5
369
330
6F
100
AcDbEntity
  8
0
 62
     0
100
AcDbLine
 10
162.5402274285356
 20
70.68470223584887
 30
0.0
 11
162.5402274285356
 21
68.95960223584888
 31
0.0
  0
LINE
  5
36A
330
6F
100
AcDbEntity
  8
0
 62
     0
100
AcDbLine
 10
162.5402274285356
 20
68.95960223584888
 30
0.0
 11
161.3401274285356
 21
68.95960223584888
 31
0.0
  0
LINE
  5
36B
330
6F
100
AcDbEntity
  8
0
 62
     0
100
AcDbLine
 10
161.3401274285356
 20
68.95960223584888
 30
0.0
 11
161.3401274285356
 21
65.66040223584888
 31
0.0
  0
LINE
  5
36C
330
6F
100
AcDbEntity
  8
0
 62
     0
100
AcDbLine
 10
161.3401274285356
 20
65.66040223584888
 30
0.0
 11
162.5402274285356
 21
65.66040223584888
 31
0.0
  0
LINE
  5
36D
330
6F
100
AcDbEntity
  8
0
 62
     0
100
AcDbLine
 10
162.5402274285356
 20
65.66040223584888
 30
0.0
 11
162.5402274285356
 21
63.93500223584887
 31
0.0
  0
LINE
  5
36E
330
6F
100
AcDbEntity
  8
0
 62
     0
100
AcDbLine
 10
162.5402274285356
 20
63.93500223584887
 30
0.0
 11
167.0106274285357
 21
63.93500223584887
 31
0.0
  0
LINE
  5
36F
330
6F
100
AcDbEntity
  8
0
 62
     0
100
AcDbLine
 10
167.0106274285357
 20
63.93500223584887
 30
0.0
 11
167.0106274285357
 21
62.40960223584888
 31
0.0
  0
LINE
  5
370
330
6F
100
AcDbEntity
  8
0
 62
     0
100
AcDbLine
 10
167.0106274285357
 20
62.40960223584888
 30
0.0
 11
162.3102274285357
 21
62.40960223584888
 31
0.0
  0
LINE
  5
371
330
6F
100
AcDbEntity
  8
0
 62
     0
100
AcDbLine
 10
162.3102274285357
 20
62.40960223584888
 30
0.0
 11
162.3102274285357
 21
48.41030223584888
 31
0.0
  0
LINE
  5
372
330
6F
100
AcDbEntity
  8
0
 62
     0
100
AcDbLine
 10
162.3102274285357
 20
48.41030223584888
 30
0.0
 11
167.0106274285357
 21
48.41030223584888
 31
0.0
  0
LINE
  5
373
330
6F
100
AcDbEntity
  8
0
 62
     0
100
AcDbLine
 10
167.0106274285357
 20
48.41030223584888
 30
0.0
 11
167.0106274285357
 21
46.88450223584888
 31
0.0
  0
LINE
  5
374
330
6F
100
AcDbEntity
  8
0
 62
     0
100
AcDbLine
 10
167.0106274285357
 20
46.88450223584888
 30
0.0
 11
162.5402274285356
 21
46.88450223584888
 31
0.0
  0
LINE
  5
375
330
6F
100
AcDbEntity
  8
0
 62
     0
100
AcDbLine
 10
162.5402274285356
 20
46.88450223584888
 30
0.0
 11
162.5402274285356
 21
45.15940223584888
 31
0.0
  0
LINE
  5
376
330
6F
100
AcDbEntity
  8
0
 62
     0
100
AcDbLine
 10
162.5402274285356
 20
45.15940223584888
 30
0.0
 11
161.3401274285356
 21
45.15940223584888
 31
0.0
  0
LINE
  5
377
330
6F
100
AcDbEntity
  8
0
 62
     0
100
AcDbLine
 10
161.3401274285356
 20
45.15940223584888
 30
0.0
 11
161.3401274285356
 21
41.86020223584888
 31
0.0
  0
LINE
  5
378
330
6F
100
AcDbEntity
  8
0
 62
     0
100
AcDbLine
 10
161.3401274285356
 20
41.86020223584888
 30
0.0
 11
162.5402274285356
 21
41.86020223584888
 31
0.0
  0
LINE
  5
379
330
6F
100
AcDbEntity
  8
0
 62
     0
100
AcDbLine
 10
162.5402274285356
 20
41.86020223584888
 30
0.0
 11
162.5402274285356
 21
40.13520223584888
 31
0.0
  0
LINE
  5
37A
330
6F
100
AcDbEntity
  8
0
 62
     0
100
AcDbLine
 10
162.5402274285356
 20
40.13520223584888
 30
0.0
 11
168.8105274285357
 21
40.13520223584888
 31
0.0
  0
LINE
  5
37B
330
6F
100
AcDbEntity
  8
0
 62
     0
100
AcDbLine
 10
168.8105274285357
 20
40.13520223584888
 30
0.0
 11
168.8105274285357
 21
39.30970223584888
 31
0.0
  0
LINE
  5
37C
330
6F
100
AcDbEntity
  8
0
 62
     0
100
AcDbLine
 10
168.8105274285357
 20
39.30970223584888
 30
0.0
 11
171.6105274285357
 21
39.30970223584888
 31
0.0
  0
LINE
  5
37D
330
6F
100
AcDbEntity
  8
0
 62
     0
100
AcDbLine
 10
171.6105274285357
 20
39.30970223584888
 30
0.0
 11
171.6105274285357
 21
40.13520223584888
 31
0.0
  0
LINE
  5
37E
330
6F
100
AcDbEntity
  8
0
 62
     0
100
AcDbLine
 10
171.6105274285357
 20
40.13520223584888
 30
0.0
 11
174.8405274285357
 21
40.13520223584888
 31
0.0
  0
LINE
  5
37F
330
6F
100
AcDbEntity
  8
0
 62
     0
100
AcDbLine
 10
174.8405274285357
 20
40.13520223584888
 30
0.0
 11
174.8405274285357
 21
46.88450223584888
 31
0.0
  0
LINE
  5
380
330
6F
100
AcDbEntity
  8
0
 62
     0
100
AcDbLine
 10
174.8405274285357
 20
46.88450223584888
 30
0.0
 11
171.6105274285357
 21
46.88450223584888
 31
0.0
  0
LINE
  5
381
330
6F
100
AcDbEntity
  8
0
 62
     0
100
AcDbLine
 10
171.6105274285357
 20
46.88450223584888
 30
0.0
 11
171.6105274285357
 21
48.41030223584888
 31
0.0
  0
LINE
  5
382
330
6F
100
AcDbEntity
  8
0
 62
     0
100
AcDbLine
 10
171.6105274285357
 20
48.41030223584888
 30
0.0
 11
176.3095274285357
 21
48.41030223584888
 31
0.0
  0
LINE
  5
383
330
6F
100
AcDbEntity
  8
0
 62
     0
100
AcDbLine
 10
176.3095274285357
 20
48.41030223584888
 30
0.0
 11
176.3095274285357
 21
62.40960223584888
 31
0.0
  0
LINE
  5
384
330
6F
100
AcDbEntity
  8
0
 62
     0
100
AcDbLine
 10
176.3095274285357
 20
62.40960223584888
 30
0.0
 11
171.6105274285357
 21
62.40960223584888
 31
0.0
  0
LINE
  5
385
330
6F
100
AcDbEntity
  8
0
 62
     0
100
AcDbLine
 10
171.6105274285357
 20
62.40960223584888
 30
0.0
 11
171.6105274285357
 21
63.93500223584887
 31
0.0
  0
LINE
  5
386
330
6F
100
AcDbEntity
  8
0
 62
     0
100
AcDbLine
 10
171.6105274285357
 20
63.93500223584887
 30
0.0
 11
174.8405274285357
 21
63.93500223584887
 31
0.0
  0
LINE
  5
387
330
6F
100
AcDbEntity
  8
0
 62
     0
100
AcDbLine
 10
174.8405274285357
 20
63.93500223584887
 30
0.0
 11
174.8405274285357
 21
70.68470223584887
 31
0.0
  0
LINE
  5
388
330
6F
100
AcDbEntity
  8
0
 62
     0
100
AcDbLine
 10
174.8405274285357
 20
70.68470223584887
 30
0.0
 11
171.6105274285357
 21
70.68470223584887
 31
0.0
  0
LINE
  5
389
330
6F
100
AcDbEntity
  8
0
 62
     0
100
AcDbLine
 10
171.6105274285357
 20
70.68470223584887
 30
0.0
 11
171.6105274285357
 21
71.51020223584888
 31
0.0
  0
LINE
  5
38A
330
6F
100
AcDbEntity
  8
0
 62
     0
100
AcDbLine
 10
171.6105274285357
 20
71.51020223584888
 30
0.0
 11
168.8105274285357
 21
71.51020223584888
 31
0.0
  0
LINE
  5
38B
330
6F
100
AcDbEntity
  8
0
 62
     0
100
AcDbLine
 10
105.1601774285357
 20
71.93460223584887
 30
0.0
 11
119.1597274285357
 21
71.93460223584887
 31
0.0
  0
LINE
  5
38C
330
6F
100
AcDbEntity
  8
0
 62
     0
100
AcDbLine
 10
119.1597274285357
 20
71.93460223584887
 30
0.0
 11
119.1597274285357
 21
57.93530223584888
 31
0.0
  0
LINE
  5
38D
330
6F
100
AcDbEntity
  8
0
 62
     0
100
AcDbLine
 10
119.1597274285357
 20
57.93530223584888
 30
0.0
 11
105.1601774285357
 21
57.93530223584888
 31
0.0
  0
LINE
  5
38E
330
6F
100
AcDbEntity
  8
0
 62
     0
100
AcDbLine
 10
105.1601774285357
 20
57.93530223584888
 30
0.0
 11
105.1601774285357
 21
71.93460223584887
 31
0.0
  0
LINE
  5
38F
330
6F
100
AcDbEntity
  8
0
 62
     0
100
AcDbLine
 10
124.2102274285357
 20
71.93460223584887
 30
0.0
 11
138.2095274285357
 21
71.93460223584887
 31
0.0
  0
LINE
  5
390
330
6F
100
AcDbEntity
  8
0
 62
     0
100
AcDbLine
 10
138.2095274285357
 20
71.93460223584887
 30
0.0
 11
138.2095274285357
 21
57.93530223584888
 31
0.0
  0
LINE
  5
391
330
6F
100
AcDbEntity
  8
0
 62
     0
100
AcDbLine
 10
138.2095274285357
 20
57.93530223584888
 30
0.0
 11
124.2102274285357
 21
57.93530223584888
 31
0.0
  0
LINE
  5
392
330
6F
100
AcDbEntity
  8
0
 62
     0
100
AcDbLine
 10
124.2102274285357
 20
57.93530223584888
 30
0.0
 11
124.2102274285357
 21
71.93460223584887
 31
0.0
  0
LINE
  5
393
330
6F
100
AcDbEntity
  8
0
 62
     0
100
AcDbLine
 10
143.2602274285357
 20
71.93460223584887
 30
0.0
 11
157.2595274285357
 21
71.93460223584887
 31
0.0
  0
LINE
  5
394
330
6F
100
AcDbEntity
  8
0
 62
     0
100
AcDbLine
 10
157.2595274285357
 20
71.93460223584887
 30
0.0
 11
157.2595274285357
 21
57.93530223584888
 31
0.0
  0
LINE
  5
395
330
6F
100
AcDbEntity
  8
0
 62
     0
100
AcDbLine
 10
157.2595274285357
 20
57.93530223584888
 30
0.0
 11
143.2602274285357
 21
57.93530223584888
 31
0.0
  0
LINE
  5
396
330
6F
100
AcDbEntity
  8
0
 62
     0
100
AcDbLine
 10
143.2602274285357
 20
57.93530223584888
 30
0.0
 11
143.2602274285357
 21
71.93460223584887
 31
0.0
  0
LINE
  5
397
330
6F
100
AcDbEntity
  8
0
 62
     0
100
AcDbLine
 10
105.1601774285357
 20
90.98460223584886
 30
0.0
 11
119.1597274285357
 21
90.98460223584886
 31
0.0
  0
LINE
  5
398
330
6F
100
AcDbEntity
  8
0
 62
     0
100
AcDbLine
 10
119.1597274285357
 20
90.98460223584886
 30
0.0
 11
119.1597274285357
 21
76.98530223584888
 31
0.0
  0
LINE
  5
399
330
6F
100
AcDbEntity
  8
0
 62
     0
100
AcDbLine
 10
119.1597274285357
 20
76.98530223584888
 30
0.0
 11
105.1601774285357
 21
76.98530223584888
 31
0.0
  0
LINE
  5
39A
330
6F
100
AcDbEntity
  8
0
 62
     0
100
AcDbLine
 10
105.1601774285357
 20
76.98530223584888
 30
0.0
 11
105.1601774285357
 21
90.98460223584886
 31
0.0
  0
LINE
  5
39B
330
6F
100
AcDbEntity
  8
0
 62
     0
100
AcDbLine
 10
124.2102274285357
 20
90.98460223584886
 30
0.0
 11
138.2095274285357
 21
90.98460223584886
 31
0.0
  0
LINE
  5
39C
330
6F
100
AcDbEntity
  8
0
 62
     0
100
AcDbLine
 10
138.2095274285357
 20
90.98460223584886
 30
0.0
 11
138.2095274285357
 21
76.98530223584888
 31
0.0
  0
LINE
  5
39D
330
6F
100
AcDbEntity
  8
0
 62
     0
100
AcDbLine
 10
138.2095274285357
 20
76.98530223584888
 30
0.0
 11
124.2102274285357
 21
76.98530223584888
 31
0.0
  0
LINE
  5
39E
330
6F
100
AcDbEntity
  8
0
 62
     0
100
AcDbLine
 10
124.2102274285357
 20
76.98530223584888
 30
0.0
 11
124.2102274285357
 21
90.98460223584886
 31
0.0
  0
LINE
  5
39F
330
6F
100
AcDbEntity
  8
0
 62
     0
100
AcDbLine
 10
143.2602274285357
 20
90.98460223584886
 30
0.0
 11
157.2595274285357
 21
90.98460223584886
 31
0.0
  0
LINE
  5
3A0
330
6F
100
AcDbEntity
  8
0
 62
     0
100
AcDbLine
 10
157.2595274285357
 20
90.98460223584886
 30
0.0
 11
157.2595274285357
 21
76.98530223584888
 31
0.0
  0
LINE
  5
3A1
330
6F
100
AcDbEntity
  8
0
 62
     0
100
AcDbLine
 10
157.2595274285357
 20
76.98530223584888
 30
0.0
 11
143.2602274285357
 21
76.98530223584888
 31
0.0
  0
LINE
  5
3A2
330
6F
100
AcDbEntity
  8
0
 62
     0
100
AcDbLine
 10
143.2602274285357
 20
76.98530223584888
 30
0.0
 11
143.2602274285357
 21
90.98460223584886
 31
0.0
  0
LINE
  5
3A3
330
6F
100
AcDbEntity
  8
0
 62
     0
100
AcDbLine
 10
162.3102274285357
 20
90.98460223584886
 30
0.0
 11
176.3095274285357
 21
90.98460223584886
 31
0.0
  0
LINE
  5
3A4
330
6F
100
AcDbEntity
  8
0
 62
     0
100
AcDbLine
 10
176.3095274285357
 20
90.98460223584886
 30
0.0
 11
176.3095274285357
 21
76.98530223584888
 31
0.0
  0
LINE
  5
3A5
330
6F
100
AcDbEntity
  8
0
 62
     0
100
AcDbLine
 10
176.3095274285357
 20
76.98530223584888
 30
0.0
 11
162.3102274285357
 21
76.98530223584888
 31
0.0
  0
LINE
  5
3A6
330
6F
100
AcDbEntity
  8
0
 62
     0
100
AcDbLine
 10
162.3102274285357
 20
76.98530223584888
 30
0.0
 11
162.3102274285357
 21
90.98460223584886
 31
0.0
  0
LINE
  5
3AE
330
6F
100
AcDbEntity
  8
0
  6
Continuous
100
AcDbLine
 10
102.1601774285357
 20
-2.214857764151116
 30
0.0
 11
102.1601774285357
 21
23.88487223584886
 31
0.0
  0
LINE
  5
3B2
330
6F
100
AcDbEntity
  8
0
  6
Continuous
100
AcDbLine
 10
179.3095274285357
 20
-2.21485776415112
 30
0.0
 11
179.3095274285356
 21
23.88487223584889
 31
0.0
  0
LINE
  5
3B4
330
6F
100
AcDbEntity
  8
0
  6
Continuous
100
AcDbLine
 10
179.3095274285357
 20
-2.21485776415112
 30
0.0
 11
102.1601774285357
 21
-2.214857764151116
 31
0.0
  0
LINE
  5
3B6
330
6F
100
AcDbEntity
  8
0
  6
Continuous
100
AcDbLine
 10
102.1601774285356
 20
118.9846022358488
 30
0.0
 11
179.3095274285357
 21
118.9846022358488
 31
0.0
  0
LINE
  5
451
330
6F
100
AcDbEntity
  8
0
  6
Continuous
100
AcDbLine
 10
96.1601774285357
 20
79.38487223584886
 30
0.0
 11
96.1601774285357
 21
97.38487223584886
 31
0.0
  0
LINE
  5
452
330
6F
100
AcDbEntity
  8
0
  6
Continuous
100
AcDbLine
 10
98.16017742853569
 20
97.38487223584886
 30
0.0
 11
98.16017742853569
 21
94.38487223584886
 31
0.0
  0
LINE
  5
455
330
6F
100
AcDbEntity
  8
0
  6
Continuous
100
AcDbLine
 10
98.16017742853569
 20
79.38487223584886
 30
0.0
 11
98.16017742853569
 21
82.38487223584886
 31
0.0
  0
LINE
  5
490
330
6F
100
AcDbEntity
  8
0
  6
Continuous
100
AcDbLine
 10
102.1601774285357
 20
94.38487223584886
 30
0.0
 11
102.1601774285357
 21
118.9846022358488
 31
0.0
  0
LINE
  5
491
330
6F
100
AcDbEntity
  8
0
  6
Continuous
100
AcDbLine
 10
102.1601774285357
 20
35.88487223584888
 30
0.0
 11
102.1601774285356
 21
82.38487223584884
 31
0.0
  0
LINE
  5
493
330
6F
100
AcDbEntity
  8
0
  6
Continuous
100
AcDbLine
 10
179.3095274285356
 20
35.88487223584888
 30
0.0
 11
179.3095274285356
 21
82.38487223584881
 31
0.0
  0
LINE
  5
4BA
330
6F
100
AcDbEntity
  8
0
  6
Continuous
100
AcDbLine
 10
179.3095274285356
 20
35.88487223584888
 30
0.0
 11
179.3095274285357
 21
82.38487223584881
 31
0.0
  0
LINE
  5
4BB
330
6F
100
AcDbEntity
  8
0
  6
Continuous
100
AcDbLine
 10
179.3095274285357
 20
118.9846022358488
 30
0.0
 11
179.3095274285356
 21
94.38487223584884
 31
0.0
  0
LINE
  5
4E0
330
6F
100
AcDbEntity
  8
0
  6
Continuous
100
AcDbLine
 10
97.16017742853569
 20
78.38487223584886
 30
0.0
 11
97.16017742853569
 21
78.38487223584886
 31
0.0
  0
LINE
  5
4E1
330
6F
100
AcDbEntity
  8
0
  6
Continuous
100
AcDbLine
 10
97.16017742853569
 20
98.38487223584886
 30
0.0
 11
97.16017742853569
 21
98.38487223584886
 31
0.0
  0
ARC
  5
4E2
330
6F
100
AcDbEntity
  8
0
  6
Continuous
100
AcDbCircle
 10
97.16017742853569
 20
97.38487223584886
 30
0.0
 40
1.0
100
AcDbArc
 50
90.0
 51
180.0
  0
ARC
  5
4E3
330
6F
100
AcDbEntity
  8
0
  6
Continuous
100
AcDbCircle
 10
97.16017742853569
 20
97.38487223584886
 30
0.0
 40
1.0
100
AcDbArc
 50
0.0
 51
90.0
  0
ARC
  5
4E8
330
6F
100
AcDbEntity
  8
0
  6
Continuous
100
AcDbCircle
 10
97.16017742853569
 20
79.38487223584886
 30
0.0
 40
1.0
100
AcDbArc
 50
180.0
 51
270.0
  0
ARC
  5
4E9
330
6F
100
AcDbEntity
  8
0
  6
Continuous
100
AcDbCircle
 10
97.16017742853569
 20
79.38487223584886
 30
0.0
 40
1.0
100
AcDbArc
 50
270.0
 51
0.0
  0
LINE
  5
4EB
330
6F
100
AcDbEntity
  8
0
  6
Continuous
100
AcDbLine
 10
100.1601774285357
 20
84.38487223584884
 30
0.0
 11
100.1601774285356
 21
84.38487223584884
 31
0.0
  0
LINE
  5
4EC
330
6F
100
AcDbEntity
  8
0
  6
Continuous
100
AcDbLine
 10
100.1601774285357
 20
92.38487223584886
 30
0.0
 11
100.1601774285357
 21
92.38487223584886
 31
0.0
  0
ARC
  5
4F2
330
6F
100
AcDbEntity
  8
0
  6
Continuous
100
AcDbCircle
 10
100.1601774285357
 20
94.38487223584886
 30
0.0
 40
2.0
100
AcDbArc
 50
180.0
 51
270.0
  0
ARC
  5
4F3
330
6F
100
AcDbEntity
  8
0
  6
Continuous
100
AcDbCircle
 10
100.1601774285357
 20
94.38487223584886
 30
0.0
 40
2.0
100
AcDbArc
 50
270.0
 51
0.0
  0
ARC
  5
4F4
330
6F
100
AcDbEntity
  8
0
  6
Continuous
100
AcDbCircle
 10
100.1601774285357
 20
82.38487223584886
 30
0.0
 40
2.0
100
AcDbArc
 50
89.9999999999998
 51
180.0
  0
ARC
  5
4F5
330
6F
100
AcDbEntity
  8
0
  6
Continuous
100
AcDbCircle
 10
100.1601774285356
 20
82.38487223584884
 30
0.0
 40
2.0
100
AcDbArc
 50
0.0000000000000509
 51
90.0
  0
ARC
  5
4F6
330
6F
100
AcDbEntity
  8
0
  6
Continuous
100
AcDbCircle
 10
181.3095274285356
 20
82.38487223584881
 30
0.0
 40
2.0
100
AcDbArc
 50
90.0
 51
179.9999999999999
  0
ARC
  5
4F7
330
6F
100
AcDbEntity
  8
0
  6
Continuous
100
AcDbCircle
 10
181.3095274285356
 20
94.38487223584884
 30
0.0
 40
2.0
100
AcDbArc
 50
180.0
 51
270.0
  0
LINE
  5
4F8
330
6F
100
AcDbEntity
  8
0
  6
Continuous
100
AcDbLine
 10
185.3095274285356
 20
79.38487223584883
 30
0.0
 11
185.3095274285356
 21
97.38487223584883
 31
0.0
  0
ARC
  5
4F9
330
6F
100
AcDbEntity
  8
0
  6
Continuous
100
AcDbCircle
 10
184.3095274285356
 20
97.38487223584883
 30
0.0
 40
1.0
100
AcDbArc
 50
0.0
 51
90.0
  0
LINE
  5
4FA
330
6F
100
AcDbEntity
  8
0
  6
Continuous
100
AcDbLine
 10
183.3095274285356
 20
97.38487223584883
 30
0.0
 11
183.3095274285356
 21
94.38487223584884
 31
0.0
  0
ARC
  5
4FB
330
6F
100
AcDbEntity
  8
0
  6
Continuous
100
AcDbCircle
 10
184.3095274285356
 20
97.38487223584883
 30
0.0
 40
1.0
100
AcDbArc
 50
90.0
 51
180.0
  0
LINE
  5
4FC
330
6F
100
AcDbEntity
  8
0
  6
Continuous
100
AcDbLine
 10
183.3095274285356
 20
79.38487223584883
 30
0.0
 11
183.3095274285356
 21
82.38487223584883
 31
0.0
  0
ARC
  5
4FD
330
6F
100
AcDbEntity
  8
0
  6
Continuous
100
AcDbCircle
 10
181.3095274285356
 20
82.38487223584883
 30
0.0
 40
2.0
100
AcDbArc
 50
0.0
 51
90.0
  0
ARC
  5
4FE
330
6F
100
AcDbEntity
  8
0
  6
Continuous
100
AcDbCircle
 10
184.3095274285356
 20
79.38487223584883
 30
0.0
 40
1.0
100
AcDbArc
 50
180.0
 51
270.0
  0
LINE
  5
4FF
330
6F
100
AcDbEntity
  8
0
  6
Continuous
100
AcDbLine
 10
184.3095274285356
 20
78.38487223584883
 30
0.0
 11
184.3095274285356
 21
78.38487223584883
 31
0.0
  0
ARC
  5
500
330
6F
100
AcDbEntity
  8
0
  6
Continuous
100
AcDbCircle
 10
184.3095274285356
 20
79.38487223584883
 30
0.0
 40
1.0
100
AcDbArc
 50
270.0
 51
0.0
  0
LINE
  5
501
330
6F
100
AcDbEntity
  8
0
  6
Continuous
100
AcDbLine
 10
184.3095274285356
 20
98.38487223584884
 30
0.0
 11
184.3095274285356
 21
98.38487223584884
 31
0.0
  0
LINE
  5
502
330
6F
100
AcDbEntity
  8
0
  6
Continuous
100
AcDbLine
 10
181.3095274285356
 20
84.38487223584882
 30
0.0
 11
181.3095274285356
 21
84.38487223584882
 31
0.0
  0
LINE
  5
503
330
6F
100
AcDbEntity
  8
0
  6
Continuous
100
AcDbLine
 10
181.3095274285356
 20
92.38487223584883
 30
0.0
 11
181.3095274285356
 21
92.38487223584883
 31
0.0
  0
ARC
  5
504
330
6F
100
AcDbEntity
  8
0
  6
Continuous
100
AcDbCircle
 10
181.3095274285356
 20
94.38487223584884
 30
0.0
 40
2.0
100
AcDbArc
 50
270.0
 51
0.0
  0
ARC
  5
505
330
6F
100
AcDbEntity
  8
0
  6
Continuous
100
AcDbCircle
 10
100.1601774285356
 20
35.88487223584888
 30
0.0
 40
2.0
100
AcDbArc
 50
270.0
 51
0.0
  0
ARC
  5
506
330
6F
100
AcDbEntity
  8
0
  6
Continuous
100
AcDbCircle
 10
100.1601774285357
 20
23.88487223584886
 30
0.0
 40
2.0
100
AcDbArc
 50
0.0
 51
90.00000000000003
  0
LINE
  5
507
330
6F
100
AcDbEntity
  8
0
  6
Continuous
100
AcDbLine
 10
96.1601774285357
 20
38.88487223584886
 30
0.0
 11
96.1601774285357
 21
20.88487223584886
 31
0.0
  0
ARC
  5
508
330
6F
100
AcDbEntity
  8
0
  6
Continuous
100
AcDbCircle
 10
97.16017742853569
 20
20.88487223584886
 30
0.0
 40
1.0
100
AcDbArc
 50
180.0
 51
270.0
  0
LINE
  5
509
330
6F
100
AcDbEntity
  8
0
  6
Continuous
100
AcDbLine
 10
98.16017742853569
 20
20.88487223584886
 30
0.0
 11
98.16017742853569
 21
23.88487223584886
 31
0.0
  0
ARC
  5
50A
330
6F
100
AcDbEntity
  8
0
  6
Continuous
100
AcDbCircle
 10
97.16017742853569
 20
20.88487223584886
 30
0.0
 40
1.0
100
AcDbArc
 50
270.0
 51
0.0
  0
LINE
  5
50B
330
6F
100
AcDbEntity
  8
0
  6
Continuous
100
AcDbLine
 10
98.16017742853569
 20
38.88487223584886
 30
0.0
 11
98.16017742853569
 21
35.88487223584886
 31
0.0
  0
ARC
  5
50C
330
6F
100
AcDbEntity
  8
0
  6
Continuous
100
AcDbCircle
 10
100.1601774285357
 20
35.88487223584886
 30
0.0
 40
2.0
100
AcDbArc
 50
180.0
 51
270.0000000000002
  0
ARC
  5
50D
330
6F
100
AcDbEntity
  8
0
  6
Continuous
100
AcDbCircle
 10
97.16017742853569
 20
38.88487223584886
 30
0.0
 40
1.0
100
AcDbArc
 50
0.0
 51
90.00000000000003
  0
LINE
  5
50E
330
6F
100
AcDbEntity
  8
0
  6
Continuous
100
AcDbLine
 10
97.16017742853569
 20
39.88487223584886
 30
0.0
 11
97.16017742853569
 21
39.88487223584886
 31
0.0
  0
ARC
  5
50F
330
6F
100
AcDbEntity
  8
0
  6
Continuous
100
AcDbCircle
 10
97.16017742853569
 20
38.88487223584886
 30
0.0
 40
1.0
100
AcDbArc
 50
90.00000000000003
 51
180.0
  0
LINE
  5
510
330
6F
100
AcDbEntity
  8
0
  6
Continuous
100
AcDbLine
 10
97.16017742853569
 20
19.88487223584886
 30
0.0
 11
97.16017742853569
 21
19.88487223584886
 31
0.0
  0
LINE
  5
511
330
6F
100
AcDbEntity
  8
0
  6
Continuous
100
AcDbLine
 10
100.1601774285357
 20
33.88487223584887
 30
0.0
 11
100.1601774285356
 21
33.88487223584887
 31
0.0
  0
LINE
  5
512
330
6F
100
AcDbEntity
  8
0
  6
Continuous
100
AcDbLine
 10
100.1601774285357
 20
25.88487223584886
 30
0.0
 11
100.1601774285357
 21
25.88487223584886
 31
0.0
  0
ARC
  5
513
330
6F
100
AcDbEntity
  8
0
  6
Continuous
100
AcDbCircle
 10
100.1601774285357
 20
23.88487223584886
 30
0.0
 40
2.0
100
AcDbArc
 50
90.00000000000003
 51
180.0
  0
ARC
  5
514
330
6F
100
AcDbEntity
  8
0
  6
Continuous
100
AcDbCircle
 10
181.3095274285356
 20
35.8848722358489
 30
0.0
 40
2.0
100
AcDbArc
 50
180.0
 51
270.0
  0
ARC
  5
515
330
6F
100
AcDbEntity
  8
0
  6
Continuous
100
AcDbCircle
 10
181.3095274285356
 20
23.88487223584889
 30
0.0
 40
2.0
100
AcDbArc
 50
90.00000000000003
 51
180.0
  0
LINE
  5
516
330
6F
100
AcDbEntity
  8
0
  6
Continuous
100
AcDbLine
 10
185.3095274285356
 20
38.88487223584889
 30
0.0
 11
185.3095274285356
 21
20.88487223584889
 31
0.0
  0
ARC
  5
517
330
6F
100
AcDbEntity
  8
0
  6
Continuous
100
AcDbCircle
 10
184.3095274285356
 20
20.88487223584889
 30
0.0
 40
1.0
100
AcDbArc
 50
270.0
 51
0.0
  0
LINE
  5
518
330
6F
100
AcDbEntity
  8
0
  6
Continuous
100
AcDbLine
 10
183.3095274285356
 20
20.88487223584889
 30
0.0
 11
183.3095274285356
 21
23.88487223584889
 31
0.0
  0
ARC
  5
519
330
6F
100
AcDbEntity
  8
0
  6
Continuous
100
AcDbCircle
 10
184.3095274285356
 20
20.88487223584889
 30
0.0
 40
1.0
100
AcDbArc
 50
180.0
 51
270.0
  0
LINE
  5
51A
330
6F
100
AcDbEntity
  8
0
  6
Continuous
100
AcDbLine
 10
183.3095274285356
 20
38.88487223584889
 30
0.0
 11
183.3095274285356
 21
35.88487223584889
 31
0.0
  0
ARC
  5
51B
330
6F
100
AcDbEntity
  8
0
  6
Continuous
100
AcDbCircle
 10
181.3095274285356
 20
35.88487223584889
 30
0.0
 40
2.0
100
AcDbArc
 50
270.0
 51
0.0
  0
ARC
  5
51C
330
6F
100
AcDbEntity
  8
0
  6
Continuous
100
AcDbCircle
 10
184.3095274285356
 20
38.88487223584889
 30
0.0
 40
1.0
100
AcDbArc
 50
90.00000000000003
 51
180.0
  0
LINE
  5
51D
330
6F
100
AcDbEntity
  8
0
  6
Continuous
100
AcDbLine
 10
184.3095274285356
 20
39.88487223584889
 30
0.0
 11
184.3095274285356
 21
39.88487223584889
 31
0.0
  0
ARC
  5
51E
330
6F
100
AcDbEntity
  8
0
  6
Continuous
100
AcDbCircle
 10
184.3095274285356
 20
38.88487223584889
 30
0.0
 40
1.0
100
AcDbArc
 50
0.0
 51
90.00000000000003
  0
LINE
  5
51F
330
6F
100
AcDbEntity
  8
0
  6
Continuous
100
AcDbLine
 10
184.3095274285356
 20
19.88487223584889
 30
0.0
 11
184.3095274285356
 21
19.88487223584889
 31
0.0
  0
LINE
  5
520
330
6F
100
AcDbEntity
  8
0
  6
Continuous
100
AcDbLine
 10
181.3095274285356
 20
33.88487223584891
 30
0.0
 11
181.3095274285356
 21
33.88487223584891
 31
0.0
  0
LINE
  5
521
330
6F
100
AcDbEntity
  8
0
  6
Continuous
100
AcDbLine
 10
181.3095274285356
 20
25.88487223584889
 30
0.0
 11
181.3095274285356
 21
25.88487223584889
 31
0.0
  0
ARC
  5
522
330
6F
100
AcDbEntity
  8
0
  6
Continuous
100
AcDbCircle
 10
181.3095274285356
 20
23.88487223584889
 30
0.0
 40
2.0
100
AcDbArc
 50
0.0
 51
90.00000000000003
  0
ENDSEC
  0
SECTION
  2
OBJECTS
  0
DICTIONARY
  5
C
330
0
100
AcDbDictionary
281
     1
  3
ACAD_CIP_PREVIOUS_PRODUCT_INFO
350
10E
  3
ACAD_COLOR
350
62
  3
ACAD_DETAILVIEWSTYLE
350
69
  3
ACAD_GROUP
350
D
  3
ACAD_LAST_SAVED_VERSION_INFO
350
111
  3
ACAD_LAYOUT
350
61
  3
ACAD_MATERIAL
350
10
  3
ACAD_MLEADERSTYLE
350
65
  3
ACAD_MLINESTYLE
350
5E
  3
ACAD_PLOTSETTINGS
350
60
  3
ACAD_PLOTSTYLENAME
350
E
  3
ACAD_SCALELIST
350
42
  3
ACAD_SECTIONVIEWSTYLE
350
67
  3
ACAD_TABLESTYLE
350
63
  3
ACAD_VISUALSTYLE
350
29
  3
ACDB_RECOMPOSE_DATA
350
52D
  3
AcDbVariableDictionary
350
10F
  3
AcDsDecomposeData
350
533
  0
DICTIONARY
  5
1A1
330
2
100
AcDbDictionary
280
     1
281
     1
  3
ACAD_LAYERSTATES
360
1A2
  0
DICTIONARY
  5
19C
330
54
100
AcDbDictionary
280
     1
281
     1
  3
ADSK_XREC_LAYER_RECONCILED
360
19D
  0
DICTIONARY
  5
154
330
6F
100
AcDbDictionary
280
     1
281
     1
  3
ACAD_SORTENTS
360
155
  0
DICTIONARY
  5
3F8
330
3E4
100
AcDbDictionary
280
     1
281
     1
  3
ACAD_SORTENTS
360
3F9
  0
DICTIONARY
  5
410
330
3FC
100
AcDbDictionary
280
     1
281
     1
  3
ACAD_SORTENTS
360
411
  0
DICTIONARY
  5
42F
330
41A
100
AcDbDictionary
280
     1
281
     1
  3
ACAD_SORTENTS
360
430
  0
XRECORD
  5
10E
102
{ACAD_REACTORS
330
C
102
}
330
C
100
AcDbXrecord
280
     1
300
ACD
300
2024
300

  0
DICTIONARY
  5
62
102
{ACAD_REACTORS
330
C
102
}
330
C
100
AcDbDictionary
281
     1
  0
DICTIONARY
  5
69
102
{ACAD_REACTORS
330
C
102
}
330
C
100
AcDbDictionary
281
     1
  3
Imperial24
350
6A
  0
DICTIONARY
  5
D
102
{ACAD_REACTORS
330
C
102
}
330
C
100
AcDbDictionary
281
     1
  0
XRECORD
  5
111
102
{ACAD_REACTORS
330
C
102
}
330
C
100
AcDbXrecord
280
     1
300
{8EBB35E9-2C50-E14D-836C-23CB1642D53B}
301
{6EF810B9-4536-D549-A2FA-E928844D82FC}
302
{8EBB35E9-2C50-E14D-836C-23CB1642D53B}
303
D:\Project\Connected_Project\Keyboard\Rock_Number_keyboard\Rock_Number.dxf
  0
DICTIONARY
  5
61
102
{ACAD_REACTORS
330
C
102
}
330
C
100
AcDbDictionary
281
     1
  3
Model
350
72
  3
1
350
6E
  0
DICTIONARY
  5
10
102
{ACAD_REACTORS
330
C
102
}
330
C
100
AcDbDictionary
281
     1
  3
ByBlock
350
19
  3
ByLayer
350
11
  3
Global
350
21
  0
DICTIONARY
  5
65
102
{ACAD_REACTORS
330
C
102
}
330
C
100
AcDbDictionary
281
     1
  3
Standard
350
66
  0
DICTIONARY
  5
5E
102
{ACAD_REACTORS
330
C
102
}
330
C
100
AcDbDictionary
281
     1
  3
Standard
350
5F
  0
DICTIONARY
  5
60
102
{ACAD_REACTORS
330
C
102
}
330
C
100
AcDbDictionary
281
     1
  0
ACDBDICTIONARYWDFLT
  5
E
102
{ACAD_REACTORS
330
C
102
}
330
C
100
AcDbDictionary
281
     1
  3
Normal
350
F
100
AcDbDictionaryWithDefault
340
F
  0
DICTIONARY
  5
42
102
{ACAD_REACTORS
330
C
102
}
330
C
100
AcDbDictionary
281
     1
  3
A0
350
43
  3
A1
350
44
  3
A2
350
45
  3
A3
350
46
  3
A4
350
47
  3
A5
350
48
  3
A6
350
49
  3
A7
350
4A
  3
A8
350
4B
  3
A9
350
4C
  3
B0
350
4D
  3
B1
350
4E
  3
B2
350
4F
  3
B3
350
50
  3
B4
350
51
  3
B5
350
52
  3
B6
350
53
  0
DICTIONARY
  5
67
102
{ACAD_REACTORS
330
C
102
}
330
C
100
AcDbDictionary
281
     1
  3
Imperial24
350
68
  0
DICTIONARY
  5
63
102
{ACAD_REACTORS
330
C
102
}
330
C
100
AcDbDictionary
281
     1
  3
Standard
350
64
  0
DICTIONARY
  5
29
102
{ACAD_REACTORS
330
C
102
}
330
C
100
AcDbDictionary
281
     1
  3
2dWireframe
350
2F
  3
Basic
350
2E
  3
Brighten
350
35
  3
ColorChange
350
39
  3
Conceptual
350
32
  3
Dim
350
34
  3
EdgeColorOff
350
41
  3
Facepattern
350
38
  3
Flat
350
2A
  3
FlatWithEdges
350
2B
  3
Gouraud
350
2C
  3
GouraudWithEdges
350
2D
  3
Hidden
350
31
  3
JitterOff
350
3F
  3
Linepattern
350
37
  3
OverhangOff
350
40
  3
Realistic
350
33
  3
Shaded
350
3E
  3
Shaded with edges
350
3D
  3
Shades of Gray
350
3A
  3
Sketchy
350
3B
  3
Thicken
350
36
  3
Wireframe
350
30
  3
X-Ray
350
3C
  0
XRECORD
  5
52D
102
{ACAD_REACTORS
330
C
102
}
330
C
100
AcDbXrecord
280
     1
 90
        1
330
64
  0
DICTIONARY
  5
10F
102
{ACAD_REACTORS
330
C
102
}
330
C
100
AcDbDictionary
281
     1
  3
CANNOSCALE
350
118
  3
CMLEADERSTYLE
350
114
  3
CTABLESTYLE
350
113
  3
CVIEWDETAILSTYLE
350
115
  3
CVIEWSECTIONSTYLE
350
116
  3
LAYEREVAL
350
11A
  3
LAYERNOTIFY
350
11B
  3
LIGHTINGUNITS
350
119
  3
MSLTSCALE
350
117
  0
DICTIONARY
  5
533
102
{ACAD_REACTORS
330
C
102
}
330
C
100
AcDbDictionary
281
     1
  3
AcDsRecords
350
535
  3
AcDsSchemas
350
534
1001
ACAD
1070
     2
  0
DICTIONARY
  5
1A2
102
{ACAD_REACTORS
330
1A1
102
}
330
1A1
100
AcDbDictionary
281
     1
  0
XRECORD
  5
19D
102
{ACAD_REACTORS
330
19C
102
}
330
19C
100
AcDbXrecord
280
     1
290
     1
  0
SORTENTSTABLE
  5
155
102
{ACAD_REACTORS
330
154
102
}
330
154
100
AcDbSortentsTable
330
6F
331
3B2
  5
3D1
331
3B4
  5
454
331
3B6
  5
455
331
451
  5
456
331
452
  5
45C
331
455
  5
482
331
490
  5
3B6
331
491
  5
3B2
331
493
  5
49A
331
4BA
  5
3D2
331
4BB
  5
4E9
331
4E0
  5
4EB
331
4E1
  5
4F2
331
4E2
  5
458
331
4E3
  5
47C
331
4E8
  5
4EC
331
4E9
  5
484
331
4EB
  5
4F3
331
4EC
  5
4F4
331
4F2
  5
4F5
331
4F3
  5
3B7
331
4F4
  5
483
331
4F5
  5
3B4
  0
SORTENTSTABLE
  5
3F9
102
{ACAD_REACTORS
330
3F8
102
}
330
3F8
100
AcDbSortentsTable
330
3E4
  0
SORTENTSTABLE
  5
411
102
{ACAD_REACTORS
330
410
102
}
330
410
100
AcDbSortentsTable
330
3FC
  0
SORTENTSTABLE
  5
430
102
{ACAD_REACTORS
330
42F
102
}
330
42F
100
AcDbSortentsTable
330
41A
  0
ACDBDETAILVIEWSTYLE
  5
6A
102
{ACAD_XDICTIONARY
360
538
102
}
102
{ACAD_REACTORS
330
69
102
}
330
69
100
AcDbModelDocViewStyle
 70
     0
  3
Imperial24
290
     0
100
AcDbDetailViewStyle
 70
     0
 71
     0
 90
        3
 71
     1
340
55
 62
   256
 40
0.24
340
0
 62
   256
 40
0.24
300

 40
0.36
280
     3
 71
     2
340
5C
 90
       25
 62
   256
 71
     3
340
55
 62
   256
 40
0.24
 90
        1
 40
0.75
 90
        1
300
%<\AcVar ViewType \f "%tc1">% %<\AcVar ViewDetailId>%\PSCALE %<\AcVar ViewScale \f "%sn">%
 71
     4
340
5C
 90
       25
 62
   256
340
5C
 90
       25
 62
   256
280
     0
  0
LAYOUT
  5
72
102
{ACAD_REACTORS
330
61
102
}
330
61
100
AcDbPlotSettings
  1

  2
Microsoft Print to PDF
  4

  6

 40
0.0
 41
0.0
 42
0.0
 43
0.0
 44
0.0
 45
0.0
 46
0.0
 47
0.0
 48
0.0
 49
0.0
140
0.0
141
0.0
142
1.0
143
1.0
 70
  1712
 72
     0
 73
     0
 74
     0
  7

 75
     0
147
1.0
 76
     0
 77
     2
 78
   300
148
0.0
149
0.0
100
AcDbLayout
  1
Model
 70
     1
 71
     0
 10
0.0
 20
0.0
 11
12.0
 21
9.0
 12
0.0
 22
0.0
 32
0.0
 14
0.0
 24
0.0
 34
0.0
 15
0.0
 25
0.0
 35
0.0
146
0.0
 13
0.0
 23
0.0
 33
0.0
 16
1.0
 26
0.0
 36
0.0
 17
0.0
 27
1.0
 37
0.0
 76
     0
330
6F
331
74
  0
LAYOUT
  5
6E
102
{ACAD_REACTORS
330
61
102
}
330
61
100
AcDbPlotSettings
  1

  2
Microsoft Print to PDF
  4

  6

 40
0.0
 41
0.0
 42
0.0
 43
0.0
 44
0.0
 45
0.0
 46
0.0
 47
0.0
 48
0.0
 49
0.0
140
0.0
141
0.0
142
1.0
143
1.0
 70
   688
 72
     0
 73
     0
 74
     5
  7

 75
    16
147
1.0
 76
     0
 77
     2
 78
   300
148
0.0
149
0.0
100
AcDbLayout
  1
1
 70
     1
 71
     1
 10
0.0
 20
0.0
 11
12.0
 21
9.0
 12
0.0
 22
0.0
 32
0.0
 14
1.000000000000000E+20
 24
1.000000000000000E+20
 34
1.000000000000000E+20
 15
-1.000000000000000E+20
 25
-1.000000000000000E+20
 35
-1.000000000000000E+20
146
0.0
 13
0.0
 23
0.0
 33
0.0
 16
1.0
 26
0.0
 36
0.0
 17
0.0
 27
1.0
 37
0.0
 76
     0
330
6B
  0
MATERIAL
  5
19
102
{ACAD_XDICTIONARY
360
1A
102
}
102
{ACAD_REACTORS
330
10
102
}
330
10
100
AcDbMaterial
  1
ByBlock
 72
     0
 43
0.0208333333333333
 43
0.0
 43
0.0
 43
0.0
 43
0.0
 43
0.0208333333333333
 43
0.0
 43
0.0
 43
0.0
 43
0.0
 43
1.0
 43
0.0
 43
0.0
 43
0.0
 43
0.0
 43
1.0
 77
     0
 47
0.0208333333333333
 47
0.0
 47
0.0
 47
0.0
 47
0.0
 47
0.0208333333333333
 47
0.0
 47
0.0
 47
0.0
 47
0.0
 47
1.0
 47
0.0
 47
0.0
 47
0.0
 47
0.0
 47
1.0
171
     0
 49
0.0208333333333333
 49
0.0
 49
0.0
 49
0.0
 49
0.0
 49
0.0208333333333333
 49
0.0
 49
0.0
 49
0.0
 49
0.0
 49
1.0
 49
0.0
 49
0.0
 49
0.0
 49
0.0
 49
1.0
175
     0
142
0.0208333333333333
142
0.0
142
0.0
142
0.0
142
0.0
142
0.0208333333333333
142
0.0
142
0.0
142
0.0
142
0.0
142
1.0
142
0.0
142
0.0
142
0.0
142
0.0
142
1.0
179
     0
144
0.0208333333333333
144
0.0
144
0.0
144
0.0
144
0.0
144
0.0208333333333333
144
0.0
144
0.0
144
0.0
144
0.0
144
1.0
144
0.0
144
0.0
144
0.0
144
0.0
144
1.0
147
0.0208333333333333
147
0.0
147
0.0
147
0.0
147
0.0
147
0.0208333333333333
147
0.0
147
0.0
147
0.0
147
0.0
147
1.0
147
0.0
147
0.0
147
0.0
147
0.0
147
1.0
  0
MATERIAL
  5
11
102
{ACAD_XDICTIONARY
360
12
102
}
102
{ACAD_REACTORS
330
10
102
}
330
10
100
AcDbMaterial
  1
ByLayer
 72
     0
 43
0.0208333333333333
 43
0.0
 43
0.0
 43
0.0
 43
0.0
 43
0.0208333333333333
 43
0.0
 43
0.0
 43
0.0
 43
0.0
 43
1.0
 43
0.0
 43
0.0
 43
0.0
 43
0.0
 43
1.0
 77
     0
 47
0.0208333333333333
 47
0.0
 47
0.0
 47
0.0
 47
0.0
 47
0.0208333333333333
 47
0.0
 47
0.0
 47
0.0
 47
0.0
 47
1.0
 47
0.0
 47
0.0
 47
0.0
 47
0.0
 47
1.0
171
     0
 49
0.0208333333333333
 49
0.0
 49
0.0
 49
0.0
 49
0.0
 49
0.0208333333333333
 49
0.0
 49
0.0
 49
0.0
 49
0.0
 49
1.0
 49
0.0
 49
0.0
 49
0.0
 49
0.0
 49
1.0
175
     0
142
0.0208333333333333
142
0.0
142
0.0
142
0.0
142
0.0
142
0.0208333333333333
142
0.0
142
0.0
142
0.0
142
0.0
142
1.0
142
0.0
142
0.0
142
0.0
142
0.0
142
1.0
179
     0
144
0.0208333333333333
144
0.0
144
0.0
144
0.0
144
0.0
144
0.0208333333333333
144
0.0
144
0.0
144
0.0
144
0.0
144
1.0
144
0.0
144
0.0
144
0.0
144
0.0
144
1.0
147
0.0208333333333333
147
0.0
147
0.0
147
0.0
147
0.0
147
0.0208333333333333
147
0.0
147
0.0
147
0.0
147
0.0
147
1.0
147
0.0
147
0.0
147
0.0
147
0.0
147
1.0
  0
MATERIAL
  5
21
102
{ACAD_XDICTIONARY
360
22
102
}
102
{ACAD_REACTORS
330
10
102
}
330
10
100
AcDbMaterial
  1
Global
 72
     0
 43
0.0208333333333333
 43
0.0
 43
0.0
 43
0.0
 43
0.0
 43
0.0208333333333333
 43
0.0
 43
0.0
 43
0.0
 43
0.0
 43
1.0
 43
0.0
 43
0.0
 43
0.0
 43
0.0
 43
1.0
 77
     0
 47
0.0208333333333333
 47
0.0
 47
0.0
 47
0.0
 47
0.0
 47
0.0208333333333333
 47
0.0
 47
0.0
 47
0.0
 47
0.0
 47
1.0
 47
0.0
 47
0.0
 47
0.0
 47
0.0
 47
1.0
171
     0
 49
0.0208333333333333
 49
0.0
 49
0.0
 49
0.0
 49
0.0
 49
0.0208333333333333
 49
0.0
 49
0.0
 49
0.0
 49
0.0
 49
1.0
 49
0.0
 49
0.0
 49
0.0
 49
0.0
 49
1.0
175
     0
142
0.0208333333333333
142
0.0
142
0.0
142
0.0
142
0.0
142
0.0208333333333333
142
0.0
142
0.0
142
0.0
142
0.0
142
1.0
142
0.0
142
0.0
142
0.0
142
0.0
142
1.0
179
     0
144
0.0208333333333333
144
0.0
144
0.0
144
0.0
144
0.0
144
0.0208333333333333
144
0.0
144
0.0
144
0.0
144
0.0
144
1.0
144
0.0
144
0.0
144
0.0
144
0.0
144
1.0
147
0.0208333333333333
147
0.0
147
0.0
147
0.0
147
0.0
147
0.0208333333333333
147
0.0
147
0.0
147
0.0
147
0.0
147
1.0
147
0.0
147
0.0
147
0.0
147
0.0
147
1.0
  0
MLEADERSTYLE
  5
66
102
{ACAD_REACTORS
330
65
102
}
330
65
100
AcDbMLeaderStyle
179
     2
170
     2
171
     1
172
     0
 90
        2
 40
0.0
 41
0.0
173
     1
 91
-1056964608
340
5A
 92
       -2
290
     1
 42
0.09
291
     1
 43
0.36
  3
Standard
 44
0.18
300

342
55
174
     1
178
     6
175
     1
176
     0
 93
-1056964608
 45
0.18
292
     0
297
     0
 46
0.18
 94
-1056964608
 47
1.0
 49
1.0
140
1.0
293
     1
141
0.0
294
     1
177
     0
142
1.0
295
     0
296
     0
143
0.125
271
     0
272
     9
273
     9
298
     0
  0
MLINESTYLE
  5
5F
102
{ACAD_REACTORS
330
5E
102
}
330
5E
100
AcDbMlineStyle
  2
STANDARD
 70
     0
  3

 62
   256
 51
90.0
 52
90.0
 71
     2
 49
0.5
 62
   256
  6
BYLAYER
 49
-0.5
 62
   256
  6
BYLAYER
  0
ACDBPLACEHOLDER
  5
F
102
{ACAD_REACTORS
330
E
102
}
330
E
  0
SCALE
  5
43
102
{ACAD_REACTORS
330
42
102
}
330
42
100
AcDbScale
 70
     0
300
1:1
140
1.0
141
1.0
290
     1
  0
SCALE
  5
44
102
{ACAD_REACTORS
330
42
102
}
330
42
100
AcDbScale
 70
     0
300
1/128" = 1'-0"
140
0.0078125
141
12.0
290
     0
  0
SCALE
  5
45
102
{ACAD_REACTORS
330
42
102
}
330
42
100
AcDbScale
 70
     0
300
1/64" = 1'-0"
140
0.015625
141
12.0
290
     0
  0
SCALE
  5
46
102
{ACAD_REACTORS
330
42
102
}
330
42
100
AcDbScale
 70
     0
300
1/32" = 1'-0"
140
0.03125
141
12.0
290
     0
  0
SCALE
  5
47
102
{ACAD_REACTORS
330
42
102
}
330
42
100
AcDbScale
 70
     0
300
1/16" = 1'-0"
140
0.0625
141
12.0
290
     0
  0
SCALE
  5
48
102
{ACAD_REACTORS
330
42
102
}
330
42
100
AcDbScale
 70
     0
300
3/32" = 1'-0"
140
0.09375
141
12.0
290
     0
  0
SCALE
  5
49
102
{ACAD_REACTORS
330
42
102
}
330
42
100
AcDbScale
 70
     0
300
1/8" = 1'-0"
140
0.125
141
12.0
290
     0
  0
SCALE
  5
4A
102
{ACAD_REACTORS
330
42
102
}
330
42
100
AcDbScale
 70
     0
300
3/16" = 1'-0"
140
0.1875
141
12.0
290
     0
  0
SCALE
  5
4B
102
{ACAD_REACTORS
330
42
102
}
330
42
100
AcDbScale
 70
     0
300
1/4" = 1'-0"
140
0.25
141
12.0
290
     0
  0
SCALE
  5
4C
102
{ACAD_REACTORS
330
42
102
}
330
42
100
AcDbScale
 70
     0
300
3/8" = 1'-0"
140
0.375
141
12.0
290
     0
  0
SCALE
  5
4D
102
{ACAD_REACTORS
330
42
102
}
330
42
100
AcDbScale
 70
     0
300
1/2" = 1'-0"
140
0.5
141
12.0
290
     0
  0
SCALE
  5
4E
102
{ACAD_REACTORS
330
42
102
}
330
42
100
AcDbScale
 70
     0
300
3/4" = 1'-0"
140
0.75
141
12.0
290
     0
  0
SCALE
  5
4F
102
{ACAD_REACTORS
330
42
102
}
330
42
100
AcDbScale
 70
     0
300
1" = 1'-0"
140
1.0
141
12.0
290
     0
  0
SCALE
  5
50
102
{ACAD_REACTORS
330
42
102
}
330
42
100
AcDbScale
 70
     0
300
1-1/2" = 1'-0"
140
1.5
141
12.0
290
     0
  0
SCALE
  5
51
102
{ACAD_REACTORS
330
42
102
}
330
42
100
AcDbScale
 70
     0
300
3" = 1'-0"
140
3.0
141
12.0
290
     0
  0
SCALE
  5
52
102
{ACAD_REACTORS
330
42
102
}
330
42
100
AcDbScale
 70
     0
300
6" = 1'-0"
140
6.0
141
12.0
290
     0
  0
SCALE
  5
53
102
{ACAD_REACTORS
330
42
102
}
330
42
100
AcDbScale
 70
     0
300
1'-0" = 1'-0"
140
12.0
141
12.0
290
     0
  0
ACDBSECTIONVIEWSTYLE
  5
68
102
{ACAD_XDICTIONARY
360
536
102
}
102
{ACAD_REACTORS
330
67
102
}
330
67
100
AcDbModelDocViewStyle
 70
     0
  3
Imperial24
290
     0
100
AcDbSectionViewStyle
 70
     0
 71
     0
 90
       78
 71
     1
340
55
 62
   256
 40
0.24
340
0
340
0
 62
   256
 40
0.24
300
I, O, Q, S, X, Z
 40
0.48
 90
        3
 40
0.18
 90
        1
 71
     2
340
5C
 90
       25
 62
   256
340
5C
 90
       50
 62
   256
 40
0.24
 40
0.0
 40
0.24
 71
     3
340
55
 62
   256
 40
0.24
 90
        1
 40
0.75
 90
        1
300
%<\AcVar ViewType \f "%tc1">% %<\AcVar ViewSectionStartId>%-%<\AcVar ViewSectionEndId>%\PSCALE %<\AcVar ViewScale \f "%sn">%
 71
     4
 62
   256
 62
   257
300
ANSI31
 40
1.0
 90
        0
290
     0
290
     0
 90
        6
 40
0.0
 40
1.570796326794896
 40
0.2617993877991494
 40
1.308996938995747
 40
-0.2617993877991494
 40
1.832595714594046
  0
TABLESTYLE
  5
64
102
{ACAD_XDICTIONARY
360
52B
102
}
102
{ACAD_REACTORS
330
63
102
}
330
63
100
AcDbTableStyle
280
     0
  3
Standard
 70
     0
 71
     0
 40
0.06
 41
0.06
280
     0
281
     0
  7
Standard
140
0.18
170
     2
 62
     0
 63
     7
283
     0
 90
      512
 91
        0
  1

274
    -2
284
     1
 64
     0
275
    -2
285
     1
 65
     0
276
    -2
286
     1
 66
     0
277
    -2
287
     1
 67
     0
278
    -2
288
     1
 68
     0
279
    -2
289
     1
 69
     0
  7
Standard
140
0.25
170
     5
 62
     0
 63
     7
283
     0
 90
      512
 91
        0
  1

274
    -2
284
     1
 64
     0
275
    -2
285
     1
 65
     0
276
    -2
286
     1
 66
     0
277
    -2
287
     1
 67
     0
278
    -2
288
     1
 68
     0
279
    -2
289
     1
 69
     0
  7
Standard
140
0.18
170
     5
 62
     0
 63
     7
283
     0
 90
      512
 91
        0
  1

274
    -2
284
     1
 64
     0
275
    -2
285
     1
 65
     0
276
    -2
286
     1
 66
     0
277
    -2
287
     1
 67
     0
278
    -2
288
     1
 68
     0
279
    -2
289
     1
 69
     0
  0
VISUALSTYLE
  5
2F
102
{ACAD_REACTORS
330
29
102
}
330
29
100
AcDbVisualStyle
  2
2dWireframe
 70
     4
177
     3
291
     0
 70
    58
 90
        0
176
     1
 90
        2
176
     1
 90
        0
176
     1
 90
        0
176
     1
 40
0.6
176
     1
 40
30.0
176
     1
 62
     7
420
 16777215
176
     1
 90
        1
176
     1
 90
        4
176
     1
 62
     7
176
     1
 62
   257
176
     1
 90
        1
176
     1
 90
        1
176
     1
 40
1.0
176
     1
 90
        0
176
     1
 62
   257
176
     1
 40
1.0
176
     1
 90
        1
176
     1
 90
        6
176
     1
 90
        2
176
     1
 62
     7
176
     1
 90
        5
176
     1
 90
        0
176
     1
 90
        0
176
     1
290
     0
176
     1
 90
        1
176
     1
 40
0.0
176
     1
 90
        0
176
     1
290
     1
176
     1
290
     1
176
     1
290
     0
176
     1
290
     0
176
     1
290
     0
176
     1
290
     0
176
     1
290
     0
176
     1
290
     0
176
     1
290
     0
176
     1
 90
       50
176
     1
 40
0.0
176
     1
 40
1.0
176
     1
 90
        0
176
     1
 62
    18
420
        0
176
     1
 90
       50
176
     1
 90
        3
176
     1
 62
     5
420
      255
176
     1
290
     0
176
     1
 90
       50
176
     1
 90
       50
176
     1
 90
       50
176
     1
290
     0
176
     1
 90
       50
176
     1
 62
   256
176
     0
 40
1.0
176
     0
 90
        2
176
     1
  1
strokes_ogs.tif
176
     1
290
     0
176
     1
 40
1.0
176
     1
 40
1.0
176
     1
1001
ACAD
1000
AcDbSavedByObjectVersion
1070
     0
  0
VISUALSTYLE
  5
2E
102
{ACAD_REACTORS
330
29
102
}
330
29
100
AcDbVisualStyle
  2
Basic
 70
     7
177
     3
291
     1
 70
    58
 90
        1
176
     1
 90
        0
176
     1
 90
        1
176
     1
 90
        0
176
     1
 40
0.6
176
     1
 40
30.0
176
     1
 62
     7
420
 16777215
176
     1
 90
        0
176
     1
 90
        4
176
     1
 62
     7
176
     1
 62
   257
176
     1
 90
        1
176
     1
 90
        1
176
     1
 40
1.0
176
     1
 90
        8
176
     1
 62
     7
176
     1
 40
1.0
176
     1
 90
        1
176
     1
 90
        6
176
     1
 90
        2
176
     1
 62
     7
176
     1
 90
        5
176
     1
 90
        0
176
     1
 90
        0
176
     1
290
     0
176
     1
 90
        1
176
     1
 40
0.0
176
     1
 90
        0
176
     1
290
     0
176
     1
290
     1
176
     1
290
     1
176
     1
290
     0
176
     1
290
     0
176
     1
290
     0
176
     1
290
     0
176
     1
290
     0
176
     1
290
     0
176
     1
 90
       50
176
     1
 40
0.0
176
     1
 40
1.0
176
     1
 90
        0
176
     1
 62
    18
420
        0
176
     1
 90
       50
176
     1
 90
        3
176
     1
 62
     5
420
      255
176
     1
290
     0
176
     1
 90
       50
176
     1
 90
       50
176
     1
 90
       50
176
     1
290
     0
176
     1
 90
       50
176
     1
 62
   256
176
     0
 40
1.0
176
     0
 90
        2
176
     1
  1
strokes_ogs.tif
176
     1
290
     0
176
     1
 40
1.0
176
     1
 40
1.0
176
     1
1001
ACAD
1000
AcDbSavedByObjectVersion
1070
     0
  0
VISUALSTYLE
  5
35
102
{ACAD_REACTORS
330
29
102
}
330
29
100
AcDbVisualStyle
  2
Brighten
 70
    12
177
     3
291
     1
 70
    58
 90
        2
176
     1
 90
        2
176
     1
 90
        0
176
     1
 90
        0
176
     1
 40
0.6
176
     1
 40
30.0
176
     1
 62
     7
420
 16777215
176
     1
 90
        1
176
     1
 90
        4
176
     1
 62
     7
176
     1
 62
   257
176
     1
 90
        1
176
     1
 90
        1
176
     1
 40
1.0
176
     1
 90
        8
176
     1
 62
     7
176
     1
 40
1.0
176
     1
 90
        1
176
     1
 90
        6
176
     1
 90
        2
176
     1
 62
     7
176
     1
 90
        5
176
     1
 90
        0
176
     1
 90
        0
176
     1
290
     0
176
     1
 90
        1
176
     1
 40
50.0
176
     1
 90
        0
176
     1
290
     0
176
     1
290
     1
176
     1
290
     1
176
     1
290
     0
176
     1
290
     0
176
     1
290
     0
176
     1
290
     0
176
     1
290
     0
176
     1
290
     0
176
     1
 90
       50
176
     1
 40
0.0
176
     1
 40
1.0
176
     1
 90
        0
176
     1
 62
    18
420
        0
176
     1
 90
       50
176
     1
 90
        3
176
     1
 62
     5
420
      255
176
     1
290
     0
176
     1
 90
       50
176
     1
 90
       50
176
     1
 90
       50
176
     1
290
     0
176
     1
 90
       50
176
     1
 62
   256
176
     0
 40
1.0
176
     0
 90
        2
176
     1
  1
strokes_ogs.tif
176
     1
290
     0
176
     1
 40
1.0
176
     1
 40
1.0
176
     1
1001
ACAD
1000
AcDbSavedByObjectVersion
1070
     0
  0
VISUALSTYLE
  5
39
102
{ACAD_REACTORS
330
29
102
}
330
29
100
AcDbVisualStyle
  2
ColorChange
 70
    16
177
     3
291
     1
 70
    58
 90
        2
176
     1
 90
        2
176
     1
 90
        3
176
     1
 90
        0
176
     1
 40
0.6
176
     1
 40
30.0
176
     1
 62
     8
420
  8421504
176
     1
 90
        1
176
     1
 90
        4
176
     1
 62
     7
176
     1
 62
   257
176
     1
 90
        1
176
     1
 90
        1
176
     1
 40
1.0
176
     1
 90
        8
176
     1
 62
     8
420
  8421504
176
     1
 40
1.0
176
     1
 90
        1
176
     1
 90
        6
176
     1
 90
        2
176
     1
 62
     7
176
     1
 90
        5
176
     1
 90
        0
176
     1
 90
        0
176
     1
290
     0
176
     1
 90
        1
176
     1
 40
0.0
176
     1
 90
        0
176
     1
290
     0
176
     1
290
     1
176
     1
290
     1
176
     1
290
     0
176
     1
290
     0
176
     1
290
     0
176
     1
290
     0
176
     1
290
     0
176
     1
290
     0
176
     1
 90
       50
176
     1
 40
0.0
176
     1
 40
1.0
176
     1
 90
        0
176
     1
 62
    18
420
        0
176
     1
 90
       50
176
     1
 90
        3
176
     1
 62
     5
420
      255
176
     1
290
     0
176
     1
 90
       50
176
     1
 90
       50
176
     1
 90
       50
176
     1
290
     0
176
     1
 90
       50
176
     1
 62
   256
176
     0
 40
1.0
176
     0
 90
        2
176
     1
  1
strokes_ogs.tif
176
     1
290
     0
176
     1
 40
1.0
176
     1
 40
1.0
176
     1
1001
ACAD
1000
AcDbSavedByObjectVersion
1070
     0
  0
VISUALSTYLE
  5
32
102
{ACAD_REACTORS
330
29
102
}
330
29
100
AcDbVisualStyle
  2
Conceptual
 70
     9
177
     3
291
     0
 70
    58
 90
        3
176
     1
 90
        2
176
     1
 90
        0
176
     1
 90
        0
176
     1
 40
0.6
176
     1
 40
30.0
176
     1
 62
     7
420
 16777215
176
     1
 90
        2
176
     1
 90
        2
176
     1
 62
     7
176
     1
 62
   257
176
     1
 90
        1
176
     1
 90
        1
176
     1
 40
179.0
176
     1
 90
        8
176
     1
 62
     7
176
     1
 40
1.0
176
     1
 90
        1
176
     1
 90
        6
176
     1
 90
        2
176
     1
 62
     7
176
     1
 90
        3
176
     1
 90
        0
176
     1
 90
        0
176
     1
290
     0
176
     1
 90
        1
176
     1
 40
0.0
176
     1
 90
        0
176
     1
290
     0
176
     1
290
     1
176
     1
290
     1
176
     1
290
     0
176
     1
290
     0
176
     1
290
     0
176
     1
290
     0
176
     1
290
     0
176
     1
290
     0
176
     1
 90
       50
176
     1
 40
0.0
176
     1
 40
1.0
176
     1
 90
        0
176
     1
 62
    18
420
        0
176
     1
 90
       50
176
     1
 90
        3
176
     1
 62
     5
420
      255
176
     1
290
     0
176
     1
 90
       50
176
     1
 90
       50
176
     1
 90
       50
176
     1
290
     0
176
     1
 90
       50
176
     1
 62
   256
176
     0
 40
1.0
176
     0
 90
        2
176
     1
  1
strokes_ogs.tif
176
     1
290
     0
176
     1
 40
1.0
176
     1
 40
1.0
176
     1
1001
ACAD
1000
AcDbSavedByObjectVersion
1070
     0
  0
VISUALSTYLE
  5
34
102
{ACAD_REACTORS
330
29
102
}
330
29
100
AcDbVisualStyle
  2
Dim
 70
    11
177
     3
291
     1
 70
    58
 90
        2
176
     1
 90
        2
176
     1
 90
        0
176
     1
 90
        0
176
     1
 40
0.6
176
     1
 40
30.0
176
     1
 62
     7
420
 16777215
176
     1
 90
        1
176
     1
 90
        4
176
     1
 62
     7
176
     1
 62
   257
176
     1
 90
        1
176
     1
 90
        1
176
     1
 40
1.0
176
     1
 90
        8
176
     1
 62
     7
176
     1
 40
1.0
176
     1
 90
        1
176
     1
 90
        6
176
     1
 90
        2
176
     1
 62
     7
176
     1
 90
        5
176
     1
 90
        0
176
     1
 90
        0
176
     1
290
     0
176
     1
 90
        1
176
     1
 40
-50.0
176
     1
 90
        0
176
     1
290
     0
176
     1
290
     1
176
     1
290
     1
176
     1
290
     0
176
     1
290
     0
176
     1
290
     0
176
     1
290
     0
176
     1
290
     0
176
     1
290
     0
176
     1
 90
       50
176
     1
 40
0.0
176
     1
 40
1.0
176
     1
 90
        0
176
     1
 62
    18
420
        0
176
     1
 90
       50
176
     1
 90
        3
176
     1
 62
     5
420
      255
176
     1
290
     0
176
     1
 90
       50
176
     1
 90
       50
176
     1
 90
       50
176
     1
290
     0
176
     1
 90
       50
176
     1
 62
   256
176
     0
 40
1.0
176
     0
 90
        2
176
     1
  1
strokes_ogs.tif
176
     1
290
     0
176
     1
 40
1.0
176
     1
 40
1.0
176
     1
1001
ACAD
1000
AcDbSavedByObjectVersion
1070
     0
  0
VISUALSTYLE
  5
41
102
{ACAD_REACTORS
330
29
102
}
330
29
100
AcDbVisualStyle
  2
EdgeColorOff
 70
    22
177
     3
291
     1
 70
    58
 90
        2
176
     0
 90
        2
176
     0
 90
        0
176
     0
 90
        0
176
     0
 40
0.6
176
     0
 40
30.0
176
     0
 62
     7
420
 16777215
176
     0
 90
        1
176
     0
 90
        4
176
     0
 62
     7
176
     0
 62
   257
176
     0
 90
        1
176
     0
 90
        1
176
     0
 40
1.0
176
     0
 90
        8
176
     2
 62
     7
176
     0
 40
1.0
176
     0
 90
        1
176
     0
 90
        6
176
     0
 90
        2
176
     0
 62
     7
176
     0
 90
        5
176
     0
 90
        0
176
     0
 90
        0
176
     0
290
     0
176
     0
 90
        1
176
     0
 40
0.0
176
     0
 90
        0
176
     0
290
     0
176
     1
290
     1
176
     1
290
     1
176
     1
290
     0
176
     1
290
     0
176
     1
290
     0
176
     1
290
     0
176
     1
290
     0
176
     1
290
     0
176
     1
 90
       50
176
     0
 40
0.0
176
     0
 40
1.0
176
     0
 90
        0
176
     0
 62
    18
420
        0
176
     0
 90
       50
176
     0
 90
        3
176
     0
 62
     5
420
      255
176
     0
290
     0
176
     1
 90
       50
176
     0
 90
       50
176
     0
 90
       50
176
     0
290
     0
176
     1
 90
       50
176
     0
 62
   256
176
     0
 40
1.0
176
     0
 90
        2
176
     0
  1
strokes_ogs.tif
176
     0
290
     0
176
     1
 40
1.0
176
     0
 40
1.0
176
     0
1001
ACAD
1000
AcDbSavedByObjectVersion
1070
     0
  0
VISUALSTYLE
  5
38
102
{ACAD_REACTORS
330
29
102
}
330
29
100
AcDbVisualStyle
  2
Facepattern
 70
    15
177
     3
291
     1
 70
    58
 90
        2
176
     1
 90
        2
176
     1
 90
        0
176
     1
 90
        0
176
     1
 40
0.6
176
     1
 40
30.0
176
     1
 62
     7
420
 16777215
176
     1
 90
        1
176
     1
 90
        4
176
     1
 62
     7
176
     1
 62
   257
176
     1
 90
        1
176
     1
 90
        1
176
     1
 40
1.0
176
     1
 90
        8
176
     1
 62
     7
176
     1
 40
1.0
176
     1
 90
        1
176
     1
 90
        6
176
     1
 90
        2
176
     1
 62
     7
176
     1
 90
        5
176
     1
 90
        0
176
     1
 90
        0
176
     1
290
     0
176
     1
 90
        1
176
     1
 40
0.0
176
     1
 90
        0
176
     1
290
     0
176
     1
290
     1
176
     1
290
     1
176
     1
290
     0
176
     1
290
     0
176
     1
290
     0
176
     1
290
     0
176
     1
290
     0
176
     1
290
     0
176
     1
 90
       50
176
     1
 40
0.0
176
     1
 40
1.0
176
     1
 90
        0
176
     1
 62
    18
420
        0
176
     1
 90
       50
176
     1
 90
        3
176
     1
 62
     5
420
      255
176
     1
290
     0
176
     1
 90
       50
176
     1
 90
       50
176
     1
 90
       50
176
     1
290
     0
176
     1
 90
       50
176
     1
 62
   256
176
     0
 40
1.0
176
     0
 90
        2
176
     1
  1
strokes_ogs.tif
176
     1
290
     0
176
     1
 40
1.0
176
     1
 40
1.0
176
     1
1001
ACAD
1000
AcDbSavedByObjectVersion
1070
     0
  0
VISUALSTYLE
  5
2A
102
{ACAD_REACTORS
330
29
102
}
330
29
100
AcDbVisualStyle
  2
Flat
 70
     0
177
     3
291
     1
 70
    58
 90
        2
176
     1
 90
        1
176
     1
 90
        1
176
     1
 90
        2
176
     1
 40
0.6
176
     1
 40
30.0
176
     1
 62
     7
420
 16777215
176
     1
 90
        0
176
     1
 90
        0
176
     1
 62
     7
176
     1
 62
   257
176
     1
 90
        1
176
     1
 90
        1
176
     1
 40
1.0
176
     1
 90
        8
176
     1
 62
     7
176
     1
 40
1.0
176
     1
 90
        1
176
     1
 90
        6
176
     1
 90
        2
176
     1
 62
     7
176
     1
 90
        5
176
     1
 90
        0
176
     1
 90
        0
176
     1
290
     0
176
     1
 90
       13
176
     1
 40
0.0
176
     1
 90
        0
176
     1
290
     0
176
     1
290
     1
176
     1
290
     1
176
     1
290
     0
176
     1
290
     0
176
     1
290
     0
176
     1
290
     0
176
     1
290
     0
176
     1
290
     0
176
     1
 90
       50
176
     1
 40
0.0
176
     1
 40
1.0
176
     1
 90
        0
176
     1
 62
    18
420
        0
176
     1
 90
       50
176
     1
 90
        3
176
     1
 62
     5
420
      255
176
     1
290
     0
176
     1
 90
       50
176
     1
 90
       50
176
     1
 90
       50
176
     1
290
     0
176
     1
 90
       50
176
     1
 62
   256
176
     0
 40
1.0
176
     0
 90
        2
176
     1
  1
strokes_ogs.tif
176
     1
290
     0
176
     1
 40
1.0
176
     1
 40
1.0
176
     1
1001
ACAD
1000
AcDbSavedByObjectVersion
1070
     0
  0
VISUALSTYLE
  5
2B
102
{ACAD_REACTORS
330
29
102
}
330
29
100
AcDbVisualStyle
  2
FlatWithEdges
 70
     1
177
     3
291
     1
 70
    58
 90
        2
176
     1
 90
        1
176
     1
 90
        1
176
     1
 90
        2
176
     1
 40
0.6
176
     1
 40
30.0
176
     1
 62
     7
420
 16777215
176
     1
 90
        1
176
     1
 90
        0
176
     1
 62
     7
176
     1
 62
   257
176
     1
 90
        1
176
     1
 90
        1
176
     1
 40
1.0
176
     1
 90
        0
176
     1
 62
   257
176
     1
 40
1.0
176
     1
 90
        1
176
     1
 90
        6
176
     1
 90
        2
176
     1
 62
     7
176
     1
 90
        5
176
     1
 90
        0
176
     1
 90
        0
176
     1
290
     0
176
     1
 90
       13
176
     1
 40
0.0
176
     1
 90
        0
176
     1
290
     0
176
     1
290
     1
176
     1
290
     1
176
     1
290
     0
176
     1
290
     0
176
     1
290
     0
176
     1
290
     0
176
     1
290
     0
176
     1
290
     0
176
     1
 90
       50
176
     1
 40
0.0
176
     1
 40
1.0
176
     1
 90
        0
176
     1
 62
    18
420
        0
176
     1
 90
       50
176
     1
 90
        3
176
     1
 62
     5
420
      255
176
     1
290
     0
176
     1
 90
       50
176
     1
 90
       50
176
     1
 90
       50
176
     1
290
     0
176
     1
 90
       50
176
     1
 62
   256
176
     0
 40
1.0
176
     0
 90
        2
176
     1
  1
strokes_ogs.tif
176
     1
290
     0
176
     1
 40
1.0
176
     1
 40
1.0
176
     1
1001
ACAD
1000
AcDbSavedByObjectVersion
1070
     0
  0
VISUALSTYLE
  5
2C
102
{ACAD_REACTORS
330
29
102
}
330
29
100
AcDbVisualStyle
  2
Gouraud
 70
     2
177
     3
291
     1
 70
    58
 90
        2
176
     1
 90
        2
176
     1
 90
        1
176
     1
 90
        2
176
     1
 40
0.6
176
     1
 40
30.0
176
     1
 62
     7
420
 16777215
176
     1
 90
        0
176
     1
 90
        0
176
     1
 62
     7
176
     1
 62
   257
176
     1
 90
        1
176
     1
 90
        1
176
     1
 40
1.0
176
     1
 90
        0
176
     1
 62
     7
176
     1
 40
1.0
176
     1
 90
        1
176
     1
 90
        6
176
     1
 90
        2
176
     1
 62
     7
176
     1
 90
        5
176
     1
 90
        0
176
     1
 90
        0
176
     1
290
     0
176
     1
 90
       13
176
     1
 40
0.0
176
     1
 90
        0
176
     1
290
     0
176
     1
290
     1
176
     1
290
     1
176
     1
290
     0
176
     1
290
     0
176
     1
290
     0
176
     1
290
     0
176
     1
290
     0
176
     1
290
     0
176
     1
 90
       50
176
     1
 40
0.0
176
     1
 40
1.0
176
     1
 90
        0
176
     1
 62
    18
420
        0
176
     1
 90
       50
176
     1
 90
        3
176
     1
 62
     5
420
      255
176
     1
290
     0
176
     1
 90
       50
176
     1
 90
       50
176
     1
 90
       50
176
     1
290
     0
176
     1
 90
       50
176
     1
 62
   256
176
     0
 40
1.0
176
     0
 90
        2
176
     1
  1
strokes_ogs.tif
176
     1
290
     0
176
     1
 40
1.0
176
     1
 40
1.0
176
     1
1001
ACAD
1000
AcDbSavedByObjectVersion
1070
     0
  0
VISUALSTYLE
  5
2D
102
{ACAD_REACTORS
330
29
102
}
330
29
100
AcDbVisualStyle
  2
GouraudWithEdges
 70
     3
177
     3
291
     1
 70
    58
 90
        2
176
     1
 90
        2
176
     1
 90
        1
176
     1
 90
        2
176
     1
 40
0.6
176
     1
 40
30.0
176
     1
 62
     7
420
 16777215
176
     1
 90
        1
176
     1
 90
        0
176
     1
 62
     7
176
     1
 62
   257
176
     1
 90
        1
176
     1
 90
        1
176
     1
 40
1.0
176
     1
 90
        0
176
     1
 62
   257
176
     1
 40
1.0
176
     1
 90
        1
176
     1
 90
        6
176
     1
 90
        2
176
     1
 62
     7
176
     1
 90
        5
176
     1
 90
        0
176
     1
 90
        0
176
     1
290
     0
176
     1
 90
       13
176
     1
 40
0.0
176
     1
 90
        0
176
     1
290
     0
176
     1
290
     1
176
     1
290
     1
176
     1
290
     0
176
     1
290
     0
176
     1
290
     0
176
     1
290
     0
176
     1
290
     0
176
     1
290
     0
176
     1
 90
       50
176
     1
 40
0.0
176
     1
 40
1.0
176
     1
 90
        0
176
     1
 62
    18
420
        0
176
     1
 90
       50
176
     1
 90
        3
176
     1
 62
     5
420
      255
176
     1
290
     0
176
     1
 90
       50
176
     1
 90
       50
176
     1
 90
       50
176
     1
290
     0
176
     1
 90
       50
176
     1
 62
   256
176
     0
 40
1.0
176
     0
 90
        2
176
     1
  1
strokes_ogs.tif
176
     1
290
     0
176
     1
 40
1.0
176
     1
 40
1.0
176
     1
1001
ACAD
1000
AcDbSavedByObjectVersion
1070
     0
  0
VISUALSTYLE
  5
31
102
{ACAD_REACTORS
330
29
102
}
330
29
100
AcDbVisualStyle
  2
Hidden
 70
     6
177
     3
291
     0
 70
    58
 90
        1
176
     1
 90
        2
176
     1
 90
        2
176
     1
 90
        0
176
     1
 40
0.6
176
     1
 40
30.0
176
     1
 62
     7
420
 16777215
176
     1
 90
        2
176
     1
 90
        2
176
     1
 62
     7
176
     1
 62
   257
176
     1
 90
        2
176
     1
 90
        1
176
     1
 40
40.0
176
     1
 90
        0
176
     1
 62
   257
176
     1
 40
1.0
176
     1
 90
        1
176
     1
 90
        6
176
     1
 90
        2
176
     1
 62
     7
176
     1
 90
        3
176
     1
 90
        0
176
     1
 90
        0
176
     1
290
     0
176
     1
 90
        1
176
     1
 40
0.0
176
     1
 90
        0
176
     1
290
     0
176
     1
290
     1
176
     1
290
     1
176
     1
290
     0
176
     1
290
     0
176
     1
290
     0
176
     1
290
     0
176
     1
290
     0
176
     1
290
     0
176
     1
 90
       50
176
     1
 40
0.0
176
     1
 40
1.0
176
     1
 90
        0
176
     1
 62
    18
420
        0
176
     1
 90
       50
176
     1
 90
        3
176
     1
 62
     5
420
      255
176
     1
290
     0
176
     1
 90
       50
176
     1
 90
       50
176
     1
 90
       50
176
     1
290
     0
176
     1
 90
       50
176
     1
 62
   256
176
     0
 40
1.0
176
     0
 90
        2
176
     1
  1
strokes_ogs.tif
176
     1
290
     0
176
     1
 40
1.0
176
     1
 40
1.0
176
     1
1001
ACAD
1000
AcDbSavedByObjectVersion
1070
     0
  0
VISUALSTYLE
  5
3F
102
{ACAD_REACTORS
330
29
102
}
330
29
100
AcDbVisualStyle
  2
JitterOff
 70
    20
177
     3
291
     1
 70
    58
 90
        2
176
     0
 90
        2
176
     0
 90
        0
176
     0
 90
        0
176
     0
 40
0.6
176
     0
 40
30.0
176
     0
 62
     7
420
 16777215
176
     0
 90
        1
176
     0
 90
        4
176
     0
 62
     7
176
     0
 62
   257
176
     0
 90
        1
176
     0
 90
        1
176
     0
 40
1.0
176
     0
 90
       10
176
     2
 62
     7
176
     0
 40
1.0
176
     0
 90
        1
176
     0
 90
        6
176
     0
 90
        2
176
     0
 62
     7
176
     0
 90
        5
176
     0
 90
        0
176
     0
 90
        0
176
     0
290
     0
176
     0
 90
        1
176
     0
 40
0.0
176
     0
 90
        0
176
     0
290
     0
176
     1
290
     1
176
     1
290
     1
176
     1
290
     0
176
     1
290
     0
176
     1
290
     0
176
     1
290
     0
176
     1
290
     0
176
     1
290
     0
176
     1
 90
       50
176
     0
 40
0.0
176
     0
 40
1.0
176
     0
 90
        0
176
     0
 62
    18
420
        0
176
     0
 90
       50
176
     0
 90
        3
176
     0
 62
     5
420
      255
176
     0
290
     0
176
     1
 90
       50
176
     0
 90
       50
176
     0
 90
       50
176
     0
290
     0
176
     1
 90
       50
176
     0
 62
   256
176
     0
 40
1.0
176
     0
 90
        2
176
     0
  1
strokes_ogs.tif
176
     0
290
     0
176
     1
 40
1.0
176
     0
 40
1.0
176
     0
1001
ACAD
1000
AcDbSavedByObjectVersion
1070
     0
  0
VISUALSTYLE
  5
37
102
{ACAD_REACTORS
330
29
102
}
330
29
100
AcDbVisualStyle
  2
Linepattern
 70
    14
177
     3
291
     1
 70
    58
 90
        2
176
     1
 90
        2
176
     1
 90
        0
176
     1
 90
        0
176
     1
 40
0.6
176
     1
 40
30.0
176
     1
 62
     7
420
 16777215
176
     1
 90
        1
176
     1
 90
        4
176
     1
 62
     7
176
     1
 62
   257
176
     1
 90
        7
176
     1
 90
        7
176
     1
 40
1.0
176
     1
 90
        8
176
     1
 62
     7
176
     1
 40
1.0
176
     1
 90
        1
176
     1
 90
        6
176
     1
 90
        2
176
     1
 62
     7
176
     1
 90
        5
176
     1
 90
        0
176
     1
 90
        0
176
     1
290
     0
176
     1
 90
        1
176
     1
 40
0.0
176
     1
 90
        0
176
     1
290
     0
176
     1
290
     1
176
     1
290
     1
176
     1
290
     0
176
     1
290
     0
176
     1
290
     0
176
     1
290
     0
176
     1
290
     0
176
     1
290
     0
176
     1
 90
       50
176
     1
 40
0.0
176
     1
 40
1.0
176
     1
 90
        0
176
     1
 62
    18
420
        0
176
     1
 90
       50
176
     1
 90
        3
176
     1
 62
     5
420
      255
176
     1
290
     0
176
     1
 90
       50
176
     1
 90
       50
176
     1
 90
       50
176
     1
290
     0
176
     1
 90
       50
176
     1
 62
   256
176
     0
 40
1.0
176
     0
 90
        2
176
     1
  1
strokes_ogs.tif
176
     1
290
     0
176
     1
 40
1.0
176
     1
 40
1.0
176
     1
1001
ACAD
1000
AcDbSavedByObjectVersion
1070
     0
  0
VISUALSTYLE
  5
40
102
{ACAD_REACTORS
330
29
102
}
330
29
100
AcDbVisualStyle
  2
OverhangOff
 70
    21
177
     3
291
     1
 70
    58
 90
        2
176
     0
 90
        2
176
     0
 90
        0
176
     0
 90
        0
176
     0
 40
0.6
176
     0
 40
30.0
176
     0
 62
     7
420
 16777215
176
     0
 90
        1
176
     0
 90
        4
176
     0
 62
     7
176
     0
 62
   257
176
     0
 90
        1
176
     0
 90
        1
176
     0
 40
1.0
176
     0
 90
        9
176
     2
 62
     7
176
     0
 40
1.0
176
     0
 90
        1
176
     0
 90
        6
176
     0
 90
        2
176
     0
 62
     7
176
     0
 90
        5
176
     0
 90
        0
176
     0
 90
        0
176
     0
290
     0
176
     0
 90
        1
176
     0
 40
0.0
176
     0
 90
        0
176
     0
290
     0
176
     1
290
     1
176
     1
290
     1
176
     1
290
     0
176
     1
290
     0
176
     1
290
     0
176
     1
290
     0
176
     1
290
     0
176
     1
290
     0
176
     1
 90
       50
176
     0
 40
0.0
176
     0
 40
1.0
176
     0
 90
        0
176
     0
 62
    18
420
        0
176
     0
 90
       50
176
     0
 90
        3
176
     0
 62
     5
420
      255
176
     0
290
     0
176
     1
 90
       50
176
     0
 90
       50
176
     0
 90
       50
176
     0
290
     0
176
     1
 90
       50
176
     0
 62
   256
176
     0
 40
1.0
176
     0
 90
        2
176
     0
  1
strokes_ogs.tif
176
     0
290
     0
176
     1
 40
1.0
176
     0
 40
1.0
176
     0
1001
ACAD
1000
AcDbSavedByObjectVersion
1070
     0
  0
VISUALSTYLE
  5
33
102
{ACAD_REACTORS
330
29
102
}
330
29
100
AcDbVisualStyle
  2
Realistic
 70
     8
177
     3
291
     0
 70
    58
 90
        2
176
     1
 90
        3
176
     1
 90
        0
176
     1
 90
        2
176
     1
 40
0.6
176
     1
 40
30.0
176
     1
 62
     7
420
 16777215
176
     1
 90
        0
176
     1
 90
        0
176
     1
 62
     7
176
     1
 62
   257
176
     1
 90
        1
176
     1
 90
        1
176
     1
 40
1.0
176
     1
 90
        8
176
     1
 62
   257
176
     1
 40
1.0
176
     1
 90
        1
176
     1
 90
        6
176
     1
 90
        2
176
     1
 62
     7
176
     1
 90
        3
176
     1
 90
        0
176
     1
 90
        0
176
     1
290
     0
176
     1
 90
       13
176
     1
 40
0.0
176
     1
 90
        0
176
     1
290
     0
176
     1
290
     1
176
     1
290
     1
176
     1
290
     0
176
     1
290
     0
176
     1
290
     0
176
     1
290
     0
176
     1
290
     0
176
     1
290
     0
176
     1
 90
       50
176
     1
 40
0.0
176
     1
 40
1.0
176
     1
 90
        0
176
     1
 62
    18
420
        0
176
     1
 90
       50
176
     1
 90
        3
176
     1
 62
     5
420
      255
176
     1
290
     0
176
     1
 90
       50
176
     1
 90
       50
176
     1
 90
       50
176
     1
290
     0
176
     1
 90
       50
176
     1
 62
   256
176
     0
 40
1.0
176
     0
 90
        2
176
     1
  1
strokes_ogs.tif
176
     1
290
     0
176
     1
 40
1.0
176
     1
 40
1.0
176
     1
1001
ACAD
1000
AcDbSavedByObjectVersion
1070
     0
  0
VISUALSTYLE
  5
3E
102
{ACAD_REACTORS
330
29
102
}
330
29
100
AcDbVisualStyle
  2
Shaded
 70
    27
177
     3
291
     0
 70
    58
 90
        2
176
     1
 90
        2
176
     1
 90
        1
176
     1
 90
        2
176
     1
 40
0.6
176
     1
 40
30.0
176
     1
 62
     7
420
 16777215
176
     1
 90
        0
176
     1
 90
        4
176
     1
 62
     7
176
     1
 62
   257
176
     1
 90
        1
176
     1
 90
        1
176
     1
 40
1.0
176
     1
 90
        8
176
     1
 62
   257
176
     1
 40
1.0
176
     1
 90
        1
176
     1
 90
        6
176
     1
 90
        2
176
     1
 62
     8
420
  7895160
176
     1
 90
        3
176
     1
 90
        0
176
     1
 90
        0
176
     1
290
     0
176
     1
 90
        5
176
     1
 40
0.0
176
     1
 90
        0
176
     1
290
     0
176
     1
290
     1
176
     1
290
     1
176
     1
290
     0
176
     1
290
     0
176
     1
290
     0
176
     1
290
     0
176
     1
290
     0
176
     1
290
     0
176
     1
 90
       50
176
     1
 40
0.0
176
     1
 40
1.0
176
     1
 90
        0
176
     1
 62
    18
420
        0
176
     1
 90
       50
176
     1
 90
        3
176
     1
 62
     5
420
      255
176
     1
290
     0
176
     1
 90
       50
176
     1
 90
       50
176
     1
 90
       50
176
     1
290
     0
176
     1
 90
       50
176
     1
 62
   256
176
     0
 40
1.0
176
     0
 90
        2
176
     1
  1
strokes_ogs.tif
176
     1
290
     0
176
     1
 40
1.0
176
     1
 40
1.0
176
     1
1001
ACAD
1000
AcDbSavedByObjectVersion
1070
     0
  0
VISUALSTYLE
  5
3D
102
{ACAD_REACTORS
330
29
102
}
330
29
100
AcDbVisualStyle
  2
Shaded with edges
 70
    26
177
     3
291
     0
 70
    58
 90
        2
176
     1
 90
        2
176
     1
 90
        1
176
     1
 90
        2
176
     1
 40
0.6
176
     1
 40
30.0
176
     1
 62
     7
420
 16777215
176
     1
 90
        1
176
     1
 90
        2
176
     1
 62
     7
176
     1
 62
   257
176
     1
 90
        2
176
     1
 90
        1
176
     1
 40
1.0
176
     1
 90
        8
176
     1
 62
   257
176
     1
 40
1.0
176
     1
 90
        1
176
     1
 90
        6
176
     1
 90
        2
176
     1
 62
     7
176
     1
 90
        3
176
     1
 90
        0
176
     1
 90
        0
176
     1
290
     0
176
     1
 90
        5
176
     1
 40
0.0
176
     1
 90
        0
176
     1
290
     0
176
     1
290
     1
176
     1
290
     1
176
     1
290
     0
176
     1
290
     0
176
     1
290
     0
176
     1
290
     0
176
     1
290
     0
176
     1
290
     0
176
     1
 90
       50
176
     1
 40
0.0
176
     1
 40
1.0
176
     1
 90
        0
176
     1
 62
    18
420
        0
176
     1
 90
       50
176
     1
 90
        3
176
     1
 62
     5
420
      255
176
     1
290
     0
176
     1
 90
       50
176
     1
 90
       50
176
     1
 90
       50
176
     1
290
     0
176
     1
 90
       50
176
     1
 62
   256
176
     0
 40
1.0
176
     0
 90
        2
176
     1
  1
strokes_ogs.tif
176
     1
290
     0
176
     1
 40
1.0
176
     1
 40
1.0
176
     1
1001
ACAD
1000
AcDbSavedByObjectVersion
1070
     0
  0
VISUALSTYLE
  5
3A
102
{ACAD_REACTORS
330
29
102
}
330
29
100
AcDbVisualStyle
  2
Shades of Gray
 70
    23
177
     3
291
     0
 70
    58
 90
        2
176
     1
 90
        2
176
     1
 90
        3
176
     1
 90
        0
176
     1
 40
0.6
176
     1
 40
30.0
176
     1
 62
     7
420
 16777215
176
     1
 90
        2
176
     1
 90
        2
176
     1
 62
     7
176
     1
 62
     7
176
     1
 90
        1
176
     1
 90
        1
176
     1
 40
40.0
176
     1
 90
        8
176
     1
 62
     7
176
     1
 40
1.0
176
     1
 90
        1
176
     1
 90
        6
176
     1
 90
        2
176
     1
 62
     7
176
     1
 90
        3
176
     1
 90
        0
176
     1
 90
        0
176
     1
290
     0
176
     1
 90
        1
176
     1
 40
0.0
176
     1
 90
        0
176
     1
290
     0
176
     1
290
     1
176
     1
290
     1
176
     1
290
     0
176
     1
290
     0
176
     1
290
     0
176
     1
290
     0
176
     1
290
     0
176
     1
290
     0
176
     1
 90
       50
176
     1
 40
0.0
176
     1
 40
1.0
176
     1
 90
        0
176
     1
 62
    18
420
        0
176
     1
 90
       50
176
     1
 90
        3
176
     1
 62
     5
420
      255
176
     1
290
     0
176
     1
 90
       50
176
     1
 90
       50
176
     1
 90
       50
176
     1
290
     0
176
     1
 90
       50
176
     1
 62
   256
176
     0
 40
1.0
176
     0
 90
        2
176
     1
  1
strokes_ogs.tif
176
     1
290
     0
176
     1
 40
1.0
176
     1
 40
1.0
176
     1
1001
ACAD
1000
AcDbSavedByObjectVersion
1070
     0
  0
VISUALSTYLE
  5
3B
102
{ACAD_REACTORS
330
29
102
}
330
29
100
AcDbVisualStyle
  2
Sketchy
 70
    24
177
     3
291
     0
 70
    58
 90
        1
176
     1
 90
        2
176
     1
 90
        2
176
     1
 90
        0
176
     1
 40
0.6
176
     1
 40
30.0
176
     1
 62
     7
420
 16777215
176
     1
 90
        2
176
     1
 90
        2
176
     1
 62
     7
176
     1
 62
     7
176
     1
 90
        1
176
     1
 90
        1
176
     1
 40
40.0
176
     1
 90
       11
176
     1
 62
     7
176
     1
 40
1.0
176
     1
 90
        1
176
     1
 90
        6
176
     1
 90
        2
176
     1
 62
     7
176
     1
 90
        6
176
     1
 90
        0
176
     1
 90
        0
176
     1
290
     0
176
     1
 90
        1
176
     1
 40
0.0
176
     1
 90
        0
176
     1
290
     0
176
     1
290
     1
176
     1
290
     1
176
     1
290
     0
176
     1
290
     0
176
     1
290
     0
176
     1
290
     0
176
     1
290
     0
176
     1
290
     0
176
     1
 90
       50
176
     1
 40
0.0
176
     1
 40
1.0
176
     1
 90
        0
176
     1
 62
    18
420
        0
176
     1
 90
       50
176
     1
 90
        3
176
     1
 62
     5
420
      255
176
     1
290
     0
176
     1
 90
       50
176
     1
 90
       50
176
     1
 90
       50
176
     1
290
     0
176
     1
 90
       50
176
     1
 62
   256
176
     0
 40
1.0
176
     0
 90
        2
176
     1
  1
strokes_ogs.tif
176
     1
290
     0
176
     1
 40
1.0
176
     1
 40
1.0
176
     1
1001
ACAD
1000
AcDbSavedByObjectVersion
1070
     0
  0
VISUALSTYLE
  5
36
102
{ACAD_REACTORS
330
29
102
}
330
29
100
AcDbVisualStyle
  2
Thicken
 70
    13
177
     3
291
     1
 70
    58
 90
        2
176
     1
 90
        2
176
     1
 90
        0
176
     1
 90
        0
176
     1
 40
0.6
176
     1
 40
30.0
176
     1
 62
     7
420
 16777215
176
     1
 90
        1
176
     1
 90
        4
176
     1
 62
     7
176
     1
 62
   257
176
     1
 90
        1
176
     1
 90
        1
176
     1
 40
1.0
176
     1
 90
       12
176
     1
 62
     7
176
     1
 40
1.0
176
     1
 90
        1
176
     1
 90
        6
176
     1
 90
        2
176
     1
 62
     7
176
     1
 90
        5
176
     1
 90
        0
176
     1
 90
        0
176
     1
290
     0
176
     1
 90
        1
176
     1
 40
0.0
176
     1
 90
        0
176
     1
290
     0
176
     1
290
     1
176
     1
290
     1
176
     1
290
     0
176
     1
290
     0
176
     1
290
     0
176
     1
290
     0
176
     1
290
     0
176
     1
290
     0
176
     1
 90
       50
176
     1
 40
0.0
176
     1
 40
1.0
176
     1
 90
        0
176
     1
 62
    18
420
        0
176
     1
 90
       50
176
     1
 90
        3
176
     1
 62
     5
420
      255
176
     1
290
     0
176
     1
 90
       50
176
     1
 90
       50
176
     1
 90
       50
176
     1
290
     0
176
     1
 90
       50
176
     1
 62
   256
176
     0
 40
1.0
176
     0
 90
        2
176
     1
  1
strokes_ogs.tif
176
     1
290
     0
176
     1
 40
1.0
176
     1
 40
1.0
176
     1
1001
ACAD
1000
AcDbSavedByObjectVersion
1070
     0
  0
VISUALSTYLE
  5
30
102
{ACAD_REACTORS
330
29
102
}
330
29
100
AcDbVisualStyle
  2
Wireframe
 70
     5
177
     3
291
     0
 70
    58
 90
        0
176
     1
 90
        2
176
     1
 90
        0
176
     1
 90
        0
176
     1
 40
0.6
176
     1
 40
30.0
176
     1
 62
     7
420
 16777215
176
     1
 90
        1
176
     1
 90
        4
176
     1
 62
     7
176
     1
 62
   257
176
     1
 90
        1
176
     1
 90
        1
176
     1
 40
1.0
176
     1
 90
        0
176
     1
 62
   257
176
     1
 40
1.0
176
     1
 90
        1
176
     1
 90
        6
176
     1
 90
        2
176
     1
 62
     7
176
     1
 90
        3
176
     1
 90
        0
176
     1
 90
        0
176
     1
290
     0
176
     1
 90
        1
176
     1
 40
0.0
176
     1
 90
        0
176
     1
290
     0
176
     1
290
     1
176
     1
290
     1
176
     1
290
     0
176
     1
290
     0
176
     1
290
     0
176
     1
290
     0
176
     1
290
     0
176
     1
290
     0
176
     1
 90
       50
176
     1
 40
0.0
176
     1
 40
1.0
176
     1
 90
        0
176
     1
 62
    18
420
        0
176
     1
 90
       50
176
     1
 90
        3
176
     1
 62
     5
420
      255
176
     1
290
     0
176
     1
 90
       50
176
     1
 90
       50
176
     1
 90
       50
176
     1
290
     0
176
     1
 90
       50
176
     1
 62
   256
176
     0
 40
1.0
176
     0
 90
        2
176
     1
  1
strokes_ogs.tif
176
     1
290
     0
176
     1
 40
1.0
176
     1
 40
1.0
176
     1
1001
ACAD
1000
AcDbSavedByObjectVersion
1070
     0
  0
VISUALSTYLE
  5
3C
102
{ACAD_REACTORS
330
29
102
}
330
29
100
AcDbVisualStyle
  2
X-Ray
 70
    25
177
     3
291
     0
 70
    58
 90
        2
176
     1
 90
        2
176
     1
 90
        1
176
     1
 90
        1
176
     1
 40
0.5
176
     1
 40
30.0
176
     1
 62
     7
420
 16777215
176
     1
 90
        1
176
     1
 90
        0
176
     1
 62
     7
176
     1
 62
   257
176
     1
 90
        1
176
     1
 90
        1
176
     1
 40
1.0
176
     1
 90
        8
176
     1
 62
     7
176
     1
 40
1.0
176
     1
 90
        1
176
     1
 90
        6
176
     1
 90
        2
176
     1
 62
     7
176
     1
 90
        3
176
     1
 90
        0
176
     1
 90
        0
176
     1
290
     0
176
     1
 90
       13
176
     1
 40
0.0
176
     1
 90
        0
176
     1
290
     0
176
     1
290
     1
176
     1
290
     1
176
     1
290
     0
176
     1
290
     0
176
     1
290
     0
176
     1
290
     0
176
     1
290
     0
176
     1
290
     0
176
     1
 90
       50
176
     1
 40
0.0
176
     1
 40
1.0
176
     1
 90
        0
176
     1
 62
    18
420
        0
176
     1
 90
       50
176
     1
 90
        3
176
     1
 62
     5
420
      255
176
     1
290
     0
176
     1
 90
       50
176
     1
 90
       50
176
     1
 90
       50
176
     1
290
     0
176
     1
 90
       50
176
     1
 62
   256
176
     0
 40
1.0
176
     0
 90
        2
176
     1
  1
strokes_ogs.tif
176
     1
290
     0
176
     1
 40
1.0
176
     1
 40
1.0
176
     1
1001
ACAD
1000
AcDbSavedByObjectVersion
1070
     0
  0
DICTIONARYVAR
  5
118
102
{ACAD_REACTORS
330
10F
102
}
330
10F
100
DictionaryVariables
280
     0
  1
1:1
  0
DICTIONARYVAR
  5
114
102
{ACAD_REACTORS
330
10F
102
}
330
10F
100
DictionaryVariables
280
     0
  1
STANDARD
  0
DICTIONARYVAR
  5
113
102
{ACAD_REACTORS
330
10F
102
}
330
10F
100
DictionaryVariables
280
     0
  1
STANDARD
  0
DICTIONARYVAR
  5
115
102
{ACAD_REACTORS
330
10F
102
}
330
10F
100
DictionaryVariables
280
     0
  1
Imperial24
  0
DICTIONARYVAR
  5
116
102
{ACAD_REACTORS
330
10F
102
}
330
10F
100
DictionaryVariables
280
     0
  1
Imperial24
  0
DICTIONARYVAR
  5
11A
102
{ACAD_REACTORS
330
10F
102
}
330
10F
100
DictionaryVariables
280
     0
  1
1
  0
DICTIONARYVAR
  5
11B
102
{ACAD_REACTORS
330
10F
102
}
330
10F
100
DictionaryVariables
280
     0
  1
15
  0
DICTIONARYVAR
  5
119
102
{ACAD_REACTORS
330
10F
102
}
330
10F
100
DictionaryVariables
280
     0
  1
0
  0
DICTIONARYVAR
  5
117
102
{ACAD_REACTORS
330
10F
102
}
330
10F
100
DictionaryVariables
280
     0
  1
0
  0
DICTIONARY
  5
535
102
{ACAD_REACTORS
330
533
102
}
330
533
100
AcDbDictionary
281
     1
  0
DICTIONARY
  5
534
102
{ACAD_REACTORS
330
533
102
}
330
533
100
AcDbDictionary
281
     1
  3
1548152973312
350
530
  3
1548152973328
350
531
  3
1548152973344
350
532
  3
1548681688928
350
52E
  3
1548681688944
350
52F
  0
DICTIONARY
  5
538
330
6A
100
AcDbDictionary
280
     1
281
     1
  3
ACAD_XREC_ROUNDTRIP
360
539
  0
DICTIONARY
  5
1A
330
19
100
AcDbDictionary
280
     1
281
     1
  3
BUMPTILE
360
1C
  3
DIFFUSETILE
360
1B
  3
OPACITYTILE
360
1F
  3
REFLECTIONTILE
360
1E
  3
REFRACTIONTILE
360
20
  3
SPECULARTILE
360
1D
  0
DICTIONARY
  5
12
330
11
100
AcDbDictionary
280
     1
281
     1
  3
BUMPTILE
360
14
  3
DIFFUSETILE
360
13
  3
OPACITYTILE
360
17
  3
REFLECTIONTILE
360
16
  3
REFRACTIONTILE
360
18
  3
SPECULARTILE
360
15
  0
DICTIONARY
  5
22
330
21
100
AcDbDictionary
280
     1
281
     1
  3
BUMPTILE
360
24
  3
DIFFUSETILE
360
23
  3
OPACITYTILE
360
27
  3
REFLECTIONTILE
360
26
  3
REFRACTIONTILE
360
28
  3
SPECULARTILE
360
25
  0
DICTIONARY
  5
536
330
68
100
AcDbDictionary
280
     1
281
     1
  3
ACAD_XREC_ROUNDTRIP
360
537
  0
DICTIONARY
  5
52B
330
64
100
AcDbDictionary
280
     1
281
     1
  3
ACAD_ROUNDTRIP_2008_TABLESTYLE_CELLSTYLEMAP
360
52C
  0
XRECORD
  5
530
102
{ACAD_REACTORS
330
534
102
}
330
534
100
AcDbXrecord
280
     1
  1
AcDbDs::LegacySchema
  2
AcDbDs::Legacy
280
     1
 91
        0
  0
XRECORD
  5
531
102
{ACAD_REACTORS
330
534
102
}
330
534
100
AcDbXrecord
280
     1
  1
AcDbDs::IndexedPropertySchema
  2
AcDs:Indexable
280
     1
 91
        0
  0
XRECORD
  5
532
102
{ACAD_REACTORS
330
534
102
}
330
534
100
AcDbXrecord
280
     1
  1
AcDbDs::HandleAttributeSchema
  2
AcDbDs::HandleAttribute
280
     7
 91
        1
284
     1
  0
XRECORD
  5
52E
102
{ACAD_REACTORS
330
534
102
}
330
534
100
AcDbXrecord
280
     1
  1
AcDb_Thumbnail_Schema
102
{ATTRRECORD
341
52F
  2
AcDbDs::TreatedAsObjectData
280
     1
291
     1
102
ATTRRECORD}
102
{ATTRRECORD
341
530
  2
AcDbDs::Legacy
280
     1
291
     1
102
ATTRRECORD}
  2
AcDbDs::ID
280
    10
 91
        8
102
{ATTRRECORD
341
531
  2
AcDs:Indexable
280
     1
291
     1
102
ATTRRECORD}
102
{ATTRRECORD
341
532
  2
AcDbDs::HandleAttribute
280
     7
282
     1
102
ATTRRECORD}
  2
Thumbnail_Data
280
    15
 91
        0
  0
XRECORD
  5
52F
102
{ACAD_REACTORS
330
534
102
}
330
534
100
AcDbXrecord
280
     1
  1
AcDbDs::TreatedAsObjectDataSchema
  2
AcDbDs::TreatedAsObjectData
280
     1
 91
        0
  0
XRECORD
  5
539
102
{ACAD_REACTORS
330
538
102
}
330
538
100
AcDbXrecord
280
     1
102
DISPLAYNAME
  1
Imperial24
102
FLAGS
 90
        0
  0
XRECORD
  5
1C
102
{ACAD_REACTORS
330
1A
102
}
330
1A
100
AcDbXrecord
280
     1
270
     1
271
     1
  0
XRECORD
  5
1B
102
{ACAD_REACTORS
330
1A
102
}
330
1A
100
AcDbXrecord
280
     1
270
     1
271
     1
  0
XRECORD
  5
1F
102
{ACAD_REACTORS
330
1A
102
}
330
1A
100
AcDbXrecord
280
     1
270
     1
271
     1
  0
XRECORD
  5
1E
102
{ACAD_REACTORS
330
1A
102
}
330
1A
100
AcDbXrecord
280
     1
270
     1
271
     1
  0
XRECORD
  5
20
102
{ACAD_REACTORS
330
1A
102
}
330
1A
100
AcDbXrecord
280
     1
270
     1
271
     1
  0
XRECORD
  5
1D
102
{ACAD_REACTORS
330
1A
102
}
330
1A
100
AcDbXrecord
280
     1
270
     1
271
     1
  0
XRECORD
  5
14
102
{ACAD_REACTORS
330
12
102
}
330
12
100
AcDbXrecord
280
     1
270
     1
271
     1
  0
XRECORD
  5
13
102
{ACAD_REACTORS
330
12
102
}
330
12
100
AcDbXrecord
280
     1
270
     1
271
     1
  0
XRECORD
  5
17
102
{ACAD_REACTORS
330
12
102
}
330
12
100
AcDbXrecord
280
     1
270
     1
271
     1
  0
XRECORD
  5
16
102
{ACAD_REACTORS
330
12
102
}
330
12
100
AcDbXrecord
280
     1
270
     1
271
     1
  0
XRECORD
  5
18
102
{ACAD_REACTORS
330
12
102
}
330
12
100
AcDbXrecord
280
     1
270
     1
271
     1
  0
XRECORD
  5
15
102
{ACAD_REACTORS
330
12
102
}
330
12
100
AcDbXrecord
280
     1
270
     1
271
     1
  0
XRECORD
  5
24
102
{ACAD_REACTORS
330
22
102
}
330
22
100
AcDbXrecord
280
     1
270
     1
271
     1
  0
XRECORD
  5
23
102
{ACAD_REACTORS
330
22
102
}
330
22
100
AcDbXrecord
280
     1
270
     1
271
     1
  0
XRECORD
  5
27
102
{ACAD_REACTORS
330
22
102
}
330
22
100
AcDbXrecord
280
     1
270
     1
271
     1
  0
XRECORD
  5
26
102
{ACAD_REACTORS
330
22
102
}
330
22
100
AcDbXrecord
280
     1
270
     1
271
     1
  0
XRECORD
  5
28
102
{ACAD_REACTORS
330
22
102
}
330
22
100
AcDbXrecord
280
     1
270
     1
271
     1
  0
XRECORD
  5
25
102
{ACAD_REACTORS
330
22
102
}
330
22
100
AcDbXrecord
280
     1
270
     1
271
     1
  0
XRECORD
  5
537
102
{ACAD_REACTORS
330
536
102
}
330
536
100
AcDbXrecord
280
     1
102
DISPLAYNAME
  1
Imperial24
102
FLAGS
 90
        0
  0
CELLSTYLEMAP
  5
52C
102
{ACAD_REACTORS
330
52B
102
}
330
52B
100
AcDbCellStyleMap
 90
        3
300
CELLSTYLE
  1
TABLEFORMAT_BEGIN
 90
        5
170
     1
 91
        0
 92
    32768
 62
   257
 93
        1
300
CONTENTFORMAT
  1
CONTENTFORMAT_BEGIN
 90
        0
 91
        0
 92
      512
 93
        0
300

 40
0.0
140
1.0
 94
        5
 62
     0
340
55
144
0.25
309
CONTENTFORMAT_END
171
     0
 94
        0
309
TABLEFORMAT_END
  1
CELLSTYLE_BEGIN
 90
        1
 91
        1
300
_TITLE
309
CELLSTYLE_END
300
CELLSTYLE
  1
TABLEFORMAT_BEGIN
 90
        5
170
     1
 91
        0
 92
        0
 62
   257
 93
        1
300
CONTENTFORMAT
  1
CONTENTFORMAT_BEGIN
 90
        0
 91
        0
 92
      512
 93
        0
300

 40
0.0
140
1.0
 94
        5
 62
     0
340
55
144
0.18
309
CONTENTFORMAT_END
171
     0
 94
        0
309
TABLEFORMAT_END
  1
CELLSTYLE_BEGIN
 90
        2
 91
        1
300
_HEADER
309
CELLSTYLE_END
300
CELLSTYLE
  1
TABLEFORMAT_BEGIN
 90
        5
170
     1
 91
        0
 92
        0
 62
   257
 93
        1
300
CONTENTFORMAT
  1
CONTENTFORMAT_BEGIN
 90
        0
 91
        0
 92
      512
 93
        0
300

 40
0.0
140
1.0
 94
        2
 62
     0
340
55
144
0.18
309
CONTENTFORMAT_END
171
     0
 94
        0
309
TABLEFORMAT_END
  1
CELLSTYLE_BEGIN
 90
        3
 91
        2
300
_DATA
309
CELLSTYLE_END
  0
ENDSEC
  0
SECTION
  2
ACDSDATA
 70
     2
 71
     8
  0
ACDSSCHEMA
 90
        0
  1
AcDb_Thumbnail_Schema
  2
AcDbDs::ID
280
    10
 91
        8
  2
Thumbnail_Data
280
    15
 91
        0
101
ACDSRECORD
 95
        0
 90
        1
  2
AcDbDs::TreatedAsObjectData
280
     1
291
     1
101
ACDSRECORD
 95
        0
 90
        2
  2
AcDbDs::Legacy
280
     1
291
     1
101
ACDSRECORD
  1
AcDbDs::ID
 90
        3
  2
AcDs:Indexable
280
     1
291
     1
101
ACDSRECORD
  1
AcDbDs::ID
 90
        4
  2
AcDbDs::HandleAttribute
280
     7
282
     1
  0
ACDSSCHEMA
 90
        1
  1
AcDbDs::TreatedAsObjectDataSchema
  2
AcDbDs::TreatedAsObjectData
280
     1
 91
        0
  0
ACDSSCHEMA
 90
        2
  1
AcDbDs::LegacySchema
  2
AcDbDs::Legacy
280
     1
 91
        0
  0
ACDSSCHEMA
 90
        3
  1
AcDbDs::IndexedPropertySchema
  2
AcDs:Indexable
280
     1
 91
        0
  0
ACDSSCHEMA
 90
        4
  1
AcDbDs::HandleAttributeSchema
  2
AcDbDs::HandleAttribute
280
     7
 91
        1
284
     1
  0
ACDSRECORD
 90
        0
  2
AcDbDs::ID
280
    10
320
72
  2
Thumbnail_Data
280
    15
 94
     1239
310
89504E470D0A1A0A0000000D49484452000001000000005208030000008C9DFA1C00000300504C5445212830FFFFFF2128300000000000000000000000000000000000000000000000000000330000660000990000CC0000FF0033000033330033660033990033CC0033FF0066000066330066660066990066CC0066FF0099
310
000099330099660099990099CC0099FF00CC0000CC3300CC6600CC9900CCCC00CCFF00FF0000FF3300FF6600FF9900FFCC00FFFF3300003300333300663300993300CC3300FF3333003333333333663333993333CC3333FF3366003366333366663366993366CC3366FF3399003399333399663399993399CC3399FF33CC00
310
33CC3333CC6633CC9933CCCC33CCFF33FF0033FF3333FF6633FF9933FFCC33FFFF6600006600336600666600996600CC6600FF6633006633336633666633996633CC6633FF6666006666336666666666996666CC6666FF6699006699336699666699996699CC6699FF66CC0066CC3366CC6666CC9966CCCC66CCFF66FF0066
310
FF3366FF6666FF9966FFCC66FFFF9900009900339900669900999900CC9900FF9933009933339933669933999933CC9933FF9966009966339966669966999966CC9966FF9999009999339999669999999999CC9999FF99CC0099CC3399CC6699CC9999CCCC99CCFF99FF0099FF3399FF6699FF9999FFCC99FFFFCC0000CC00
310
33CC0066CC0099CC00CCCC00FFCC3300CC3333CC3366CC3399CC33CCCC33FFCC6600CC6633CC6666CC6699CC66CCCC66FFCC9900CC9933CC9966CC9999CC99CCCC99FFCCCC00CCCC33CCCC66CCCC99CCCCCCCCCCFFCCFF00CCFF33CCFF66CCFF99CCFFCCCCFFFFFF0000FF0033FF0066FF0099FF00CCFF00FFFF3300FF3333
310
FF3366FF3399FF33CCFF33FFFF6600FF6633FF6666FF6699FF66CCFF66FFFF9900FF9933FF9966FF9999FF99CCFF99FFFFCC00FFCC33FFCC66FFCC99FFCCCCFFCCFFFFFF00FFFF33FFFF66FFFF99FFFFCCFFFFFF0000000D0D0D1A1A1A2828283535354343435050505D5D5D6B6B6B787878868686939393A1A1A1AEAEAEBB
310
BBBBC9C9C9D6D6D6E4E4E4F1F1F1FFFFFF0000000000000000000000000000000000000000000000000000000000002E4550F10000011C4944415478DAED9BB10EC3300805F9FFFF65EF909A10478E23D543CDBB5B2AC55E7A3298426306000000000000000000006BF129D505FCBC01010840000210800004ECFAF57DC196
310
BDCBC0157B3616F0EA0478E90868157F54FEFD83CA31E091E43C3EEF0F10503C0466024A874064B8B180DA4930EEB80701A57B2291EBC7B78097AF05F92D202E60120202020649F0584080AE003BC2405E800B0BC8EB92B7808880C90A27801CC02D40218480DAFD808710A8DE14CEFF8FB9DF02694FE5F3CF6064D60F901D
310
8CB424688600D5C1C87724A03B186995208311D5C1C8EB9B927EC0F6022EC59F5C47E8CC03ADF011EB07783EED8AFD00EF2242AD1F608313708D0445012AC351EB5F904957C2991F247A229AEF0C010000C05FF2018587AC66178025BE0000000049454E44AE426082F73C00D0AFF522C7EAA27D0000000049454E44AE4260
310
823238FA248F6C8EEE0020F406C76972BC17803A16DFCB9224C6C8E11C806A8D1D07C01E01060BC0ADED032A0A836D13D88393DD0DA31F1E9367869000DC39EF1F3B62EEFF10912449FA991E37EBFE4AFEDC76060000000049454E44AE426082
  0
ENDSEC
  0
EOF
